STARTFONT 2.1
COMMENT
COMMENT Converted from OpenType font "TimesNewRomanPS-BoldMT.otf" by "otf2bdf 3.0".
COMMENT
FONT -FreeType-Times New Roman-Bold-R-Normal--35-250-100-100-P-174-ISO10646-1
SIZE 25 100 100
FONTBOUNDINGBOX 57 47 -19 -11
STARTPROPERTIES 19
FOUNDRY "FreeType"
FAMILY_NAME "Times New Roman"
WEIGHT_NAME "Bold"
SLANT "R"
SETWIDTH_NAME "Normal"
ADD_STYLE_NAME ""
PIXEL_SIZE 35
POINT_SIZE 250
RESOLUTION_X 100
RESOLUTION_Y 100
SPACING "P"
AVERAGE_WIDTH 174
CHARSET_REGISTRY "ISO10646"
CHARSET_ENCODING "1"
FONT_ASCENT 31
FONT_DESCENT 7
COPYRIGHT "© 2006 The Monotype Corporation. All Rights Reserved."
_OTF_FONTFILE "TimesNewRomanPS-BoldMT.otf"
_OTF_PSNAME "TimesNewRomanPS-BoldMT"
ENDPROPERTIES
CHARS 1425
STARTCHAR 0020
ENCODING 32
SWIDTH 259 0
DWIDTH 9 0
BBX 0 0 0 0
BITMAP
ENDCHAR
STARTCHAR 0021
ENCODING 33
SWIDTH 345 0
DWIDTH 12 0
BBX 6 23 3 1
BITMAP
78
FC
FC
FC
F8
F8
78
78
70
70
30
30
30
20
20
20
00
00
70
F8
FC
F8
78
ENDCHAR
STARTCHAR 0022
ENCODING 34
SWIDTH 547 0
DWIDTH 19 0
BBX 13 11 3 13
BITMAP
7878
F8F8
F8F8
F8F8
F878
7070
7070
7070
7030
2020
2020
ENDCHAR
STARTCHAR 0023
ENCODING 35
SWIDTH 489 0
DWIDTH 17 0
BBX 16 23 1 0
BITMAP
060E
060C
060C
060C
0E0C
0C1C
0C18
FFFF
FFFF
1C18
1838
1830
1830
1830
FFFF
FFFF
3060
3060
3060
7060
60E0
60C0
60C0
ENDCHAR
STARTCHAR 0024
ENCODING 36
SWIDTH 489 0
DWIDTH 17 0
BBX 15 26 1 -2
BITMAP
0180
07E0
1DFC
399C
718C
7184
F184
F980
FF80
7F80
7FC0
3FE0
0FF8
07FC
01FC
01FE
01FE
01BE
419E
419E
419E
619C
71B8
7FF0
0180
0180
ENDCHAR
STARTCHAR 0025
ENCODING 37
SWIDTH 1008 0
DWIDTH 35 0
BBX 30 25 2 -1
BITMAP
00000380
1F800300
39C00600
79E00E00
79F00C00
78F01800
F8F03800
F8F03000
78F06000
79E0E000
79E0C000
39C18000
0F038000
000303F0
00060F38
000E0E3C
000C1E3C
00181E3C
00381E3C
00301E3C
00601E3C
00E01E3C
00C00E38
01800770
038003E0
ENDCHAR
STARTCHAR 0026
ENCODING 38
SWIDTH 835 0
DWIDTH 29 0
BBX 26 24 1 0
BITMAP
003F8000
00E3C000
00E3C000
01C1E000
01E1C000
01E1C000
01E18000
01F30000
01FC0000
01F81FC0
03F80F00
0EFC0600
1C7E0600
387F0C00
783F0800
781F9800
FC1FF000
FC0FE000
FE07F000
7F03FC40
7F87FF80
3FFCFF80
1FF07F00
01000800
ENDCHAR
STARTCHAR 0027
ENCODING 39
SWIDTH 288 0
DWIDTH 10 0
BBX 5 11 2 13
BITMAP
78
F8
F8
78
78
78
70
30
30
30
20
ENDCHAR
STARTCHAR 0028
ENCODING 40
SWIDTH 345 0
DWIDTH 12 0
BBX 10 30 1 -6
BITMAP
00C0
0380
0700
0E00
0C00
1C00
3C00
3C00
7800
7800
7800
7800
7800
F800
F800
F800
F800
7800
7800
7800
7800
3800
3C00
1C00
1C00
0E00
0600
0300
0180
0040
ENDCHAR
STARTCHAR 0029
ENCODING 41
SWIDTH 345 0
DWIDTH 12 0
BBX 10 30 0 -6
BITMAP
6000
3000
1800
0C00
0E00
0F00
0700
0780
0780
0780
07C0
03C0
03C0
03C0
03C0
03C0
03C0
03C0
03C0
07C0
0780
0780
0700
0700
0E00
0E00
1C00
1800
6000
C000
ENDCHAR
STARTCHAR 002A
ENCODING 42
SWIDTH 489 0
DWIDTH 17 0
BBX 13 13 2 11
BITMAP
0700
0700
0700
6318
F278
FAF8
7FF0
0500
0D80
3CE0
3CE0
38E0
1040
ENDCHAR
STARTCHAR 002B
ENCODING 43
SWIDTH 576 0
DWIDTH 20 0
BBX 18 19 1 2
BITMAP
00C000
00C000
00C000
00C000
00C000
00C000
00C000
00C000
FFFFC0
FFFFC0
FFFFC0
00C000
00C000
00C000
00C000
00C000
00C000
00C000
00C000
ENDCHAR
STARTCHAR 002C
ENCODING 44
SWIDTH 259 0
DWIDTH 9 0
BBX 7 11 1 -6
BITMAP
78
FC
FC
FE
7E
0C
0C
0C
18
30
40
ENDCHAR
STARTCHAR 002D
ENCODING 45
SWIDTH 345 0
DWIDTH 12 0
BBX 10 4 1 6
BITMAP
FFC0
FFC0
FFC0
FFC0
ENDCHAR
STARTCHAR 002E
ENCODING 46
SWIDTH 259 0
DWIDTH 9 0
BBX 5 5 2 0
BITMAP
F0
F8
F8
F8
F0
ENDCHAR
STARTCHAR 002F
ENCODING 47
SWIDTH 288 0
DWIDTH 10 0
BBX 10 25 0 -1
BITMAP
00C0
0180
0180
0180
0300
0300
0300
0700
0600
0600
0E00
0C00
0C00
0C00
1800
1800
1800
3000
3000
3000
6000
6000
6000
E000
C000
ENDCHAR
STARTCHAR 0030
ENCODING 48
SWIDTH 489 0
DWIDTH 17 0
BBX 15 23 1 0
BITMAP
07E0
1C70
3C38
3C3C
7C3C
7C3C
783E
783E
F83E
F83E
F83E
F83E
F83E
F83E
F83E
783E
783E
783C
7C3C
3C38
3C38
1C70
0FE0
ENDCHAR
STARTCHAR 0031
ENCODING 49
SWIDTH 489 0
DWIDTH 17 0
BBX 13 23 2 0
BITMAP
0180
0F80
3F80
FF80
0F80
0F80
0F80
0F80
0F80
0F80
0F80
0F80
0F80
0F80
0F80
0F80
0F80
0F80
0F80
0F80
0F80
0FC0
7FF8
ENDCHAR
STARTCHAR 0032
ENCODING 50
SWIDTH 489 0
DWIDTH 17 0
BBX 15 23 1 0
BITMAP
0FE0
1FF0
3FF8
7FF8
41FC
80FC
007C
0078
0078
0070
00F0
00E0
00C0
01C0
0380
0300
0602
0C04
181C
3FFC
3FFC
7FFC
FFF8
ENDCHAR
STARTCHAR 0033
ENCODING 51
SWIDTH 489 0
DWIDTH 17 0
BBX 14 23 1 0
BITMAP
0FE0
1FF0
3FF8
61F8
40F8
0078
0078
00F0
00E0
01E0
07F8
0FF8
01FC
00FC
007C
003C
003C
003C
001C
E038
F030
FC60
FFC0
ENDCHAR
STARTCHAR 0034
ENCODING 52
SWIDTH 489 0
DWIDTH 17 0
BBX 15 23 1 0
BITMAP
0038
0078
0078
00F8
01F8
03F8
02F8
06F8
0CF8
18F8
10F8
30F8
60F8
C0F8
FFFE
FFFE
FFFE
FFFE
00F8
00F8
00F8
00F8
00F8
ENDCHAR
STARTCHAR 0035
ENCODING 53
SWIDTH 489 0
DWIDTH 17 0
BBX 15 23 1 0
BITMAP
0FFE
0FFC
1FFC
1FFC
1000
3000
2000
3F80
7FE0
7FF0
7FF8
FFFC
01FE
007E
003E
001E
000E
000E
000C
700C
FC18
FE30
7FC0
ENDCHAR
STARTCHAR 0036
ENCODING 54
SWIDTH 489 0
DWIDTH 17 0
BBX 15 23 1 0
BITMAP
003E
01E0
03C0
0780
0F00
1E00
3E00
3C00
7CC0
7FF8
7CFC
7C7C
F83E
F83E
F83E
FC3E
7C3E
7C3E
7C3E
3C3C
3C3C
1E38
0FF0
ENDCHAR
STARTCHAR 0037
ENCODING 55
SWIDTH 489 0
DWIDTH 17 0
BBX 15 23 1 0
BITMAP
3FFE
7FFE
7FFE
7FFC
7FFC
401C
8018
0038
0038
0030
0070
0070
0060
00E0
00E0
00C0
01C0
01C0
0180
0380
0380
0300
0700
ENDCHAR
STARTCHAR 0038
ENCODING 56
SWIDTH 489 0
DWIDTH 17 0
BBX 15 23 1 0
BITMAP
0FF0
3C38
383C
781E
781E
7C1E
7C1E
7E3C
7FB8
3FF0
1FF0
0FF8
0FFC
39FC
78FE
787E
F83E
F83E
F81E
781E
783C
3C38
1FF0
ENDCHAR
STARTCHAR 0039
ENCODING 57
SWIDTH 489 0
DWIDTH 17 0
BBX 15 23 1 0
BITMAP
0FE0
1CF0
3878
787C
783C
F83E
F83E
F83E
F83E
F83E
7C3E
7C3E
3E7E
1FFC
077C
007C
0078
00F0
00F0
01E0
0380
0F00
7C00
ENDCHAR
STARTCHAR 003A
ENCODING 58
SWIDTH 345 0
DWIDTH 12 0
BBX 6 16 3 0
BITMAP
78
F8
FC
F8
78
00
00
00
00
00
00
78
F8
FC
F8
78
ENDCHAR
STARTCHAR 003B
ENCODING 59
SWIDTH 345 0
DWIDTH 12 0
BBX 6 22 3 -6
BITMAP
78
F8
FC
F8
78
00
00
00
00
00
00
78
F8
FC
FC
FC
0C
0C
18
10
20
C0
ENDCHAR
STARTCHAR 003C
ENCODING 60
SWIDTH 576 0
DWIDTH 20 0
BBX 18 16 1 4
BITMAP
0001C0
0007C0
003F00
00FC00
03E000
1F8000
7E0000
F00000
FC0000
1F0000
07E000
01F800
003F00
000FC0
0001C0
000040
ENDCHAR
STARTCHAR 003D
ENCODING 61
SWIDTH 576 0
DWIDTH 20 0
BBX 18 7 1 8
BITMAP
FFFFC0
FFFFC0
000000
000000
000000
FFFFC0
FFFFC0
ENDCHAR
STARTCHAR 003E
ENCODING 62
SWIDTH 576 0
DWIDTH 20 0
BBX 18 16 1 4
BITMAP
E00000
F80000
3F0000
0FC000
01F000
007E00
001F80
0003C0
000FC0
007E00
01F800
07C000
3F0000
F80000
E00000
800000
ENDCHAR
STARTCHAR 003F
ENCODING 63
SWIDTH 489 0
DWIDTH 17 0
BBX 13 23 2 1
BITMAP
1FE0
61F0
60F8
F0F8
F0F8
F0F8
70F8
00F8
00F0
01E0
01C0
0300
0200
0200
0400
0000
0000
0000
0F00
0F80
1F80
1F80
0F00
ENDCHAR
STARTCHAR 0040
ENCODING 64
SWIDTH 921 0
DWIDTH 32 0
BBX 29 30 2 -6
BITMAP
003FF800
00E00600
03800180
060000C0
0C000040
18000020
30000020
3007BC10
601CBC10
603C7810
C0787810
C0707810
C0F0F810
C0F0F010
81E0F010
81E1F020
81E1E020
83E3E020
C3E5E040
C3EDE080
C3F9E108
41F1E608
60E0F810
20000010
30000020
18000040
0C000080
06000300
01800E00
007FF000
ENDCHAR
STARTCHAR 0041
ENCODING 65
SWIDTH 720 0
DWIDTH 25 0
BBX 25 23 0 0
BITMAP
00080000
000C0000
001C0000
001E0000
003E0000
003E0000
007F0000
005F0000
00DF8000
009F8000
008FC000
018FC000
0107E000
0307E000
0203E000
07FFF000
0403F000
0C01F800
0801F800
0800FC00
1800FC00
3800FE00
FF03FF80
ENDCHAR
STARTCHAR 0042
ENCODING 66
SWIDTH 662 0
DWIDTH 23 0
BBX 21 23 1 0
BITMAP
FFFF00
1F1FC0
1F07E0
1F03E0
1F03F0
1F03F0
1F03F0
1F03F0
1F07E0
1F0FC0
1FFE00
1FFF80
1F07E0
1F03F0
1F03F8
1F01F8
1F01F8
1F01F8
1F01F8
1F03F0
1F03E0
1F8FC0
FFFF00
ENDCHAR
STARTCHAR 0043
ENCODING 67
SWIDTH 720 0
DWIDTH 25 0
BBX 22 24 1 -1
BITMAP
000004
00FFC4
03F07C
07C03C
0F800C
1F000C
3F0004
3E0004
7E0000
7E0000
7E0000
FE0000
FE0000
FE0000
FE0000
7E0000
7E0000
7E0000
3F0000
3F0004
1F800C
0FC018
07E070
01FFC0
ENDCHAR
STARTCHAR 0044
ENCODING 68
SWIDTH 720 0
DWIDTH 25 0
BBX 24 23 0 0
BITMAP
FFFE00
1F8FC0
0F83F0
0F81F8
0F80FC
0F80FC
0F807E
0F807E
0F807E
0F807E
0F807F
0F807F
0F807F
0F807E
0F807E
0F807E
0F807E
0F807C
0F80FC
0F80F8
0F81F0
1FCFC0
FFFE00
ENDCHAR
STARTCHAR 0045
ENCODING 69
SWIDTH 662 0
DWIDTH 23 0
BBX 20 23 1 0
BITMAP
FFFFE0
1F07E0
1F00E0
1F0060
1F0020
1F0420
1F0420
1F0400
1F0400
1F0C00
1F3C00
1FFC00
1F1C00
1F0C00
1F0400
1F0400
1F0410
1F0010
1F0010
1F8030
1F8070
1F83F0
FFFFF0
ENDCHAR
STARTCHAR 0046
ENCODING 70
SWIDTH 604 0
DWIDTH 21 0
BBX 19 23 1 0
BITMAP
FFFFE0
1F87E0
1F80E0
1F8020
1F8020
1F8020
1F8220
1F8200
1F8200
1F8600
1F9E00
1FFE00
1F9E00
1F8600
1F8200
1F8200
1F8200
1F8000
1F8000
1F8000
1F8000
1F8000
FFF000
ENDCHAR
STARTCHAR 0047
ENCODING 71
SWIDTH 777 0
DWIDTH 27 0
BBX 26 25 1 -1
BITMAP
00000200
00FFE200
03E07E00
07801E00
0F800E00
1F000600
3F000600
3E000200
7E000200
7E000000
7E000000
FE000000
FE000000
FE000000
7E03FFC0
7E007F00
7E007E00
7E007E00
3E007E00
3F007E00
1F007E00
0F807E00
03E07E00
00FFF000
00040000
ENDCHAR
STARTCHAR 0048
ENCODING 72
SWIDTH 777 0
DWIDTH 27 0
BBX 25 23 1 0
BITMAP
FFF7FF80
1F80FE00
1F807C00
1F807C00
1F007C00
1F007C00
1F007C00
1F007C00
1F007C00
1F007C00
1FFFFC00
1FFFFC00
1F007C00
1F007C00
1F007C00
1F007C00
1F007C00
1F007C00
1F007C00
1F807C00
1F807C00
1F80FC00
FFF7FF80
ENDCHAR
STARTCHAR 0049
ENCODING 73
SWIDTH 403 0
DWIDTH 14 0
BBX 12 23 1 0
BITMAP
FFF0
1F80
1F80
1F00
1F00
1F00
1F00
1F00
1F00
1F00
1F00
1F00
1F00
1F00
1F00
1F00
1F00
1F00
1F00
1F00
1F80
1F80
FFF0
ENDCHAR
STARTCHAR 004A
ENCODING 74
SWIDTH 489 0
DWIDTH 17 0
BBX 17 23 0 -1
BITMAP
07FF80
00FC00
00FC00
00FC00
00FC00
00FC00
00FC00
00FC00
00FC00
00FC00
00FC00
00FC00
00FC00
00FC00
00FC00
00FC00
70FC00
78FC00
F8FC00
F8F800
70F800
30F000
1FE000
ENDCHAR
STARTCHAR 004B
ENCODING 75
SWIDTH 777 0
DWIDTH 27 0
BBX 26 23 1 0
BITMAP
FFE0FF80
1F801E00
1F801800
1F803000
1F806000
1F81C000
1F830000
1F860000
1F8C0000
1F9C0000
1FFE0000
1FFF0000
1FBF0000
1FBF8000
1F9FC000
1F8FE000
1F87F000
1F83F000
1F83F800
1F81FC00
1F80FE00
1F80FF00
FFE3FFC0
ENDCHAR
STARTCHAR 004C
ENCODING 76
SWIDTH 662 0
DWIDTH 23 0
BBX 21 23 1 0
BITMAP
FFF000
3F8000
1F0000
1F0000
1F0000
1F0000
1F0000
1F0000
1F0000
1F0000
1F0000
1F0000
1F0000
1F0000
1F0000
1F0008
1F0008
1F0018
1F0018
1F0030
1F8070
1F81F0
FFFFF0
ENDCHAR
STARTCHAR 004D
ENCODING 77
SWIDTH 950 0
DWIDTH 33 0
BBX 31 23 1 0
BITMAP
FF8003FE
1FC007F0
1FC007F0
17E00FF0
17E00BF0
13E00BF0
13F013F0
13F013F0
11F833F0
11F823F0
10FC63F0
10FC43F0
107C43F0
107EC3F0
107E83F0
103F83F0
103F03F0
101F03F0
101E03F0
100E03F0
100E03F0
380C03F0
FF041FFE
ENDCHAR
STARTCHAR 004E
ENCODING 78
SWIDTH 720 0
DWIDTH 25 0
BBX 24 23 0 -1
BITMAP
FF807F
1FC01C
0FE008
0FE008
0FF008
0BF808
09FC08
08FE08
08FE08
087F08
083F88
081FC8
080FE8
080FE8
0807F8
0803F8
0801F8
0800F8
080078
080078
080038
1C0018
FF8008
ENDCHAR
STARTCHAR 004F
ENCODING 79
SWIDTH 777 0
DWIDTH 27 0
BBX 25 24 1 -1
BITMAP
01FFC000
03C1F000
0F80F800
1F007C00
1F003E00
3E003E00
7E003F00
7E003F00
7E001F00
7E001F80
FE001F80
FC001F80
FE001F80
7E001F80
7E001F00
7E003F00
7E003F00
3E003E00
3F003E00
1F007C00
0F807800
07C1F000
01FFC000
00080000
ENDCHAR
STARTCHAR 0050
ENCODING 80
SWIDTH 604 0
DWIDTH 21 0
BBX 19 23 1 0
BITMAP
FFFC00
1F3F80
1F0FC0
1F07E0
1F07E0
1F07E0
1F03E0
1F07E0
1F07E0
1F07C0
1F0F80
1FFF00
1FC000
1F0000
1F0000
1F0000
1F0000
1F0000
1F0000
1F0000
1F0000
1F8000
FFF000
ENDCHAR
STARTCHAR 0051
ENCODING 81
SWIDTH 777 0
DWIDTH 27 0
BBX 25 29 1 -5
BITMAP
01FFC000
03C1F000
0F80F800
1F007C00
1F003E00
3E003E00
7E003F00
7E003F00
7E001F80
7E001F80
FE001F80
FC001F80
FE001F80
7E001F80
7E001F00
7E003F00
7E003F00
3E003E00
3F003E00
1F007C00
0F80F800
07C1F000
01FFC000
003F0000
003F0000
001F8000
000FC000
0007F000
0001FF00
ENDCHAR
STARTCHAR 0052
ENCODING 82
SWIDTH 720 0
DWIDTH 25 0
BBX 24 23 1 0
BITMAP
FFFF00
3F0FC0
1F03E0
1F01F0
1F01F8
1F01F8
1F01F8
1F01F8
1F01F0
1F03F0
1F03E0
1FFFC0
1FFF00
1F3F80
1F1F80
1F0FC0
1F07E0
1F07F0
1F03F0
1F01F8
1F01FC
3F80FE
FFE07F
ENDCHAR
STARTCHAR 0053
ENCODING 83
SWIDTH 547 0
DWIDTH 19 0
BBX 16 24 2 0
BITMAP
1FE4
383C
701C
F00C
F004
F004
F804
FE00
FF80
7FE0
3FF0
1FFC
0FFE
03FE
00FF
803F
801F
800F
C00F
C00E
E00E
F81C
9FF0
0100
ENDCHAR
STARTCHAR 0054
ENCODING 84
SWIDTH 662 0
DWIDTH 23 0
BBX 21 23 1 0
BITMAP
FFFFF8
F8F8F8
E0F818
C0F818
80F808
80F808
00F800
00F800
00F800
00F800
00F800
00F800
00F800
00F800
00F800
00F800
00F800
00F800
00F800
00F800
00F800
01FC00
07FF80
ENDCHAR
STARTCHAR 0055
ENCODING 85
SWIDTH 720 0
DWIDTH 25 0
BBX 23 24 1 -1
BITMAP
FFF0FE
3F8038
1F0010
1F0010
1F0010
1F0010
1F0010
1F0010
1F0010
1F0010
1F0010
1F0010
1F0010
1F0010
1F0010
1F0010
1F0010
1F0010
1F8030
1F8020
0FC060
07E1C0
03FF00
001000
ENDCHAR
STARTCHAR 0056
ENCODING 86
SWIDTH 720 0
DWIDTH 25 0
BBX 25 23 0 -1
BITMAP
FFE07F80
3F800E00
1F800C00
1F800C00
0F800800
0FC01800
07C01000
07E03000
07E02000
03F06000
03F04000
01F04000
01F88000
00F88000
00FD8000
00FD0000
007F0000
007E0000
003E0000
003C0000
001C0000
00180000
00180000
ENDCHAR
STARTCHAR 0057
ENCODING 87
SWIDTH 1008 0
DWIDTH 35 0
BBX 34 24 0 -1
BITMAP
FFCFFF0FC0
3F01F80180
3F01F80100
1F80FC0100
1F80FC0200
0F807C0200
0FC07E0600
07C07E0400
07E07F0400
07E0FF0C00
03F09F0800
03F19F9800
01F11F9000
01F90F9000
01FA0FF000
00FE0FE000
00FE07E000
007C07E000
007C03C000
007803C000
0038038000
0038018000
0010018000
0010000000
ENDCHAR
STARTCHAR 0058
ENCODING 88
SWIDTH 720 0
DWIDTH 25 0
BBX 25 23 0 0
BITMAP
7FF0FF00
1FC03C00
1FC03800
0FE03000
07E06000
07F0C000
03F88000
01F90000
01FF0000
00FE0000
007E0000
007F0000
003F8000
003F8000
006FC000
00CFE000
0187E000
0303F000
0203F800
0601F800
0C00FC00
1C00FE00
FF83FF80
ENDCHAR
STARTCHAR 0059
ENCODING 89
SWIDTH 720 0
DWIDTH 25 0
BBX 25 23 0 0
BITMAP
FFE03F80
3F800E00
1F800C00
0FC00800
0FC01800
07E01000
07E02000
03F06000
03F84000
01F8C000
00FC8000
00FD0000
007F0000
007E0000
003E0000
003E0000
003E0000
003E0000
003E0000
003E0000
003E0000
007F0000
03FFE000
ENDCHAR
STARTCHAR 005A
ENCODING 90
SWIDTH 662 0
DWIDTH 23 0
BBX 21 23 1 0
BITMAP
3FFFF0
3E07E0
300FE0
200FC0
201F80
403F80
403F00
007F00
007E00
00FC00
01FC00
01F800
03F000
07F000
07E000
0FE008
0FC008
1F8008
3F8018
3F0038
7E0078
FE07F8
FFFFF8
ENDCHAR
STARTCHAR 005B
ENCODING 91
SWIDTH 345 0
DWIDTH 12 0
BBX 6 29 4 -6
BITMAP
FC
F0
E0
E0
E0
E0
E0
E0
E0
E0
E0
E0
E0
E0
E0
E0
E0
E0
E0
E0
E0
E0
E0
E0
E0
E0
E0
E0
FC
ENDCHAR
STARTCHAR 005C
ENCODING 92
SWIDTH 288 0
DWIDTH 10 0
BBX 10 25 0 -1
BITMAP
C000
C000
6000
6000
6000
3000
3000
3000
1800
1800
1800
1C00
0C00
0C00
0E00
0600
0600
0700
0300
0300
0300
0180
0180
0180
00C0
ENDCHAR
STARTCHAR 005D
ENCODING 93
SWIDTH 345 0
DWIDTH 12 0
BBX 7 29 1 -6
BITMAP
FE
1E
1E
1E
1E
1E
1E
1E
1E
1E
1E
1E
1E
1E
1E
1E
1E
1E
1E
1E
1E
1E
1E
1E
1E
1E
1E
1E
7E
ENDCHAR
STARTCHAR 005E
ENCODING 94
SWIDTH 576 0
DWIDTH 20 0
BBX 15 12 3 11
BITMAP
0300
0780
07C0
0FC0
0CE0
1CE0
3870
3030
7038
6018
E01C
C00E
ENDCHAR
STARTCHAR 005F
ENCODING 95
SWIDTH 489 0
DWIDTH 17 0
BBX 18 2 0 -7
BITMAP
FFFFC0
FFFFC0
ENDCHAR
STARTCHAR 0060
ENCODING 96
SWIDTH 345 0
DWIDTH 12 0
BBX 7 6 1 18
BITMAP
F8
78
3C
1C
0C
06
ENDCHAR
STARTCHAR 0061
ENCODING 97
SWIDTH 489 0
DWIDTH 17 0
BBX 14 16 2 0
BITMAP
1FC0
71F0
F0F0
F0F8
F8F8
F0F8
01F8
06F8
1CF8
38F8
70F8
F0F8
F0F8
FFF8
FEFC
7878
ENDCHAR
STARTCHAR 0062
ENCODING 98
SWIDTH 547 0
DWIDTH 19 0
BBX 17 23 1 0
BITMAP
FC0000
7C0000
3C0000
3C0000
3C0000
3C0000
3C0000
3CFC00
3DFE00
3E1F00
3C1F00
3C0F00
3C0F80
3C0F80
3C0F80
3C0F80
3C0F80
3C0F00
3C0F00
3C1F00
3E1E00
3E1C00
33F800
ENDCHAR
STARTCHAR 0063
ENCODING 99
SWIDTH 432 0
DWIDTH 15 0
BBX 14 16 1 0
BITMAP
0FE0
1CF0
3878
3878
7878
7830
7800
F800
F800
F800
7C00
7C00
7E04
3F18
1FF0
0FE0
ENDCHAR
STARTCHAR 0064
ENCODING 100
SWIDTH 547 0
DWIDTH 19 0
BBX 17 23 1 0
BITMAP
007F00
001F00
001F00
001F00
001F00
001F00
001F00
0FDF00
1EFF00
3C3F00
7C1F00
7C1F00
781F00
F81F00
F81F00
F81F00
F81F00
781F00
7C1F00
7C1F00
3C3F00
3FDF80
1F9F00
ENDCHAR
STARTCHAR 0065
ENCODING 101
SWIDTH 432 0
DWIDTH 15 0
BBX 14 16 1 0
BITMAP
0FC0
1C70
3870
7878
7878
7878
FFFC
FFFC
F800
F800
7C00
7C00
7E08
3F18
3FF0
0FE0
ENDCHAR
STARTCHAR 0066
ENCODING 102
SWIDTH 345 0
DWIDTH 12 0
BBX 13 23 1 1
BITMAP
07F0
0E78
1E78
1E30
3E00
3E00
3E00
FF80
FF80
3E00
3E00
3E00
3E00
3E00
3E00
3E00
3E00
3E00
3E00
3E00
3E00
3E00
FF80
ENDCHAR
STARTCHAR 0067
ENCODING 103
SWIDTH 489 0
DWIDTH 17 0
BBX 16 23 1 -7
BITMAP
0FFF
3C7F
7878
783C
F83C
F83C
F83C
783C
7878
3C70
0FE0
1800
3000
7000
7FF8
7FFE
7FFE
3FFF
383F
6007
E006
700C
3FF8
ENDCHAR
STARTCHAR 0068
ENCODING 104
SWIDTH 547 0
DWIDTH 19 0
BBX 17 23 1 0
BITMAP
FE0000
3E0000
3E0000
3E0000
3E0000
3E0000
3E0000
3E7C00
3FFE00
3F3E00
3E1E00
3E1F00
3E1F00
3E1F00
3E1F00
3E1F00
3E1F00
3E1F00
3E1F00
3E1F00
3E1F00
3E1F00
FF7F80
ENDCHAR
STARTCHAR 0069
ENCODING 105
SWIDTH 288 0
DWIDTH 10 0
BBX 8 23 1 1
BITMAP
3C
7E
7E
3C
18
00
00
FC
7C
3C
3C
3C
3C
3C
3C
3C
3C
3C
3C
3C
3C
7E
FF
ENDCHAR
STARTCHAR 006A
ENCODING 106
SWIDTH 345 0
DWIDTH 12 0
BBX 10 30 -1 -6
BITMAP
0780
07C0
0FC0
0780
0300
0000
0000
1F80
0F80
0780
0780
0780
0780
0780
0780
0780
0780
0780
0780
0780
0780
0780
0780
0780
0780
0780
E780
E780
E700
7E00
ENDCHAR
STARTCHAR 006B
ENCODING 107
SWIDTH 547 0
DWIDTH 19 0
BBX 19 23 1 0
BITMAP
FE0000
3E0000
3E0000
3E0000
3E0000
3E0000
3E0000
3E3F80
3E0E00
3E0C00
3E1800
3E3000
3E6000
3EE000
3FF000
3FF800
3EF800
3E7C00
3E3E00
3E3F00
3E1F00
3E1F80
FF3FE0
ENDCHAR
STARTCHAR 006C
ENCODING 108
SWIDTH 288 0
DWIDTH 10 0
BBX 8 23 1 0
BITMAP
FC
7C
3C
3C
3C
3C
3C
3C
3C
3C
3C
3C
3C
3C
3C
3C
3C
3C
3C
3C
3C
7E
FF
ENDCHAR
STARTCHAR 006D
ENCODING 109
SWIDTH 835 0
DWIDTH 29 0
BBX 27 16 1 0
BITMAP
FE7C3F00
3EFE7F80
3F1F8F80
3E1F0F80
3E1F0780
3E1F0780
3E1F0780
3E1F0780
3E1F0780
3E1F0780
3E1F0780
3E1F0780
3E1F0780
3E1F0780
3E1F0FC0
FF3FDFE0
ENDCHAR
STARTCHAR 006E
ENCODING 110
SWIDTH 547 0
DWIDTH 19 0
BBX 17 16 1 0
BITMAP
FE7C00
3FFE00
3F3E00
3E1E00
3E1F00
3E1F00
3E1F00
3E1F00
3E1F00
3E1F00
3E1F00
3E1F00
3E1F00
3E1F00
3E1F00
FF7F80
ENDCHAR
STARTCHAR 006F
ENCODING 111
SWIDTH 489 0
DWIDTH 17 0
BBX 15 16 1 0
BITMAP
0FE0
1C78
3C38
7C3C
783E
783E
F83E
F83E
F83E
F83E
783E
783E
783C
3C3C
1C78
0FE0
ENDCHAR
STARTCHAR 0070
ENCODING 112
SWIDTH 547 0
DWIDTH 19 0
BBX 17 23 1 -7
BITMAP
FCFC00
7DFE00
7E1E00
3E1F00
3C1F00
3C0F80
3C0F80
3C0F80
3C0F80
3C0F80
3C0F80
3C0F00
3C1F00
3E1F00
3F3E00
3DFC00
3C0000
3C0000
3C0000
3C0000
3C0000
7C0000
FF0000
ENDCHAR
STARTCHAR 0071
ENCODING 113
SWIDTH 547 0
DWIDTH 19 0
BBX 17 23 1 -7
BITMAP
07E300
1E3F00
3C3F00
3C1F00
7C1F00
781F00
781F00
F81F00
F81F00
F81F00
F81F00
7C1F00
7C1F00
7C3F00
3FFF00
1F9F00
001F00
001F00
001F00
001F00
001F00
001F00
007F80
ENDCHAR
STARTCHAR 0072
ENCODING 114
SWIDTH 432 0
DWIDTH 15 0
BBX 14 16 1 0
BITMAP
FE7C
3EFC
3EFC
3F38
3E00
3E00
3E00
3E00
3E00
3E00
3E00
3E00
3E00
3E00
3E00
FF80
ENDCHAR
STARTCHAR 0073
ENCODING 115
SWIDTH 403 0
DWIDTH 14 0
BBX 11 16 1 0
BITMAP
3F40
71C0
70C0
F040
F840
FE00
7F00
7FC0
3FC0
0FE0
07E0
43E0
41E0
60E0
71C0
7F80
ENDCHAR
STARTCHAR 0074
ENCODING 116
SWIDTH 345 0
DWIDTH 12 0
BBX 10 21 1 1
BITMAP
0400
0400
0C00
1C00
3C00
7FC0
FFC0
3C00
3C00
3C00
3C00
3C00
3C00
3C00
3C00
3C00
3C00
3E00
3E40
3F80
1F00
ENDCHAR
STARTCHAR 0075
ENCODING 117
SWIDTH 547 0
DWIDTH 19 0
BBX 17 16 1 0
BITMAP
FE7E00
7E3E00
3E1E00
3E1E00
3E1E00
3E1E00
3E1E00
3E1E00
3E1E00
3E1E00
3E1E00
3E1E00
3E3E00
3E3F00
3FDF00
1F9F80
ENDCHAR
STARTCHAR 0076
ENCODING 118
SWIDTH 489 0
DWIDTH 17 0
BBX 17 16 0 0
BITMAP
FF8F80
3E0700
3E0200
1F0600
1F0400
0F8400
0F8800
0F8800
07D800
07D000
03F000
03E000
01E000
01C000
01C000
00C000
ENDCHAR
STARTCHAR 0077
ENCODING 119
SWIDTH 720 0
DWIDTH 25 0
BBX 25 16 0 0
BITMAP
FF3FCF80
7E1F0600
3E0F8200
1E0F8400
1F0F8400
1F17C400
0F97C800
0FB7C800
0FA3F800
07E3F000
07C1F000
03C1F000
03C1E000
0380E000
0180E000
0180C000
ENDCHAR
STARTCHAR 0078
ENCODING 120
SWIDTH 489 0
DWIDTH 17 0
BBX 16 16 1 0
BITMAP
FFBE
7E18
3E10
1F20
1F60
0FC0
0FC0
07C0
07E0
03E0
07F0
05F0
08F8
18F8
30FC
FDFF
ENDCHAR
STARTCHAR 0079
ENCODING 121
SWIDTH 489 0
DWIDTH 17 0
BBX 17 23 0 -7
BITMAP
FF8F80
7E0700
3E0200
1F0600
1F0400
0F8400
0F8800
0F8800
07C800
07D000
03F000
03F000
01E000
01E000
01C000
00C000
00C000
008000
008000
790000
790000
7A0000
3E0000
ENDCHAR
STARTCHAR 007A
ENCODING 122
SWIDTH 432 0
DWIDTH 15 0
BBX 15 16 0 0
BITMAP
7FFE
707C
60FC
40F8
41F0
03F0
03E0
07E0
07C0
0F80
1F80
1F02
3F04
3E04
7C1C
FFFC
ENDCHAR
STARTCHAR 007B
ENCODING 123
SWIDTH 403 0
DWIDTH 14 0
BBX 9 30 3 -6
BITMAP
0780
0E00
1C00
1C00
3C00
3C00
3C00
1E00
1E00
1E00
1E00
1C00
1800
3000
C000
6000
3800
1C00
1C00
1E00
1E00
1E00
3C00
3C00
3C00
3C00
1C00
1C00
0E00
0380
ENDCHAR
STARTCHAR 007C
ENCODING 124
SWIDTH 230 0
DWIDTH 8 0
BBX 2 31 3 -7
BITMAP
C0
C0
C0
C0
C0
C0
C0
C0
C0
C0
C0
C0
C0
C0
C0
C0
C0
C0
C0
C0
C0
C0
C0
C0
C0
C0
C0
C0
C0
C0
C0
ENDCHAR
STARTCHAR 007D
ENCODING 125
SWIDTH 403 0
DWIDTH 14 0
BBX 9 31 2 -7
BITMAP
8000
F000
3800
1C00
1C00
1E00
1E00
3C00
3C00
3C00
3C00
3C00
1C00
1C00
0600
0180
0300
0C00
1C00
3C00
3C00
3C00
3C00
3C00
3C00
1E00
1C00
1C00
3800
3000
E000
ENDCHAR
STARTCHAR 007E
ENCODING 126
SWIDTH 518 0
DWIDTH 18 0
BBX 19 5 0 7
BITMAP
1E0020
7FC060
77F0C0
40FFC0
803F80
ENDCHAR
STARTCHAR 00A0
ENCODING 160
SWIDTH 259 0
DWIDTH 9 0
BBX 0 0 0 0
BITMAP
ENDCHAR
STARTCHAR 00A1
ENCODING 161
SWIDTH 345 0
DWIDTH 12 0
BBX 6 23 3 -7
BITMAP
78
F8
FC
F8
70
00
00
20
20
20
30
30
30
70
78
78
78
F8
F8
FC
FC
FC
78
ENDCHAR
STARTCHAR 00A2
ENCODING 162
SWIDTH 489 0
DWIDTH 17 0
BBX 13 29 2 -6
BITMAP
0018
0010
0010
0020
0020
0060
0040
0FE0
1CF0
38F8
78F8
7978
7930
FB00
FA00
FA00
FC00
FC00
7C00
7E08
3F18
3FF0
1FE0
1000
2000
2000
6000
4000
4000
ENDCHAR
STARTCHAR 00A3
ENCODING 163
SWIDTH 489 0
DWIDTH 17 0
BBX 16 24 1 0
BITMAP
00C0
03F8
063C
0E3C
1E3C
1E3C
1E18
1F00
1F00
1F00
1F00
FFF0
FFF0
1F00
0F00
0F00
0F00
0700
0701
7F03
DFFE
87FE
8FFC
F9F8
ENDCHAR
STARTCHAR 00A4
ENCODING 164
SWIDTH 489 0
DWIDTH 17 0
BBX 16 17 1 3
BITMAP
0002
C7C7
FFFE
7C7C
701C
600E
E006
C006
C006
C006
E006
600E
701C
7C3C
FFFE
C7C7
0002
ENDCHAR
STARTCHAR 00A5
ENCODING 165
SWIDTH 489 0
DWIDTH 17 0
BBX 17 23 0 0
BITMAP
FF0F80
7E0300
3E0200
3E0200
1F0600
1F0400
1F0400
0F8C00
0F8800
0F8800
07D800
07D000
07F000
FFFF80
03E000
03E000
03E000
FFFF80
03E000
03E000
03E000
03F000
1FFE00
ENDCHAR
STARTCHAR 00A6
ENCODING 166
SWIDTH 230 0
DWIDTH 8 0
BBX 2 31 3 -7
BITMAP
C0
C0
C0
C0
C0
C0
C0
C0
C0
C0
C0
C0
C0
00
00
00
00
00
00
C0
C0
C0
C0
C0
C0
C0
C0
C0
C0
C0
C0
ENDCHAR
STARTCHAR 00A7
ENCODING 167
SWIDTH 489 0
DWIDTH 17 0
BBX 14 30 2 -6
BITMAP
1FE0
3870
7070
7078
7070
7820
7C00
3E00
3F80
1FC0
37E0
63F0
E1F8
E07C
E03C
F01C
F81C
FC18
7E18
3FB0
1FC0
0FE0
03F0
01F0
3078
7878
7838
7830
3870
1FC0
ENDCHAR
STARTCHAR 00A8
ENCODING 168
SWIDTH 345 0
DWIDTH 12 0
BBX 11 4 0 19
BITMAP
71E0
F9E0
F9E0
71E0
ENDCHAR
STARTCHAR 00A9
ENCODING 169
SWIDTH 748 0
DWIDTH 26 0
BBX 24 23 1 0
BITMAP
01FF80
0781E0
0E0070
180018
303C4C
20E3C4
61C0C6
438042
C78043
C78003
C78003
C78001
C78001
C78003
C78003
438002
63C086
20F704
30180C
180018
0E0070
0781E0
01FF80
ENDCHAR
STARTCHAR 00AA
ENCODING 170
SWIDTH 288 0
DWIDTH 10 0
BBX 9 9 1 14
BITMAP
7F00
E700
E700
4700
1F00
6700
E700
E700
FF80
ENDCHAR
STARTCHAR 00AB
ENCODING 171
SWIDTH 489 0
DWIDTH 17 0
BBX 16 16 1 0
BITMAP
0103
0206
060E
0C0C
1C1C
3838
7878
F0F0
F0F0
7870
3838
1C3C
0C1C
060E
0606
0303
ENDCHAR
STARTCHAR 00AC
ENCODING 172
SWIDTH 576 0
DWIDTH 20 0
BBX 18 7 1 8
BITMAP
FFFFC0
FFFFC0
0000C0
0000C0
0000C0
0000C0
0000C0
ENDCHAR
STARTCHAR 00AD
ENCODING 173
SWIDTH 345 0
DWIDTH 12 0
BBX 10 4 1 6
BITMAP
FFC0
FFC0
FFC0
FFC0
ENDCHAR
STARTCHAR 00AE
ENCODING 174
SWIDTH 748 0
DWIDTH 26 0
BBX 24 23 1 0
BITMAP
01FF80
0781E0
0E0070
180018
30000C
23FF04
61C386
41C3C2
C1C3C3
C1C383
C1C783
C1FE01
C1CE01
C1CF03
C1C703
41C782
61E386
23F3C4
30000C
180018
0E0070
0781E0
01FF80
ENDCHAR
STARTCHAR 00AF
ENCODING 175
SWIDTH 489 0
DWIDTH 17 0
BBX 18 2 0 25
BITMAP
FFFFC0
FFFFC0
ENDCHAR
STARTCHAR 00B0
ENCODING 176
SWIDTH 403 0
DWIDTH 14 0
BBX 12 11 1 12
BITMAP
1F80
3FC0
70E0
E060
C070
C070
C070
E060
70E0
3FC0
1F80
ENDCHAR
STARTCHAR 00B1
ENCODING 177
SWIDTH 547 0
DWIDTH 19 0
BBX 19 19 0 2
BITMAP
00E000
00E000
00E000
00E000
00E000
00E000
00E000
00E000
FFFFE0
FFFFE0
FFFFE0
00E000
00E000
00E000
00E000
00E000
FFFFE0
FFFFE0
FFFFE0
ENDCHAR
STARTCHAR 00B2
ENCODING 178
SWIDTH 288 0
DWIDTH 10 0
BBX 10 12 0 11
BITMAP
3F00
7F80
4780
0380
0300
0700
0600
0C00
1840
3F80
7F80
FF80
ENDCHAR
STARTCHAR 00B3
ENCODING 179
SWIDTH 288 0
DWIDTH 10 0
BBX 9 12 0 11
BITMAP
3F00
7F80
4780
0300
0600
1F80
0780
0380
0180
4180
F300
7C00
ENDCHAR
STARTCHAR 00B4
ENCODING 180
SWIDTH 345 0
DWIDTH 12 0
BBX 7 6 4 18
BITMAP
3E
7C
78
70
E0
C0
ENDCHAR
STARTCHAR 00B5
ENCODING 181
SWIDTH 576 0
DWIDTH 20 0
BBX 18 23 1 -7
BITMAP
3C1E00
3C1E00
3C1E00
3C1E00
3C1E00
3C1E00
3C1E00
3C1E00
3C1E00
3C1E00
3C1E00
3C1E00
3C3E40
3E7F40
3FDFC0
7F8F80
600000
600000
700000
700000
F00000
F00000
700000
ENDCHAR
STARTCHAR 00B6
ENCODING 182
SWIDTH 547 0
DWIDTH 19 0
BBX 19 30 0 -7
BITMAP
07FFE0
1FE300
3FE300
7FE300
7FE300
FFE300
FFE300
FFE300
FFE300
FFE300
FFE300
7FE300
7FE300
3FE300
0FE300
01E300
006300
006300
006300
006300
006300
006300
006300
006300
006300
006300
006300
006300
006300
006300
ENDCHAR
STARTCHAR 00B7
ENCODING 183
SWIDTH 259 0
DWIDTH 9 0
BBX 5 5 2 9
BITMAP
F0
F8
F8
F8
F0
ENDCHAR
STARTCHAR 00B8
ENCODING 184
SWIDTH 345 0
DWIDTH 12 0
BBX 6 7 2 -7
BITMAP
10
18
3C
1C
1C
38
C0
ENDCHAR
STARTCHAR 00B9
ENCODING 185
SWIDTH 288 0
DWIDTH 10 0
BBX 8 12 1 11
BITMAP
1C
FC
1C
1C
1C
1C
1C
1C
1C
1C
1C
FF
ENDCHAR
STARTCHAR 00BA
ENCODING 186
SWIDTH 316 0
DWIDTH 11 0
BBX 10 10 1 13
BITMAP
3F00
6380
E380
E3C0
E3C0
E3C0
E380
6380
3300
0C00
ENDCHAR
STARTCHAR 00BB
ENCODING 187
SWIDTH 489 0
DWIDTH 17 0
BBX 15 16 1 0
BITMAP
8180
C0C0
60E0
7070
3870
3C38
1E3C
1E1E
1F1E
1E1C
3C3C
3838
7070
6060
C0C0
8180
ENDCHAR
STARTCHAR 00BC
ENCODING 188
SWIDTH 748 0
DWIDTH 26 0
BBX 24 24 1 -1
BITMAP
1C0018
FC0030
1C0070
1C0060
1C00C0
1C01C0
1C0180
1C0300
1C0700
1C0600
1C0C00
FF1C00
001806
00300E
00701E
00603E
00C06E
01C04E
01808E
0301FF
0701FF
06000E
0C000E
1C000E
ENDCHAR
STARTCHAR 00BD
ENCODING 189
SWIDTH 748 0
DWIDTH 26 0
BBX 24 24 1 -1
BITMAP
1C0038
FC0030
1C0060
1C00E0
1C00C0
1C0180
1C0380
1C0300
1C0600
1C0E00
1C0C00
FF1800
00387C
0030FE
00618F
00E00E
00C00E
01800C
03801C
030018
060021
0E007F
0C00FF
1801FE
ENDCHAR
STARTCHAR 00BE
ENCODING 190
SWIDTH 748 0
DWIDTH 26 0
BBX 25 24 0 -1
BITMAP
3F000C00
7F801800
47803800
03003000
06006000
1F80E000
0780C000
03818000
01838000
41830000
F3060000
7C0E0000
000C0300
00180700
00380F00
00301F00
00603700
00E02700
00C04700
0180FF80
0380FF80
03000700
06000700
0E000700
ENDCHAR
STARTCHAR 00BF
ENCODING 191
SWIDTH 489 0
DWIDTH 17 0
BBX 13 23 2 -7
BITMAP
0780
07C0
07C0
07C0
0380
0000
0000
0100
0100
0100
0300
0600
0E00
3C00
7C00
7800
F830
F878
F878
F878
7C38
7C30
3FE0
ENDCHAR
STARTCHAR 00C0
ENCODING 192
SWIDTH 720 0
DWIDTH 25 0
BBX 25 31 0 0
BITMAP
00F80000
00780000
00380000
003C0000
001C0000
000C0000
00000000
00000000
00080000
000C0000
001C0000
001E0000
003E0000
003E0000
007F0000
005F0000
00DF8000
009F8000
008FC000
018FC000
0107E000
0307E000
0203E000
07FFF000
0403F000
0C01F800
0801F800
0800FC00
1800FC00
3800FE00
FF03FF80
ENDCHAR
STARTCHAR 00C1
ENCODING 193
SWIDTH 720 0
DWIDTH 25 0
BBX 25 31 0 0
BITMAP
000F8000
000F0000
000E0000
001C0000
00180000
00180000
00000000
00000000
00080000
000C0000
001C0000
001E0000
003E0000
003E0000
007F0000
005F0000
00DF8000
009F8000
008FC000
018FC000
0107E000
0307E000
0203E000
07FFF000
0403F000
0C01F800
0801F800
0800FC00
1800FC00
3800FE00
FF03FF80
ENDCHAR
STARTCHAR 00C2
ENCODING 194
SWIDTH 720 0
DWIDTH 25 0
BBX 25 31 0 0
BITMAP
003E0000
003E0000
007F0000
00770000
00E38000
00C18000
0100C000
00000000
00080000
000C0000
001C0000
001E0000
003E0000
003E0000
007F0000
005F0000
00DF8000
009F8000
008FC000
018FC000
0107E000
0307E000
0203E000
07FFF000
0403F000
0C01F800
0801F800
0800FC00
1800FC00
3800FE00
FF03FF80
ENDCHAR
STARTCHAR 00C3
ENCODING 195
SWIDTH 720 0
DWIDTH 25 0
BBX 25 30 0 0
BITMAP
00304000
00FCC000
01FFC000
01BF8000
010F0000
00000000
00000000
00080000
000C0000
001C0000
001E0000
003E0000
003E0000
007F0000
005F0000
00DF8000
009F8000
008FC000
018FC000
0107E000
0307E000
0203E000
07FFF000
0403F000
0C01F800
0801F800
0800FC00
1800FC00
3800FE00
FF03FF80
ENDCHAR
STARTCHAR 00C4
ENCODING 196
SWIDTH 720 0
DWIDTH 25 0
BBX 25 30 0 0
BITMAP
00C18000
01E3C000
01F7C000
01E3C000
00C18000
00000000
00000000
00080000
000C0000
001C0000
001E0000
003E0000
003E0000
007F0000
005F0000
00DF8000
009F8000
008FC000
018FC000
0107E000
0307E000
0203E000
07FFF000
0403F000
0C01F800
0801F800
0800FC00
1800FC00
3800FE00
FF03FF80
ENDCHAR
STARTCHAR 00C5
ENCODING 197
SWIDTH 720 0
DWIDTH 25 0
BBX 25 29 0 0
BITMAP
001E0000
00230000
00610000
00610000
00610000
00370000
001C0000
000C0000
001C0000
001E0000
003E0000
003E0000
007F0000
005F0000
00DF8000
009F8000
008FC000
018FC000
0107E000
0307E000
0203E000
07FFF000
0403F000
0C01F800
0801F800
0800FC00
1800FC00
3800FE00
FF03FF80
ENDCHAR
STARTCHAR 00C6
ENCODING 198
SWIDTH 1008 0
DWIDTH 35 0
BBX 33 23 0 0
BITMAP
001FFFFF00
0003FC7F00
0002FC0700
0006FC0300
0004FC0300
0008FC2100
0018FC2100
0010FC2000
0030FC2000
0060FC6000
0040FDE000
00C0FFE000
01FFFCE000
0100FC6000
0300FC2000
0200FC2000
0600FC2080
0C00FC0080
0800FC0180
1800FC0180
3000FC0300
3800FC1F00
FE0FFFFF00
ENDCHAR
STARTCHAR 00C7
ENCODING 199
SWIDTH 720 0
DWIDTH 25 0
BBX 22 31 1 -7
BITMAP
000004
00FFC4
03F07C
07C03C
0F800C
1F000C
3F0004
3E0004
7E0000
7E0000
7E0000
FE0000
FE0000
FE0000
FE0000
7E0000
7E0000
7E0000
3F0000
3F0004
1F800C
0FC018
07E070
01FFC0
000C00
001C00
001E00
000E00
000E00
001C00
006000
ENDCHAR
STARTCHAR 00C8
ENCODING 200
SWIDTH 662 0
DWIDTH 23 0
BBX 20 31 1 0
BITMAP
03E000
01E000
00E000
007000
003000
001000
000000
000000
FFFFE0
1F07E0
1F00E0
1F0060
1F0020
1F0420
1F0420
1F0400
1F0400
1F0C00
1F3C00
1FFC00
1F1C00
1F0C00
1F0400
1F0400
1F0410
1F0010
1F0010
1F8030
1F8070
1F83F0
FFFFF0
ENDCHAR
STARTCHAR 00C9
ENCODING 201
SWIDTH 662 0
DWIDTH 23 0
BBX 20 31 1 0
BITMAP
003E00
003C00
003800
007800
007000
006000
000000
000000
FFFFE0
1F07E0
1F00E0
1F0060
1F0020
1F0420
1F0420
1F0400
1F0400
1F0C00
1F3C00
1FFC00
1F1C00
1F0C00
1F0400
1F0400
1F0410
1F0010
1F0010
1F8030
1F8070
1F83F0
FFFFF0
ENDCHAR
STARTCHAR 00CA
ENCODING 202
SWIDTH 662 0
DWIDTH 23 0
BBX 20 31 1 0
BITMAP
007800
00F800
01FC00
01DC00
038E00
030600
060300
000000
FFFFE0
1F07E0
1F00E0
1F0060
1F0020
1F0420
1F0420
1F0400
1F0400
1F0C00
1F3C00
1FFC00
1F1C00
1F0C00
1F0400
1F0400
1F0410
1F0010
1F0010
1F8030
1F8070
1F83F0
FFFFF0
ENDCHAR
STARTCHAR 00CB
ENCODING 203
SWIDTH 662 0
DWIDTH 23 0
BBX 20 30 1 0
BITMAP
038600
078F00
07CF00
078F00
030600
000000
000000
FFFFE0
1F07E0
1F00E0
1F0060
1F0020
1F0420
1F0420
1F0400
1F0400
1F0C00
1F3C00
1FFC00
1F1C00
1F0C00
1F0400
1F0400
1F0410
1F0010
1F0010
1F8030
1F8070
1F83F0
FFFFF0
ENDCHAR
STARTCHAR 00CC
ENCODING 204
SWIDTH 403 0
DWIDTH 14 0
BBX 12 31 1 0
BITMAP
7C00
3C00
1C00
0E00
0600
0200
0000
0000
FFF0
1F80
1F80
1F00
1F00
1F00
1F00
1F00
1F00
1F00
1F00
1F00
1F00
1F00
1F00
1F00
1F00
1F00
1F00
1F00
1F80
1F80
FFF0
ENDCHAR
STARTCHAR 00CD
ENCODING 205
SWIDTH 403 0
DWIDTH 14 0
BBX 12 31 1 0
BITMAP
03E0
07C0
0780
0700
0E00
0C00
0000
0000
FFF0
1F80
1F80
1F00
1F00
1F00
1F00
1F00
1F00
1F00
1F00
1F00
1F00
1F00
1F00
1F00
1F00
1F00
1F00
1F00
1F80
1F80
FFF0
ENDCHAR
STARTCHAR 00CE
ENCODING 206
SWIDTH 403 0
DWIDTH 14 0
BBX 12 31 1 0
BITMAP
0F00
1F00
1F80
3B80
71C0
60C0
C020
0000
FFF0
1F80
1F80
1F00
1F00
1F00
1F00
1F00
1F00
1F00
1F00
1F00
1F00
1F00
1F00
1F00
1F00
1F00
1F00
1F00
1F80
1F80
FFF0
ENDCHAR
STARTCHAR 00CF
ENCODING 207
SWIDTH 403 0
DWIDTH 14 0
BBX 12 30 1 0
BITMAP
30C0
79E0
F9E0
79E0
30C0
0000
0000
FFF0
1F80
1F80
1F00
1F00
1F00
1F00
1F00
1F00
1F00
1F00
1F00
1F00
1F00
1F00
1F00
1F00
1F00
1F00
1F00
1F80
1F80
FFF0
ENDCHAR
STARTCHAR 00D0
ENCODING 208
SWIDTH 720 0
DWIDTH 25 0
BBX 23 23 1 0
BITMAP
FFFE00
3F1F80
1F03E0
1F03F0
1F01F8
1F00F8
1F00FC
1F00FC
1F00FC
1F007E
FFF87E
FFF87E
1F007E
1F007E
1F007C
1F00FC
1F00FC
1F00F8
1F01F8
1F01F0
1F03E0
1F8F80
FFFC00
ENDCHAR
STARTCHAR 00D1
ENCODING 209
SWIDTH 720 0
DWIDTH 25 0
BBX 24 30 0 -1
BITMAP
007040
00FCC0
01FFC0
01BF80
010F00
000000
000000
FF807F
1FC01C
0FE008
0FE008
0FF008
0BF808
09FC08
08FE08
08FE08
087F08
083F88
081FC8
080FE8
080FE8
0807F8
0803F8
0801F8
0800F8
080078
080078
080038
1C0018
FF8008
ENDCHAR
STARTCHAR 00D2
ENCODING 210
SWIDTH 777 0
DWIDTH 27 0
BBX 25 32 1 -1
BITMAP
00F80000
00780000
00380000
001C0000
000C0000
000C0000
00000000
00000000
01FFC000
03C1F000
0F80F800
1F007C00
1F003E00
3E003E00
7E003F00
7E003F00
7E001F00
7E001F80
FE001F80
FC001F80
FE001F80
7E001F80
7E001F00
7E003F00
7E003F00
3E003E00
3F003E00
1F007C00
0F807800
07C1F000
01FFC000
00080000
ENDCHAR
STARTCHAR 00D3
ENCODING 211
SWIDTH 777 0
DWIDTH 27 0
BBX 25 32 1 -1
BITMAP
000F8000
000F0000
000E0000
001C0000
001C0000
00180000
00000000
00000000
01FFC000
03C1F000
0F80F800
1F007C00
1F003E00
3E003E00
7E003F00
7E003F00
7E001F00
7E001F80
FE001F80
FC001F80
FE001F80
7E001F80
7E001F00
7E003F00
7E003F00
3E003E00
3F003E00
1F007C00
0F807800
07C1F000
01FFC000
00080000
ENDCHAR
STARTCHAR 00D4
ENCODING 212
SWIDTH 777 0
DWIDTH 27 0
BBX 25 32 1 -1
BITMAP
003E0000
003E0000
007F0000
00770000
00E38000
00C18000
0180C000
00000000
01FFC000
03C1F000
0F80F800
1F007C00
1F003E00
3E003E00
7E003F00
7E003F00
7E001F00
7E001F80
FE001F80
FC001F80
FE001F80
7E001F80
7E001F00
7E003F00
7E003F00
3E003E00
3F003E00
1F007C00
0F807800
07C1F000
01FFC000
00080000
ENDCHAR
STARTCHAR 00D5
ENCODING 213
SWIDTH 777 0
DWIDTH 27 0
BBX 25 31 1 -1
BITMAP
00304000
00FCC000
01FFC000
01BF8000
010F0000
00000000
00000000
01FFC000
03C1F000
0F80F800
1F007C00
1F003E00
3E003E00
7E003F00
7E003F00
7E001F00
7E001F80
FE001F80
FC001F80
FE001F80
7E001F80
7E001F00
7E003F00
7E003F00
3E003E00
3F003E00
1F007C00
0F807800
07C1F000
01FFC000
00080000
ENDCHAR
STARTCHAR 00D6
ENCODING 214
SWIDTH 777 0
DWIDTH 27 0
BBX 25 31 1 -1
BITMAP
00E18000
01E3C000
01F7C000
01E3C000
00C18000
00000000
00000000
01FFC000
03C1F000
0F80F800
1F007C00
1F003E00
3E003E00
7E003F00
7E003F00
7E001F00
7E001F80
FE001F80
FC001F80
FE001F80
7E001F80
7E001F00
7E003F00
7E003F00
3E003E00
3F003E00
1F007C00
0F807800
07C1F000
01FFC000
00080000
ENDCHAR
STARTCHAR 00D7
ENCODING 215
SWIDTH 576 0
DWIDTH 20 0
BBX 14 15 3 4
BITMAP
4008
E01C
F03C
7878
3CF0
1FE0
0FC0
0780
0FC0
1FE0
3CF0
7878
F03C
E01C
4008
ENDCHAR
STARTCHAR 00D8
ENCODING 216
SWIDTH 777 0
DWIDTH 27 0
BBX 25 25 1 -1
BITMAP
00000200
00FFC600
03C1F400
0F80F800
1F007C00
1F003E00
3E007E00
7E00FF00
7E01BF00
7E033F00
7E021F80
FE041F80
FE0C1F80
FE181F80
7E301F80
7E601F00
7EC03F00
7E803F00
3F003E00
3F003E00
1F007C00
0F80F800
1FC1F000
31FFC000
60080000
ENDCHAR
STARTCHAR 00D9
ENCODING 217
SWIDTH 720 0
DWIDTH 25 0
BBX 23 32 1 -1
BITMAP
01F000
00F000
007800
003800
001800
000C00
000000
000000
FFF0FE
3F8038
1F0010
1F0010
1F0010
1F0010
1F0010
1F0010
1F0010
1F0010
1F0010
1F0010
1F0010
1F0010
1F0010
1F0010
1F0010
1F0010
1F8030
1F8020
0FC060
07E1C0
03FF00
001000
ENDCHAR
STARTCHAR 00DA
ENCODING 218
SWIDTH 720 0
DWIDTH 25 0
BBX 23 32 1 -1
BITMAP
001F00
001E00
003C00
003800
003000
006000
000000
000000
FFF0FE
3F8038
1F0010
1F0010
1F0010
1F0010
1F0010
1F0010
1F0010
1F0010
1F0010
1F0010
1F0010
1F0010
1F0010
1F0010
1F0010
1F0010
1F8030
1F8020
0FC060
07E1C0
03FF00
001000
ENDCHAR
STARTCHAR 00DB
ENCODING 219
SWIDTH 720 0
DWIDTH 25 0
BBX 23 32 1 -1
BITMAP
003C00
007E00
007E00
00FF00
00C300
018180
010080
000000
FFF0FE
3F8038
1F0010
1F0010
1F0010
1F0010
1F0010
1F0010
1F0010
1F0010
1F0010
1F0010
1F0010
1F0010
1F0010
1F0010
1F0010
1F0010
1F8030
1F8020
0FC060
07E1C0
03FF00
001000
ENDCHAR
STARTCHAR 00DC
ENCODING 220
SWIDTH 720 0
DWIDTH 25 0
BBX 23 31 1 -1
BITMAP
018300
03C780
03EF80
03C780
018300
000000
000000
FFF0FE
3F8038
1F0010
1F0010
1F0010
1F0010
1F0010
1F0010
1F0010
1F0010
1F0010
1F0010
1F0010
1F0010
1F0010
1F0010
1F0010
1F0010
1F8030
1F8020
0FC060
07E1C0
03FF00
001000
ENDCHAR
STARTCHAR 00DD
ENCODING 221
SWIDTH 720 0
DWIDTH 25 0
BBX 25 31 0 0
BITMAP
0007C000
00078000
000F0000
000E0000
000C0000
00180000
00000000
00000000
FFE03F80
3F800E00
1F800C00
0FC00800
0FC01800
07E01000
07E02000
03F06000
03F84000
01F8C000
00FC8000
00FD0000
007F0000
007E0000
003E0000
003E0000
003E0000
003E0000
003E0000
003E0000
003E0000
007F0000
03FFE000
ENDCHAR
STARTCHAR 00DE
ENCODING 222
SWIDTH 604 0
DWIDTH 21 0
BBX 19 23 1 0
BITMAP
FFE000
1F0000
1F0000
1F0000
1F0000
1FFC00
1F7F00
1F0FC0
1F07C0
1F07E0
1F07E0
1F07E0
1F07E0
1F07E0
1F07C0
1F0FC0
1FFF00
1FFC00
1F0000
1F0000
1F0000
1F8000
FFE000
ENDCHAR
STARTCHAR 00DF
ENCODING 223
SWIDTH 547 0
DWIDTH 19 0
BBX 17 23 1 1
BITMAP
07F800
1E3E00
3C1E00
3C1F00
3C1F00
3C1F00
3C1E00
3C1E00
3C7800
3C7C00
3C1E00
3C1F00
3C0F00
3C0F00
3C0F80
3C0F80
3C0F80
3C0F00
3C0F00
3CEF00
3CE700
7CEE00
FC7C00
ENDCHAR
STARTCHAR 00E0
ENCODING 224
SWIDTH 489 0
DWIDTH 17 0
BBX 14 24 2 0
BITMAP
3E00
1E00
0E00
0700
0300
0100
0000
0000
1FC0
71F0
F0F0
F0F8
F8F8
F0F8
01F8
06F8
1CF8
38F8
70F8
F0F8
F0F8
FFF8
FEFC
7878
ENDCHAR
STARTCHAR 00E1
ENCODING 225
SWIDTH 489 0
DWIDTH 17 0
BBX 14 24 2 0
BITMAP
01F0
03E0
03C0
0380
0700
0600
0000
0000
1FC0
71F0
F0F0
F0F8
F8F8
F0F8
01F8
06F8
1CF8
38F8
70F8
F0F8
F0F8
FFF8
FEFC
7878
ENDCHAR
STARTCHAR 00E2
ENCODING 226
SWIDTH 489 0
DWIDTH 17 0
BBX 14 24 2 0
BITMAP
0F80
0FC0
1FC0
1CE0
3860
2030
0000
0000
1FC0
71F0
F0F0
F0F8
F8F8
F0F8
01F8
06F8
1CF8
38F8
70F8
F0F8
F0F8
FFF8
FEFC
7878
ENDCHAR
STARTCHAR 00E3
ENCODING 227
SWIDTH 489 0
DWIDTH 17 0
BBX 14 23 2 0
BITMAP
1E10
3FF0
7FF0
47E0
0080
0000
0000
1FC0
71F0
F0F0
F0F8
F8F8
F0F8
01F8
06F8
1CF8
38F8
70F8
F0F8
F0F8
FFF8
FEFC
7878
ENDCHAR
STARTCHAR 00E4
ENCODING 228
SWIDTH 489 0
DWIDTH 17 0
BBX 14 23 2 0
BITMAP
38F0
7CF0
7CF0
38F0
0000
0000
0000
1FC0
71F0
F0F0
F0F8
F8F8
F0F8
01F8
06F8
1CF8
38F8
70F8
F0F8
F0F8
FFF8
FEFC
7878
ENDCHAR
STARTCHAR 00E5
ENCODING 229
SWIDTH 489 0
DWIDTH 17 0
BBX 14 24 2 0
BITMAP
0F80
08C0
1840
1040
1840
0F80
0700
0000
1FC0
71F0
F0F0
F0F8
F8F8
F0F8
01F8
06F8
1CF8
38F8
70F8
F0F8
F0F8
FFF8
FEFC
7878
ENDCHAR
STARTCHAR 00E6
ENCODING 230
SWIDTH 720 0
DWIDTH 25 0
BBX 22 16 2 0
BITMAP
1FC7E0
71EC70
E0FC78
F0F838
F8F83C
F0F83C
01FFFC
07FFFC
1CF800
38F800
787C00
F07C04
F07E04
F8FF18
FFBFF0
FE0FE0
ENDCHAR
STARTCHAR 00E7
ENCODING 231
SWIDTH 432 0
DWIDTH 15 0
BBX 14 23 1 -7
BITMAP
0FE0
1CF0
3878
3878
7878
7830
7800
F800
F800
F800
7C00
7C00
7E04
3F18
1FF0
0FE0
0100
0380
0780
01C0
0180
0780
0800
ENDCHAR
STARTCHAR 00E8
ENCODING 232
SWIDTH 432 0
DWIDTH 15 0
BBX 14 24 1 0
BITMAP
1F00
1F00
0F00
0780
0380
0180
0000
0000
0FC0
1C70
3870
7878
7878
7878
FFFC
FFFC
F800
F800
7C00
7C00
7E08
3F18
3FF0
0FE0
ENDCHAR
STARTCHAR 00E9
ENCODING 233
SWIDTH 432 0
DWIDTH 15 0
BBX 14 24 1 0
BITMAP
01F0
03E0
03C0
0380
0700
0600
0000
0000
0FC0
1C70
3870
7878
7878
7878
FFFC
FFFC
F800
F800
7C00
7C00
7E08
3F18
3FF0
0FE0
ENDCHAR
STARTCHAR 00EA
ENCODING 234
SWIDTH 432 0
DWIDTH 15 0
BBX 14 24 1 0
BITMAP
0780
0FC0
1FC0
1CE0
3860
3030
0000
0000
0FC0
1C70
3870
7878
7878
7878
FFFC
FFFC
F800
F800
7C00
7C00
7E08
3F18
3FF0
0FE0
ENDCHAR
STARTCHAR 00EB
ENCODING 235
SWIDTH 432 0
DWIDTH 15 0
BBX 14 23 1 0
BITMAP
3C70
3CF8
3CF8
3C70
0000
0000
0000
0FC0
1C70
3870
7878
7878
7878
FFFC
FFFC
F800
F800
7C00
7C00
7E08
3F18
3FF0
0FE0
ENDCHAR
STARTCHAR 00EC
ENCODING 236
SWIDTH 288 0
DWIDTH 10 0
BBX 9 24 0 0
BITMAP
F800
7800
3C00
1C00
0C00
0600
0000
0000
7E00
3E00
1E00
1E00
1E00
1E00
1E00
1E00
1E00
1E00
1E00
1E00
1E00
1E00
3F00
7F80
ENDCHAR
STARTCHAR 00ED
ENCODING 237
SWIDTH 288 0
DWIDTH 10 0
BBX 9 24 1 0
BITMAP
0F80
1F00
1E00
1C00
3800
3000
0000
0000
FC00
7C00
3C00
3C00
3C00
3C00
3C00
3C00
3C00
3C00
3C00
3C00
3C00
3C00
7E00
FF00
ENDCHAR
STARTCHAR 00EE
ENCODING 238
SWIDTH 288 0
DWIDTH 10 0
BBX 10 24 0 0
BITMAP
1E00
3F00
7F00
7380
E180
C0C0
0000
0000
7E00
3E00
1E00
1E00
1E00
1E00
1E00
1E00
1E00
1E00
1E00
1E00
1E00
1E00
3F00
7F80
ENDCHAR
STARTCHAR 00EF
ENCODING 239
SWIDTH 288 0
DWIDTH 10 0
BBX 10 23 0 0
BITMAP
E3C0
F3C0
F3C0
E3C0
0000
0000
0000
7E00
3E00
1E00
1E00
1E00
1E00
1E00
1E00
1E00
1E00
1E00
1E00
1E00
1E00
3F00
7F80
ENDCHAR
STARTCHAR 00F0
ENCODING 240
SWIDTH 489 0
DWIDTH 17 0
BBX 15 23 1 1
BITMAP
0C30
0660
0380
07C0
18E0
30F0
0078
0778
1EFC
3C7C
783E
783E
783E
F83E
F83E
F83E
F83E
783E
783C
783C
3C38
1C78
0FE0
ENDCHAR
STARTCHAR 00F1
ENCODING 241
SWIDTH 547 0
DWIDTH 19 0
BBX 17 23 1 0
BITMAP
078400
0FFC00
1FFC00
11F800
000000
000000
000000
FE7C00
3FFE00
3F3E00
3E1E00
3E1F00
3E1F00
3E1F00
3E1F00
3E1F00
3E1F00
3E1F00
3E1F00
3E1F00
3E1F00
3E1F00
FF7F80
ENDCHAR
STARTCHAR 00F2
ENCODING 242
SWIDTH 489 0
DWIDTH 17 0
BBX 15 24 1 0
BITMAP
1F00
0F00
0700
0380
0180
0080
0000
0000
0FE0
1C78
3C38
7C3C
783E
783E
F83E
F83E
F83E
F83E
783E
783E
783C
3C3C
1C78
0FE0
ENDCHAR
STARTCHAR 00F3
ENCODING 243
SWIDTH 489 0
DWIDTH 17 0
BBX 15 24 1 0
BITMAP
00F8
01F0
01E0
01C0
0380
0300
0000
0000
0FE0
1C78
3C38
7C3C
783E
783E
F83E
F83E
F83E
F83E
783E
783E
783C
3C3C
1C78
0FE0
ENDCHAR
STARTCHAR 00F4
ENCODING 244
SWIDTH 489 0
DWIDTH 17 0
BBX 15 24 1 0
BITMAP
07C0
07E0
0FE0
0E70
1C30
1018
0000
0000
0FE0
1C78
3C38
7C3C
783E
783E
F83E
F83E
F83E
F83E
783E
783E
783C
3C3C
1C78
0FE0
ENDCHAR
STARTCHAR 00F5
ENCODING 245
SWIDTH 489 0
DWIDTH 17 0
BBX 15 23 1 0
BITMAP
0F08
1FF8
3FF8
23F0
0000
0000
0000
0FE0
1C78
3C38
7C3C
783E
783E
F83E
F83E
F83E
F83E
783E
783E
783C
3C3C
1C78
0FE0
ENDCHAR
STARTCHAR 00F6
ENCODING 246
SWIDTH 489 0
DWIDTH 17 0
BBX 15 23 1 0
BITMAP
1C78
3E78
3E78
1C78
0000
0000
0000
0FE0
1C78
3C38
7C3C
783E
783E
F83E
F83E
F83E
F83E
783E
783E
783C
3C3C
1C78
0FE0
ENDCHAR
STARTCHAR 00F7
ENCODING 247
SWIDTH 547 0
DWIDTH 19 0
BBX 19 15 0 4
BITMAP
00E000
00E000
00E000
004000
000000
000000
FFFFE0
FFFFE0
FFFFE0
000000
000000
004000
00E000
00E000
004000
ENDCHAR
STARTCHAR 00F8
ENCODING 248
SWIDTH 489 0
DWIDTH 17 0
BBX 15 17 1 0
BITMAP
0002
0FE6
1E7C
3C3C
3C3C
7C3E
7C7E
7CFE
FDBE
FF3E
7E3E
7C3E
7C3E
7C3C
3C3C
7C78
CFF0
ENDCHAR
STARTCHAR 00F9
ENCODING 249
SWIDTH 547 0
DWIDTH 19 0
BBX 17 24 1 0
BITMAP
0F8000
078000
038000
03C000
01C000
00C000
000000
000000
FE7E00
7E3E00
3E1E00
3E1E00
3E1E00
3E1E00
3E1E00
3E1E00
3E1E00
3E1E00
3E1E00
3E1E00
3E3E00
3E3F00
3FDF00
1F9F80
ENDCHAR
STARTCHAR 00FA
ENCODING 250
SWIDTH 547 0
DWIDTH 19 0
BBX 17 24 1 0
BITMAP
007800
00F800
00F000
00E000
01C000
018000
000000
000000
FE7E00
7E3E00
3E1E00
3E1E00
3E1E00
3E1E00
3E1E00
3E1E00
3E1E00
3E1E00
3E1E00
3E1E00
3E3E00
3E3F00
3FDF00
1F9F80
ENDCHAR
STARTCHAR 00FB
ENCODING 251
SWIDTH 547 0
DWIDTH 19 0
BBX 17 24 1 0
BITMAP
03E000
03E000
07F000
077800
0E1800
180C00
000000
000000
FE7E00
7E3E00
3E1E00
3E1E00
3E1E00
3E1E00
3E1E00
3E1E00
3E1E00
3E1E00
3E1E00
3E1E00
3E3E00
3E3F00
3FDF00
1F9F80
ENDCHAR
STARTCHAR 00FC
ENCODING 252
SWIDTH 547 0
DWIDTH 19 0
BBX 17 23 1 0
BITMAP
0E3800
1F3C00
1F3C00
0E3C00
000000
000000
000000
FE7E00
7E3E00
3E1E00
3E1E00
3E1E00
3E1E00
3E1E00
3E1E00
3E1E00
3E1E00
3E1E00
3E1E00
3E3E00
3E3F00
3FDF00
1F9F80
ENDCHAR
STARTCHAR 00FD
ENCODING 253
SWIDTH 489 0
DWIDTH 17 0
BBX 17 31 0 -7
BITMAP
003E00
007C00
007800
007000
00E000
00C000
000000
000000
FF8F80
7E0700
3E0200
1F0600
1F0400
0F8400
0F8800
0F8800
07C800
07D000
03F000
03F000
01E000
01E000
01C000
00C000
00C000
008000
008000
790000
790000
7A0000
3E0000
ENDCHAR
STARTCHAR 00FE
ENCODING 254
SWIDTH 547 0
DWIDTH 19 0
BBX 17 31 1 -7
BITMAP
FC0000
7C0000
7C0000
3C0000
3C0000
3C0000
3C0000
3C0000
3CFC00
3DFE00
3E1E00
3E1F00
3C1F00
3C0F80
3C0F80
3C0F80
3C0F80
3C0F80
3C0F80
3C0F00
3C1F00
3E1F00
3F3E00
3DFC00
3C0000
3C0000
3C0000
3C0000
3C0000
7C0000
7E0000
ENDCHAR
STARTCHAR 00FF
ENCODING 255
SWIDTH 489 0
DWIDTH 17 0
BBX 17 30 0 -7
BITMAP
0F1C00
0F3E00
0F3E00
0F1C00
000000
000000
000000
FF8F80
7E0700
3E0200
1F0600
1F0400
0F8400
0F8800
0F8800
07C800
07D000
03F000
03F000
01E000
01E000
01C000
00C000
00C000
008000
008000
790000
790000
7A0000
3E0000
ENDCHAR
STARTCHAR 0100
ENCODING 256
SWIDTH 720 0
DWIDTH 25 0
BBX 25 28 0 0
BITMAP
01FFC000
01FFC000
00000000
00000000
00000000
00080000
000C0000
001C0000
001E0000
003E0000
003E0000
007F0000
005F0000
00DF8000
009F8000
008FC000
018FC000
0107E000
0307E000
0203E000
07FFF000
0403F000
0C01F800
0801F800
0800FC00
1800FC00
3800FE00
FF03FF80
ENDCHAR
STARTCHAR 0101
ENCODING 257
SWIDTH 489 0
DWIDTH 17 0
BBX 14 21 2 0
BITMAP
7FF0
7FF0
7FF0
0000
0000
1FC0
71F0
F0F0
F0F8
F8F8
F0F8
01F8
06F8
1CF8
38F8
70F8
F0F8
F0F8
FFF8
FEFC
7878
ENDCHAR
STARTCHAR 0102
ENCODING 258
SWIDTH 720 0
DWIDTH 25 0
BBX 25 30 0 0
BITMAP
0180C000
00E38000
00FF8000
007F0000
003E0000
00000000
00000000
00080000
000C0000
001C0000
001E0000
003E0000
003E0000
007F0000
005F0000
00DF8000
009F8000
008FC000
018FC000
0107E000
0307E000
0203E000
07FFF000
0403F000
0C01F800
0801F800
0800FC00
1800FC00
3800FE00
FF03FF80
ENDCHAR
STARTCHAR 0103
ENCODING 259
SWIDTH 489 0
DWIDTH 17 0
BBX 14 24 2 0
BITMAP
2010
2030
38F0
1FE0
1FC0
0780
0000
0000
1FC0
71F0
F0F0
F0F8
F8F8
F0F8
01F8
06F8
1CF8
38F8
70F8
F0F8
F0F8
FFF8
FEFC
7878
ENDCHAR
STARTCHAR 0104
ENCODING 260
SWIDTH 720 0
DWIDTH 25 0
BBX 25 31 0 -8
BITMAP
00080000
000C0000
001C0000
001E0000
003E0000
003E0000
007F0000
005F0000
00DF8000
009F8000
008FC000
018FC000
0107E000
0307E000
0203E000
07FFF000
0403F000
0C01F800
0801F800
0800FC00
1800FC00
3800FE00
FF03FF80
00003000
00006000
0000E000
0000E000
0000F000
00007800
00007F00
00001E00
ENDCHAR
STARTCHAR 0105
ENCODING 261
SWIDTH 489 0
DWIDTH 17 0
BBX 15 24 2 -8
BITMAP
1FC0
71F0
F0F0
F0F8
F8F8
F0F8
01F8
06F8
1CF8
38F8
70F8
F0F8
F0F8
FFF8
FEFC
7878
0060
00C0
01C0
01E0
01E0
00F0
007E
003C
ENDCHAR
STARTCHAR 0106
ENCODING 262
SWIDTH 720 0
DWIDTH 25 0
BBX 22 31 1 -1
BITMAP
0007C0
000F80
000F00
000E00
001C00
001800
000000
000004
00FFC4
03F07C
07C03C
0F800C
1F000C
3F0004
3E0004
7E0000
7E0000
7E0000
FE0000
FE0000
FE0000
FE0000
7E0000
7E0000
7E0000
3F0000
3F0004
1F800C
0FC018
07E070
01FFC0
ENDCHAR
STARTCHAR 0107
ENCODING 263
SWIDTH 432 0
DWIDTH 15 0
BBX 14 24 1 0
BITMAP
01F0
01E0
01C0
0380
0300
0200
0000
0000
0FE0
1CF0
3878
3878
7878
7830
7800
F800
F800
F800
7C00
7C00
7E04
3F18
1FF0
0FE0
ENDCHAR
STARTCHAR 0108
ENCODING 264
SWIDTH 720 0
DWIDTH 25 0
BBX 22 32 1 -1
BITMAP
003C00
003E00
007E00
007700
00E380
00C180
0180C0
000000
000004
00FFC4
03F07C
07C03C
0F800C
1F000C
3F0004
3E0004
7E0000
7E0000
7E0000
FE0000
FE0000
FE0000
FE0000
7E0000
7E0000
7E0000
3F0000
3F0004
1F800C
0FC018
07E070
01FFC0
ENDCHAR
STARTCHAR 0109
ENCODING 265
SWIDTH 432 0
DWIDTH 15 0
BBX 14 24 1 0
BITMAP
0780
0FC0
0FC0
1CE0
3860
3030
0000
0000
0FE0
1CF0
3878
3878
7878
7830
7800
F800
F800
F800
7C00
7C00
7E04
3F18
1FF0
0FE0
ENDCHAR
STARTCHAR 010A
ENCODING 266
SWIDTH 720 0
DWIDTH 25 0
BBX 22 30 1 -1
BITMAP
003C00
003E00
003E00
003C00
001800
000000
000004
00FFC4
03F07C
07C03C
0F800C
1F000C
3F0004
3E0004
7E0000
7E0000
7E0000
FE0000
FE0000
FE0000
FE0000
7E0000
7E0000
7E0000
3F0000
3F0004
1F800C
0FC018
07E070
01FFC0
ENDCHAR
STARTCHAR 010B
ENCODING 267
SWIDTH 432 0
DWIDTH 15 0
BBX 14 23 1 0
BITMAP
0780
07C0
07C0
0780
0300
0000
0000
0FE0
1CF0
3878
3878
7878
7830
7800
F800
F800
F800
7C00
7C00
7E04
3F18
1FF0
0FE0
ENDCHAR
STARTCHAR 010C
ENCODING 268
SWIDTH 720 0
DWIDTH 25 0
BBX 22 31 1 -1
BITMAP
008040
00C1C0
007380
007F00
003F00
003E00
001E00
000004
00FFC4
03F07C
07C03C
0F800C
1F000C
3F0004
3E0004
7E0000
7E0000
7E0000
FE0000
FE0000
FE0000
FE0000
7E0000
7E0000
7E0000
3F0000
3F0004
1F800C
0FC018
07E070
01FFC0
ENDCHAR
STARTCHAR 010D
ENCODING 269
SWIDTH 432 0
DWIDTH 15 0
BBX 14 24 1 0
BITMAP
1018
1C30
0E70
0FE0
07E0
07C0
0000
0000
0FE0
1CF0
3878
3878
7878
7830
7800
F800
F800
F800
7C00
7C00
7E04
3F18
1FF0
0FE0
ENDCHAR
STARTCHAR 010E
ENCODING 270
SWIDTH 720 0
DWIDTH 25 0
BBX 24 31 0 0
BITMAP
010080
01C380
00E700
00FF00
007E00
007C00
003C00
000000
FFFE00
1F8FC0
0F83F0
0F81F8
0F80FC
0F80FC
0F807E
0F807E
0F807E
0F807E
0F807F
0F807F
0F807F
0F807E
0F807E
0F807E
0F807E
0F807C
0F80FC
0F80F8
0F81F0
1FCFC0
FFFE00
ENDCHAR
STARTCHAR 010F
ENCODING 271
SWIDTH 720 0
DWIDTH 25 0
BBX 24 23 1 1
BITMAP
007F3E
001F3F
001F3F
001F3F
001F1F
001F03
001F03
0FDF06
1E7F04
3C3F18
7C1F20
7C1F00
781F00
781F00
F81F00
F81F00
F81F00
7C1F00
7C1F00
7C1F00
3E3F00
3FDF80
1F9F00
ENDCHAR
STARTCHAR 0110
ENCODING 272
SWIDTH 720 0
DWIDTH 25 0
BBX 23 23 1 0
BITMAP
FFFE00
3F1F80
1F03E0
1F03F0
1F01F8
1F00F8
1F00FC
1F00FC
1F00FC
1F007E
FFF87E
FFF87E
1F007E
1F007E
1F007C
1F00FC
1F00FC
1F00F8
1F01F8
1F01F0
1F03E0
1F8F80
FFFC00
ENDCHAR
STARTCHAR 0111
ENCODING 273
SWIDTH 547 0
DWIDTH 19 0
BBX 18 23 1 0
BITMAP
007F00
001F00
001F00
07FFC0
001F00
001F00
001F00
0FDF00
1EFF00
3C3F00
7C1F00
7C1F00
781F00
F81F00
F81F00
F81F00
F81F00
781F00
7C1F00
7C1F00
3C3F00
3FDF80
1F9F00
ENDCHAR
STARTCHAR 0112
ENCODING 274
SWIDTH 662 0
DWIDTH 23 0
BBX 20 28 1 0
BITMAP
07FF00
07FF00
000000
000000
000000
FFFFE0
1F07E0
1F00E0
1F0060
1F0020
1F0420
1F0420
1F0400
1F0400
1F0C00
1F3C00
1FFC00
1F1C00
1F0C00
1F0400
1F0400
1F0410
1F0010
1F0010
1F8030
1F8070
1F83F0
FFFFF0
ENDCHAR
STARTCHAR 0113
ENCODING 275
SWIDTH 432 0
DWIDTH 15 0
BBX 14 21 1 0
BITMAP
7FF0
7FF0
7FF0
0000
0000
0FC0
1C70
3870
7878
7878
7878
FFFC
FFFC
F800
F800
7C00
7C00
7E08
3F18
3FF0
0FE0
ENDCHAR
STARTCHAR 0114
ENCODING 276
SWIDTH 662 0
DWIDTH 23 0
BBX 20 31 1 0
BITMAP
060100
020300
03FE00
03FE00
01FC00
007000
000000
000000
FFFFE0
1F07E0
1F00E0
1F0060
1F0020
1F0420
1F0420
1F0400
1F0400
1F0C00
1F3C00
1FFC00
1F1C00
1F0C00
1F0400
1F0400
1F0410
1F0010
1F0010
1F8030
1F8070
1F83F0
FFFFF0
ENDCHAR
STARTCHAR 0115
ENCODING 277
SWIDTH 432 0
DWIDTH 15 0
BBX 14 24 1 0
BITMAP
2010
3030
3870
1FE0
0FC0
0780
0000
0000
0FC0
1C70
3870
7878
7878
7878
FFFC
FFFC
F800
F800
7C00
7C00
7E08
3F18
3FF0
0FE0
ENDCHAR
STARTCHAR 0116
ENCODING 278
SWIDTH 662 0
DWIDTH 23 0
BBX 20 30 1 0
BITMAP
007000
00F800
00F800
00F800
007000
000000
000000
FFFFE0
1F07E0
1F00E0
1F0060
1F0020
1F0420
1F0420
1F0400
1F0400
1F0C00
1F3C00
1FFC00
1F1C00
1F0C00
1F0400
1F0400
1F0410
1F0010
1F0010
1F8030
1F8070
1F83F0
FFFFF0
ENDCHAR
STARTCHAR 0117
ENCODING 279
SWIDTH 432 0
DWIDTH 15 0
BBX 14 23 1 0
BITMAP
0780
0780
07C0
0780
0300
0000
0000
0FC0
1C70
3870
7878
7878
7878
FFFC
FFFC
F800
F800
7C00
7C00
7E08
3F18
3FF0
0FE0
ENDCHAR
STARTCHAR 0118
ENCODING 280
SWIDTH 662 0
DWIDTH 23 0
BBX 20 31 1 -8
BITMAP
FFFFE0
1F07E0
1F00E0
1F0060
1F0020
1F0420
1F0420
1F0400
1F0400
1F0C00
1F3C00
1FFC00
1F1C00
1F0C00
1F0400
1F0400
1F0410
1F0010
1F0010
1F8030
1F8070
1F83F0
FFFFF0
000300
000600
000E00
000E00
000F00
000780
0007F0
0001E0
ENDCHAR
STARTCHAR 0119
ENCODING 281
SWIDTH 432 0
DWIDTH 15 0
BBX 14 24 1 -8
BITMAP
0FC0
1C70
3870
7878
7878
7878
FFFC
FFFC
F800
F800
7C00
7C00
7E08
3F18
3FF0
0FE0
0300
0600
0E00
0E00
0F00
0F80
07F0
01E0
ENDCHAR
STARTCHAR 011A
ENCODING 282
SWIDTH 662 0
DWIDTH 23 0
BBX 20 31 1 0
BITMAP
060200
070600
039C00
01FC00
01F800
00F800
00F000
000000
FFFFE0
1F07E0
1F00E0
1F0060
1F0020
1F0420
1F0420
1F0400
1F0400
1F0C00
1F3C00
1FFC00
1F1C00
1F0C00
1F0400
1F0400
1F0410
1F0010
1F0010
1F8030
1F8070
1F83F0
FFFFF0
ENDCHAR
STARTCHAR 011B
ENCODING 283
SWIDTH 432 0
DWIDTH 15 0
BBX 14 24 1 0
BITMAP
3010
1870
1CE0
0FE0
0FC0
07C0
0000
0000
0FC0
1C70
3870
7878
7878
7878
FFFC
FFFC
F800
F800
7C00
7C00
7E08
3F18
3FF0
0FE0
ENDCHAR
STARTCHAR 011C
ENCODING 284
SWIDTH 777 0
DWIDTH 27 0
BBX 26 32 1 -1
BITMAP
001F0000
003F0000
003F8000
00738000
0061C000
00C04000
00000000
00000200
00FFE200
03E07E00
07801E00
0F800E00
1F000600
3F000600
3E000200
7E000200
7E000000
7E000000
FE000000
FE000000
FE000000
7E03FFC0
7E007F00
7E007E00
7E007E00
3E007E00
3F007E00
1F007E00
0F807E00
03E07E00
00FFF000
00040000
ENDCHAR
STARTCHAR 011D
ENCODING 285
SWIDTH 489 0
DWIDTH 17 0
BBX 16 31 1 -7
BITMAP
07C0
07E0
0FE0
0E70
1C30
1018
0000
0000
0FFF
3C7F
7878
783C
F83C
F83C
F83C
783C
7878
3C70
0FE0
1800
3000
7000
7FF8
7FFE
7FFE
3FFF
383F
6007
E006
700C
3FF8
ENDCHAR
STARTCHAR 011E
ENCODING 286
SWIDTH 777 0
DWIDTH 27 0
BBX 26 31 1 -1
BITMAP
00C04000
00E1C000
007F8000
003F8000
001E0000
00000000
00000200
00FFE200
03E07E00
07801E00
0F800E00
1F000600
3F000600
3E000200
7E000200
7E000000
7E000000
FE000000
FE000000
FE000000
7E03FFC0
7E007F00
7E007E00
7E007E00
3E007E00
3F007E00
1F007E00
0F807E00
03E07E00
00FFF000
00040000
ENDCHAR
STARTCHAR 011F
ENCODING 287
SWIDTH 489 0
DWIDTH 17 0
BBX 16 31 1 -7
BITMAP
1008
1818
1C38
0FF0
07E0
03C0
0000
0000
0FFF
3C7F
7878
783C
F83C
F83C
F83C
783C
7878
3C70
0FE0
1800
3000
7000
7FF8
7FFE
7FFE
3FFF
383F
6007
E006
700C
3FF8
ENDCHAR
STARTCHAR 0120
ENCODING 288
SWIDTH 777 0
DWIDTH 27 0
BBX 26 31 1 -1
BITMAP
001C0000
003E0000
003E0000
003E0000
000C0000
00000000
00000200
00FFE200
03E07E00
07801E00
0F800E00
1F000600
3F000600
3E000200
7E000200
7E000000
7E000000
FE000000
FE000000
FE000000
7E03FFC0
7E007F00
7E007E00
7E007E00
3E007E00
3F007E00
1F007E00
0F807E00
03E07E00
00FFF000
00040000
ENDCHAR
STARTCHAR 0121
ENCODING 289
SWIDTH 489 0
DWIDTH 17 0
BBX 16 30 1 -7
BITMAP
0380
07C0
07C0
07C0
0380
0000
0000
0FFF
3C7F
7878
783C
F83C
F83C
F83C
783C
7878
3C70
0FE0
1800
3000
7000
7FF8
7FFE
7FFE
3FFF
383F
6007
E006
700C
3FF8
ENDCHAR
STARTCHAR 0122
ENCODING 290
SWIDTH 777 0
DWIDTH 27 0
BBX 26 31 1 -7
BITMAP
00000200
00FFE200
03E07E00
07801E00
0F800E00
1F000600
3F000600
3E000200
7E000200
7E000000
7E000000
FE000000
FE000000
FE000000
7E03FFC0
7E007F00
7E007E00
7E007E00
3E007E00
3F007E00
1F007E00
0F807E00
03E07E00
00FFF000
000C0000
000C0000
001E0000
000E0000
000E0000
001C0000
00600000
ENDCHAR
STARTCHAR 0123
ENCODING 291
SWIDTH 489 0
DWIDTH 17 0
BBX 16 32 1 -7
BITMAP
0080
0300
0200
0600
07C0
07C0
0380
0000
0000
0FFF
3C7F
7878
783C
F83C
F83C
F83C
783C
7878
3C70
0FE0
1800
3000
7000
7FF8
7FFE
7FFE
3FFF
387F
6007
E006
700C
3FF8
ENDCHAR
STARTCHAR 0124
ENCODING 292
SWIDTH 777 0
DWIDTH 27 0
BBX 25 32 1 0
BITMAP
001E0000
003E0000
007F0000
00770000
00E38000
00C18000
0180C000
00000000
00000000
FFF7FF80
1F80FE00
1F807C00
1F807C00
1F007C00
1F007C00
1F007C00
1F007C00
1F007C00
1F007C00
1FFFFC00
1FFFFC00
1F007C00
1F007C00
1F007C00
1F007C00
1F007C00
1F007C00
1F007C00
1F807C00
1F807C00
1F80FC00
FFF7FF80
ENDCHAR
STARTCHAR 0125
ENCODING 293
SWIDTH 547 0
DWIDTH 19 0
BBX 17 32 1 0
BITMAP
01E000
03E000
03F000
07F000
0E3800
0C1800
180C00
000000
000000
FE0000
3E0000
3E0000
3E0000
3E0000
3E0000
3E0000
3E7C00
3FFE00
3F3E00
3E1E00
3E1F00
3E1F00
3E1F00
3E1F00
3E1F00
3E1F00
3E1F00
3E1F00
3E1F00
3E1F00
3E1F00
FF7F80
ENDCHAR
STARTCHAR 0126
ENCODING 294
SWIDTH 777 0
DWIDTH 27 0
BBX 25 23 1 0
BITMAP
FFF7FF80
1F80FE00
1F807C00
FFFFFF80
1F007C00
1F007C00
1F007C00
1F007C00
1F007C00
1F007C00
1FFFFC00
1FFFFC00
1F007C00
1F007C00
1F007C00
1F007C00
1F007C00
1F007C00
1F007C00
1F807C00
1F807C00
1F80FC00
FFF7FF80
ENDCHAR
STARTCHAR 0127
ENCODING 295
SWIDTH 547 0
DWIDTH 19 0
BBX 17 23 1 0
BITMAP
FE0000
3E0000
3E0000
FFE000
3E0000
3E0000
3E0000
3E7C00
3FFE00
3F3E00
3E1E00
3E1F00
3E1F00
3E1F00
3E1F00
3E1F00
3E1F00
3E1F00
3E1F00
3E1F00
3E1F00
3E1F00
FF7F80
ENDCHAR
STARTCHAR 0128
ENCODING 296
SWIDTH 403 0
DWIDTH 14 0
BBX 12 30 1 0
BITMAP
3C20
7FE0
7FE0
CFC0
8380
0000
0000
FFF0
1F80
1F80
1F00
1F00
1F00
1F00
1F00
1F00
1F00
1F00
1F00
1F00
1F00
1F00
1F00
1F00
1F00
1F00
1F00
1F80
1F80
FFF0
ENDCHAR
STARTCHAR 0129
ENCODING 297
SWIDTH 288 0
DWIDTH 10 0
BBX 11 23 -1 0
BITMAP
3C20
7FE0
7FE0
CFC0
8100
0000
0000
3F00
1F00
0F00
0F00
0F00
0F00
0F00
0F00
0F00
0F00
0F00
0F00
0F00
0F00
1F80
3FC0
ENDCHAR
STARTCHAR 012A
ENCODING 298
SWIDTH 403 0
DWIDTH 14 0
BBX 12 28 1 0
BITMAP
FFE0
FFE0
0000
0000
0000
FFF0
1F80
1F80
1F00
1F00
1F00
1F00
1F00
1F00
1F00
1F00
1F00
1F00
1F00
1F00
1F00
1F00
1F00
1F00
1F00
1F80
1F80
FFF0
ENDCHAR
STARTCHAR 012B
ENCODING 299
SWIDTH 288 0
DWIDTH 10 0
BBX 11 21 -1 0
BITMAP
FFE0
FFE0
FFE0
0000
0000
3F00
1F00
0F00
0F00
0F00
0F00
0F00
0F00
0F00
0F00
0F00
0F00
0F00
0F00
1F80
3FC0
ENDCHAR
STARTCHAR 012C
ENCODING 300
SWIDTH 403 0
DWIDTH 14 0
BBX 12 31 1 0
BITMAP
4020
6060
7FC0
3FC0
1F80
0600
0000
0000
FFF0
1F80
1F80
1F00
1F00
1F00
1F00
1F00
1F00
1F00
1F00
1F00
1F00
1F00
1F00
1F00
1F00
1F00
1F00
1F00
1F80
1F80
FFF0
ENDCHAR
STARTCHAR 012D
ENCODING 301
SWIDTH 288 0
DWIDTH 10 0
BBX 10 24 0 0
BITMAP
8040
80C0
E3C0
7F80
7F00
1E00
0000
0000
7E00
3E00
1E00
1E00
1E00
1E00
1E00
1E00
1E00
1E00
1E00
1E00
1E00
1E00
3F00
7F80
ENDCHAR
STARTCHAR 012E
ENCODING 302
SWIDTH 403 0
DWIDTH 14 0
BBX 12 31 1 -8
BITMAP
FFF0
1F80
1F80
1F80
1F80
1F80
1F80
1F80
1F80
1F80
1F80
1F80
1F80
1F80
1F80
1F80
1F80
1F80
1F80
1F80
1F80
1F80
FFF0
0C00
1800
3800
3800
3C00
1E00
1FC0
0780
ENDCHAR
STARTCHAR 012F
ENCODING 303
SWIDTH 288 0
DWIDTH 10 0
BBX 8 31 1 -7
BITMAP
3C
7C
7E
3C
18
00
00
FC
7C
3C
3C
3C
3C
3C
3C
3C
3C
3C
3C
3C
3C
7E
FF
30
60
E0
F0
F0
78
3F
1E
ENDCHAR
STARTCHAR 0130
ENCODING 304
SWIDTH 403 0
DWIDTH 14 0
BBX 12 30 1 0
BITMAP
0600
0F00
1F00
1F00
0E00
0000
0000
FFF0
1F80
1F80
1F00
1F00
1F00
1F00
1F00
1F00
1F00
1F00
1F00
1F00
1F00
1F00
1F00
1F00
1F00
1F00
1F00
1F80
1F80
FFF0
ENDCHAR
STARTCHAR 0131
ENCODING 305
SWIDTH 288 0
DWIDTH 10 0
BBX 8 16 1 0
BITMAP
FC
7C
3C
3C
3C
3C
3C
3C
3C
3C
3C
3C
3C
3C
7E
FF
ENDCHAR
STARTCHAR 0132
ENCODING 306
SWIDTH 835 0
DWIDTH 29 0
BBX 27 23 1 -1
BITMAP
FFF1FFE0
1F803F80
1F801F00
1F001F00
1F001F00
1F001F00
1F001F00
1F001F00
1F001F00
1F001F00
1F001F00
1F001F00
1F001F00
1F001F00
1F001F00
1F001F00
1F0E1F00
1F1E1F00
1F1F1F00
1F1E1F00
1F9E3E00
1F8E3C00
FFF7F800
ENDCHAR
STARTCHAR 0133
ENCODING 307
SWIDTH 547 0
DWIDTH 19 0
BBX 16 30 1 -6
BITMAP
3C1E
7E1F
7E1F
3C1E
180C
0000
0000
FC7E
7C3E
3C1E
3C1E
3C1E
3C1E
3C1E
3C1E
3C1E
3C1E
3C1E
3C1E
3C1E
3C1E
7E1E
FF1E
001E
001E
001E
039E
039E
039C
01FC
ENDCHAR
STARTCHAR 0134
ENCODING 308
SWIDTH 489 0
DWIDTH 17 0
BBX 17 32 0 -1
BITMAP
007800
007C00
00FC00
01FE00
01C600
038300
020100
000000
000000
07FF80
00FC00
00FC00
00FC00
00FC00
00FC00
00FC00
00FC00
00FC00
00FC00
00FC00
00FC00
00FC00
00FC00
00FC00
00FC00
70FC00
78FC00
F8FC00
F8F800
70F800
30F000
1FE000
ENDCHAR
STARTCHAR 0135
ENCODING 309
SWIDTH 345 0
DWIDTH 12 0
BBX 12 31 -1 -7
BITMAP
0F80
0FC0
1FC0
1CE0
3860
3030
0000
0000
1F80
0F80
0780
0780
0780
0780
0780
0780
0780
0780
0780
0780
0780
0780
0780
0780
0780
0780
0780
E780
E780
E700
7E00
ENDCHAR
STARTCHAR 0136
ENCODING 310
SWIDTH 777 0
DWIDTH 27 0
BBX 26 30 1 -7
BITMAP
FFE0FF80
1F801E00
1F801800
1F803000
1F806000
1F81C000
1F830000
1F860000
1F8C0000
1F9C0000
1FFE0000
1FFF0000
1FBF0000
1FBF8000
1F9FC000
1F8FE000
1F87F000
1F83F000
1F83F800
1F81FC00
1F80FE00
1F80FF00
FFE3FFC0
00000000
001C0000
001E0000
000E0000
000E0000
003C0000
00600000
ENDCHAR
STARTCHAR 0137
ENCODING 311
SWIDTH 547 0
DWIDTH 19 0
BBX 19 30 1 -7
BITMAP
FE0000
3E0000
3E0000
3E0000
3E0000
3E0000
3E0000
3E3F80
3E0E00
3E0C00
3E1800
3E3000
3E6000
3EE000
3FF000
3FF800
3EF800
3E7C00
3E3E00
3E3F00
3E1F00
3E1F80
FF3FE0
000000
01C000
01E000
00E000
00E000
03C000
060000
ENDCHAR
STARTCHAR 0138
ENCODING 312
SWIDTH 547 0
DWIDTH 19 0
BBX 19 16 1 0
BITMAP
FF3F80
3E0E00
3E0C00
3E1800
3E3000
3E6000
3EE000
3FF000
3FF800
3EFC00
3E7C00
3E3E00
3E3F00
3E1F00
3E1F80
FF3FE0
ENDCHAR
STARTCHAR 0139
ENCODING 313
SWIDTH 662 0
DWIDTH 23 0
BBX 21 31 1 0
BITMAP
01F000
03E000
03C000
038000
070000
060000
000000
000000
FFF000
3F8000
1F0000
1F0000
1F0000
1F0000
1F0000
1F0000
1F0000
1F0000
1F0000
1F0000
1F0000
1F0000
1F0000
1F0008
1F0008
1F0018
1F0018
1F0030
1F8070
1F81F0
FFFFF0
ENDCHAR
STARTCHAR 013A
ENCODING 314
SWIDTH 288 0
DWIDTH 10 0
BBX 8 31 1 0
BITMAP
1F
1E
1C
3C
38
30
00
00
FC
7C
3C
3C
3C
3C
3C
3C
3C
3C
3C
3C
3C
3C
3C
3C
3C
3C
3C
3C
3C
7E
FF
ENDCHAR
STARTCHAR 013B
ENCODING 315
SWIDTH 662 0
DWIDTH 23 0
BBX 21 30 1 -7
BITMAP
FFF000
3F8000
1F0000
1F0000
1F0000
1F0000
1F0000
1F0000
1F0000
1F0000
1F0000
1F0000
1F0000
1F0000
1F0000
1F0008
1F0008
1F0018
1F0018
1F0030
1F8070
1F81F0
FFFFF0
000000
007000
007800
003800
003800
00F000
018000
ENDCHAR
STARTCHAR 013C
ENCODING 316
SWIDTH 288 0
DWIDTH 10 0
BBX 8 30 1 -7
BITMAP
FC
7C
3C
3C
3C
3C
3C
3C
3C
3C
3C
3C
3C
3C
3C
3C
3C
3C
3C
3C
3C
7E
FF
00
38
3C
1C
1C
38
C0
ENDCHAR
STARTCHAR 013D
ENCODING 317
SWIDTH 662 0
DWIDTH 23 0
BBX 21 23 1 1
BITMAP
FFF1E0
3F83F0
1F03F0
1F03F8
1F01F8
1F0030
1F0030
1F0020
1F0060
1F0080
1F0100
1F0000
1F0000
1F0000
1F0000
1F0008
1F0008
1F0018
1F0018
1F0030
1F8070
1F81F0
FFFFF0
ENDCHAR
STARTCHAR 013E
ENCODING 318
SWIDTH 460 0
DWIDTH 16 0
BBX 15 23 1 1
BITMAP
FC7C
7C7C
3CFE
3C7E
3C3E
3C06
3C04
3C0C
3C18
3C30
3C40
3C00
3C00
3C00
3C00
3C00
3C00
3C00
3C00
3C00
3C00
7E00
FF00
ENDCHAR
STARTCHAR 013F
ENCODING 319
SWIDTH 662 0
DWIDTH 23 0
BBX 21 23 1 0
BITMAP
FFF000
3F8000
1F0000
1F0000
1F0000
1F0000
1F0000
1F0000
1F0000
1F0000
1F0780
1F0F80
1F0780
1F0700
1F0000
1F0008
1F0008
1F0018
1F0018
1F0030
1F8070
1F81F0
FFFFF0
ENDCHAR
STARTCHAR 0140
ENCODING 320
SWIDTH 403 0
DWIDTH 14 0
BBX 13 23 1 0
BITMAP
FC00
7C00
3C00
3C00
3C00
3C00
3C00
3C00
3C00
3C30
3C78
3C78
3C78
3C30
3C00
3C00
3C00
3C00
3C00
3C00
3C00
7E00
FF00
ENDCHAR
STARTCHAR 0141
ENCODING 321
SWIDTH 662 0
DWIDTH 23 0
BBX 21 23 1 0
BITMAP
FFF000
3F8000
1F0000
1F0000
1F0000
1F0000
1F1000
1F3000
1F6000
1F8000
1F0000
1F0000
1F0000
3F0000
7F0000
DF0008
9F0008
1F0018
1F0010
1F0030
1F8070
1F81F0
FFFFF0
ENDCHAR
STARTCHAR 0142
ENCODING 322
SWIDTH 288 0
DWIDTH 10 0
BBX 8 23 1 0
BITMAP
FC
7C
3C
3C
3C
3C
3C
3C
3D
3E
3C
3C
3C
FC
BC
3C
3C
3C
3C
3C
3C
7E
FF
ENDCHAR
STARTCHAR 0143
ENCODING 323
SWIDTH 720 0
DWIDTH 25 0
BBX 24 31 0 -1
BITMAP
000F80
000F00
000E00
001C00
001800
001000
000000
000000
FF807F
1FC01C
0FE008
0FE008
0FF008
0BF808
09FC08
08FE08
08FE08
087F08
083F88
081FC8
080FE8
080FE8
0807F8
0803F8
0801F8
0800F8
080078
080078
080038
1C0018
FF8008
ENDCHAR
STARTCHAR 0144
ENCODING 324
SWIDTH 547 0
DWIDTH 19 0
BBX 17 24 1 0
BITMAP
00F800
00F000
00E000
01C000
018000
010000
000000
000000
FE7C00
3FFE00
3F3E00
3E1E00
3E1F00
3E1F00
3E1F00
3E1F00
3E1F00
3E1F00
3E1F00
3E1F00
3E1F00
3E1F00
3E1F00
FF7F80
ENDCHAR
STARTCHAR 0145
ENCODING 325
SWIDTH 720 0
DWIDTH 25 0
BBX 24 30 0 -7
BITMAP
FF807F
1FC01C
0FE008
0FE008
0FF008
0BF808
09FC08
08FE08
08FE08
087F08
083F88
081FC8
080FE8
080FE8
0807F8
0803F8
0801F8
0800F8
080078
080078
080038
1C0018
FF8008
000000
001C00
001E00
000E00
000E00
003C00
006000
ENDCHAR
STARTCHAR 0146
ENCODING 326
SWIDTH 547 0
DWIDTH 19 0
BBX 17 23 1 -7
BITMAP
FE7C00
3FFE00
3F3E00
3E1E00
3E1F00
3E1F00
3E1F00
3E1F00
3E1F00
3E1F00
3E1F00
3E1F00
3E1F00
3E1F00
3E1F00
FF7F80
000000
01C000
01E000
00E000
00E000
03C000
060000
ENDCHAR
STARTCHAR 0147
ENCODING 327
SWIDTH 720 0
DWIDTH 25 0
BBX 24 31 0 -1
BITMAP
0080C0
00C180
006380
007F00
003F00
003E00
001E00
000000
FF807F
1FC01C
0FE008
0FE008
0FF008
0BF808
09FC08
08FE08
08FE08
087F08
083F88
081FC8
080FE8
080FE8
0807F8
0803F8
0801F8
0800F8
080078
080078
080038
1C0018
FF8008
ENDCHAR
STARTCHAR 0148
ENCODING 328
SWIDTH 547 0
DWIDTH 19 0
BBX 17 24 1 0
BITMAP
080C00
0E1800
073800
07F000
03F000
03E000
000000
000000
FE7C00
3FFE00
3F3E00
3E1E00
3E1F00
3E1F00
3E1F00
3E1F00
3E1F00
3E1F00
3E1F00
3E1F00
3E1F00
3E1F00
3E1F00
FF7F80
ENDCHAR
STARTCHAR 0149
ENCODING 329
SWIDTH 720 0
DWIDTH 25 0
BBX 24 23 3 1
BITMAP
F80000
FC0000
FC0000
FC0000
7C0000
0C0000
080000
19FCF8
107DFC
607E3C
807C3E
007C3E
007C3E
007C3E
007C3E
007C3E
007C3E
007C3E
007C3E
007C3E
007C3E
007C3E
01FEFF
ENDCHAR
STARTCHAR 014A
ENCODING 330
SWIDTH 777 0
DWIDTH 27 0
BBX 24 23 1 0
BITMAP
FF8FE0
1F98F0
1FA078
1FC03C
1FC03C
1F803E
1F803E
1F803E
1F803F
1F803F
1F803F
1F803F
1F803F
1F803F
1F803F
1F803F
1F803E
1F803E
1F873E
1F8F3C
1F8F38
1F8F30
FFF7E0
ENDCHAR
STARTCHAR 014B
ENCODING 331
SWIDTH 547 0
DWIDTH 19 0
BBX 16 23 1 -7
BITMAP
FE7C
3FFE
3F3E
3E1F
3E1F
3E1F
3E1F
3E1F
3E1F
3E1F
3E1F
3E1F
3E1F
3E1F
3E1F
FF1F
001F
001F
001F
039E
039E
039E
01FC
ENDCHAR
STARTCHAR 014C
ENCODING 332
SWIDTH 777 0
DWIDTH 27 0
BBX 25 29 1 -1
BITMAP
01FFC000
01FFC000
00000000
00000000
00000000
01FFC000
03C1F000
0F80F800
1F007C00
1F003E00
3E003E00
7E003F00
7E003F00
7E001F00
7E001F80
FE001F80
FC001F80
FE001F80
7E001F80
7E001F00
7E003F00
7E003F00
3E003E00
3F003E00
1F007C00
0F807800
07C1F000
01FFC000
00080000
ENDCHAR
STARTCHAR 014D
ENCODING 333
SWIDTH 489 0
DWIDTH 17 0
BBX 15 21 1 0
BITMAP
3FF8
3FF8
3FF8
0000
0000
0FE0
1C78
3C38
7C3C
783E
783E
F83E
F83E
F83E
F83E
783E
783E
783C
3C3C
1C78
0FE0
ENDCHAR
STARTCHAR 014E
ENCODING 334
SWIDTH 777 0
DWIDTH 27 0
BBX 25 32 1 -1
BITMAP
0180C000
00808000
00FF8000
00FF8000
007F0000
001C0000
00000000
00000000
01FFC000
03C1F000
0F80F800
1F007C00
1F003E00
3E003E00
7E003F00
7E003F00
7E001F00
7E001F80
FE001F80
FC001F80
FE001F80
7E001F80
7E001F00
7E003F00
7E003F00
3E003E00
3F003E00
1F007C00
0F807800
07C1F000
01FFC000
00080000
ENDCHAR
STARTCHAR 014F
ENCODING 335
SWIDTH 489 0
DWIDTH 17 0
BBX 15 24 1 0
BITMAP
1008
1018
1C70
1FF0
0FE0
03C0
0000
0000
0FE0
1C78
3C38
7C3C
783E
783E
F83E
F83E
F83E
F83E
783E
783E
783C
3C3C
1C78
0FE0
ENDCHAR
STARTCHAR 0150
ENCODING 336
SWIDTH 777 0
DWIDTH 27 0
BBX 25 32 1 -1
BITMAP
001CE000
0038E000
0039C000
00318000
00618000
00430000
00000000
00000000
01FFC000
03C1F000
0F80F800
1F007C00
1F003E00
3E003E00
7E003F00
7E003F00
7E001F00
7E001F80
FE001F80
FC001F80
FE001F80
7E001F80
7E001F00
7E003F00
7E003F00
3E003E00
3F003E00
1F007C00
0F807800
07C1F000
01FFC000
00080000
ENDCHAR
STARTCHAR 0151
ENCODING 337
SWIDTH 489 0
DWIDTH 17 0
BBX 15 24 1 0
BITMAP
039E
071C
0738
0630
0C30
0C60
0000
0000
0FE0
1C78
3C38
7C3C
783E
783E
F83E
F83E
F83E
F83E
783E
783E
783C
3C3C
1C78
0FE0
ENDCHAR
STARTCHAR 0152
ENCODING 338
SWIDTH 1008 0
DWIDTH 35 0
BBX 32 23 1 0
BITMAP
01FFFFFC
07C3F87C
0F81F81C
1F01F80C
3F01F804
3E01F844
7E01F840
7E01F840
7E01F8C0
FC01F8C0
FC01FBC0
FC01FFC0
FC01F9C0
FC01F8C0
7C01F8C0
7E01F840
7E01F841
3E01F801
3E01F803
1F01F803
0F81F80E
07C3FC3E
01FFFFFE
ENDCHAR
STARTCHAR 0153
ENCODING 339
SWIDTH 720 0
DWIDTH 25 0
BBX 23 16 1 0
BITMAP
0FE3F0
1C7738
3C3E1C
783E1C
783E1E
783E1E
F83FFE
F83FFE
F83E00
F83E00
F83E00
783F02
783F02
3C3F84
1C77F8
0FE3F0
ENDCHAR
STARTCHAR 0154
ENCODING 340
SWIDTH 720 0
DWIDTH 25 0
BBX 24 31 1 0
BITMAP
001F00
001E00
001C00
003800
003000
002000
000000
000000
FFFF00
3F0FC0
1F03E0
1F01F0
1F01F8
1F01F8
1F01F8
1F01F8
1F01F0
1F03F0
1F03E0
1FFFC0
1FFF00
1F3F80
1F1F80
1F0FC0
1F07E0
1F07F0
1F03F0
1F01F8
1F01FC
3F80FE
FFE07F
ENDCHAR
STARTCHAR 0155
ENCODING 341
SWIDTH 432 0
DWIDTH 15 0
BBX 14 24 1 0
BITMAP
01F0
03E0
03C0
0380
0700
0600
0000
0000
FE7C
3EFC
3EFC
3F38
3E00
3E00
3E00
3E00
3E00
3E00
3E00
3E00
3E00
3E00
3E00
FF80
ENDCHAR
STARTCHAR 0156
ENCODING 342
SWIDTH 720 0
DWIDTH 25 0
BBX 24 30 1 -7
BITMAP
FFFF00
3F0FC0
1F03E0
1F01F0
1F01F8
1F01F8
1F01F8
1F01F8
1F01F0
1F03F0
1F03E0
1FFFC0
1FFF00
1F3F80
1F1F80
1F0FC0
1F07E0
1F07F0
1F03F0
1F01F8
1F01FC
3F80FE
FFE07F
000000
003800
003C00
001C00
001C00
003800
004000
ENDCHAR
STARTCHAR 0157
ENCODING 343
SWIDTH 432 0
DWIDTH 15 0
BBX 14 23 1 -7
BITMAP
FE7C
3EFC
3EFC
3F38
3E00
3E00
3E00
3E00
3E00
3E00
3E00
3E00
3E00
3E00
3E00
FF80
0000
0700
0780
0380
0380
0F00
1800
ENDCHAR
STARTCHAR 0158
ENCODING 344
SWIDTH 720 0
DWIDTH 25 0
BBX 24 31 1 0
BITMAP
030180
018300
01C700
00EE00
00FE00
007C00
003800
000000
FFFF00
3F0FC0
1F03E0
1F01F0
1F01F8
1F01F8
1F01F8
1F01F8
1F01F0
1F03F0
1F03E0
1FFFC0
1FFF00
1F3F80
1F1F80
1F0FC0
1F07E0
1F07F0
1F03F0
1F01F8
1F01FC
3F80FE
FFE07F
ENDCHAR
STARTCHAR 0159
ENCODING 345
SWIDTH 432 0
DWIDTH 15 0
BBX 14 24 1 0
BITMAP
3030
1870
1CE0
0FC0
0FC0
0780
0000
0000
FE7C
3EFC
3EFC
3F38
3E00
3E00
3E00
3E00
3E00
3E00
3E00
3E00
3E00
3E00
3E00
FF80
ENDCHAR
STARTCHAR 015A
ENCODING 346
SWIDTH 547 0
DWIDTH 19 0
BBX 16 32 2 -1
BITMAP
01F0
01E0
01C0
0380
0300
0200
0000
0000
1FE4
383C
701C
F00C
F004
F004
F804
FE00
FF80
7FE0
3FF0
1FFC
0FFE
03FE
00FF
803F
801F
800F
C00F
C00E
E00E
F81C
9FF0
0100
ENDCHAR
STARTCHAR 015B
ENCODING 347
SWIDTH 403 0
DWIDTH 14 0
BBX 11 24 1 0
BITMAP
07C0
0780
0700
0E00
0C00
0C00
0000
0000
3F40
71C0
70C0
F040
F840
FE00
7F00
7FC0
3FC0
0FE0
07E0
43E0
41E0
60E0
71C0
7F80
ENDCHAR
STARTCHAR 015C
ENCODING 348
SWIDTH 547 0
DWIDTH 19 0
BBX 16 33 2 -1
BITMAP
03C0
07C0
07E0
0FE0
1C70
1830
3018
0000
0000
1FE4
383C
701C
F00C
F004
F004
F804
FE00
FF80
7FE0
3FF0
1FFC
0FFE
03FE
00FF
803F
801F
800F
C00F
C00E
E00E
F81C
9FF0
0100
ENDCHAR
STARTCHAR 015D
ENCODING 349
SWIDTH 403 0
DWIDTH 14 0
BBX 11 24 1 0
BITMAP
0F00
1F80
3F80
39C0
70C0
6060
0000
0000
3F40
71C0
70C0
F040
F840
FE00
7F00
7FC0
3FC0
0FE0
07E0
43E0
41E0
60E0
71C0
7F80
ENDCHAR
STARTCHAR 015E
ENCODING 350
SWIDTH 547 0
DWIDTH 19 0
BBX 16 30 2 -6
BITMAP
1FE4
383C
701C
F00C
F004
F004
F804
FE00
FF80
7FE0
3FF0
1FFC
0FFE
03FE
00FF
803F
801F
800F
C00F
C00E
E00E
F81C
9FF0
0180
0180
03C0
01C0
01C0
0380
0C00
ENDCHAR
STARTCHAR 015F
ENCODING 351
SWIDTH 403 0
DWIDTH 14 0
BBX 11 23 1 -7
BITMAP
3F40
71C0
70C0
F040
F840
FE00
7F00
7FC0
3FC0
0FE0
07E0
43E0
41E0
60E0
71C0
7F80
0400
0E00
0F00
0700
0700
0E00
3000
ENDCHAR
STARTCHAR 0160
ENCODING 352
SWIDTH 547 0
DWIDTH 19 0
BBX 16 32 2 -1
BITMAP
3018
1830
1C70
0EE0
0FE0
07C0
0780
0000
1FE4
383C
701C
F00C
F004
F004
F804
FE00
FF80
7FE0
3FF0
1FFC
0FFE
03FE
00FF
803F
801F
800F
C00F
C00E
E00E
F81C
9FF0
0100
ENDCHAR
STARTCHAR 0161
ENCODING 353
SWIDTH 403 0
DWIDTH 14 0
BBX 11 24 1 0
BITMAP
4060
60C0
39C0
3F80
1F00
1F00
0000
0000
3F40
71C0
70C0
F040
F840
FE00
7F00
7FC0
3FC0
0FE0
07E0
43E0
41E0
60E0
71C0
7F80
ENDCHAR
STARTCHAR 0162
ENCODING 354
SWIDTH 662 0
DWIDTH 23 0
BBX 21 31 1 -8
BITMAP
FFFFF8
F8F8F8
E0F818
C0F818
80F808
80F808
00F800
00F800
00F800
00F800
00F800
00F800
00F800
00F800
00F800
00F800
00F800
00F800
00F800
00F800
00F800
01FC00
07FF80
000000
000000
00F000
00F800
007800
001000
001000
006000
ENDCHAR
STARTCHAR 0163
ENCODING 355
SWIDTH 345 0
DWIDTH 12 0
BBX 10 29 1 -7
BITMAP
0400
0400
0C00
1C00
3C00
7FC0
FFC0
3C00
3C00
3C00
3C00
3C00
3C00
3C00
3C00
3C00
3C00
3E00
3E40
3F80
1F00
0000
0000
1E00
1E00
1E00
0200
0200
0800
ENDCHAR
STARTCHAR 0164
ENCODING 356
SWIDTH 662 0
DWIDTH 23 0
BBX 21 31 1 0
BITMAP
060300
030600
038E00
01DC00
01FC00
00F800
007000
000000
FFFFF8
F8F8F8
E0F818
C0F818
80F808
80F808
00F800
00F800
00F800
00F800
00F800
00F800
00F800
00F800
00F800
00F800
00F800
00F800
00F800
00F800
00F800
01FC00
07FF80
ENDCHAR
STARTCHAR 0165
ENCODING 357
SWIDTH 518 0
DWIDTH 18 0
BBX 17 23 1 1
BITMAP
001F00
003F00
043F80
041F80
0C1F80
1C0100
3C0300
7FC300
FFC600
3C0C00
3C1000
3C0000
3C0000
3C0000
3C0000
3C0000
3C0000
3C0000
3C0000
3C0000
3E4000
3F8000
1F0000
ENDCHAR
STARTCHAR 0166
ENCODING 358
SWIDTH 662 0
DWIDTH 23 0
BBX 21 23 1 0
BITMAP
FFFFF8
F8F8F8
E0F818
C0F818
80F808
80F808
00F800
00F800
00F800
00F800
1FFFE0
1FFFE0
00F800
00F800
00F800
00F800
00F800
00F800
00F800
00F800
00F800
01FC00
07FF80
ENDCHAR
STARTCHAR 0167
ENCODING 359
SWIDTH 345 0
DWIDTH 12 0
BBX 10 21 1 1
BITMAP
0400
0400
0C00
1C00
3C00
7FC0
FFC0
3C00
3C00
3C00
3C00
FFC0
3C00
3C00
3C00
3C00
3C00
3E00
3E40
3F80
1F00
ENDCHAR
STARTCHAR 0168
ENCODING 360
SWIDTH 720 0
DWIDTH 25 0
BBX 23 31 1 -1
BITMAP
00F080
01FF80
01FF80
013F00
020E00
000000
000000
FFF0FE
3F8038
1F0010
1F0010
1F0010
1F0010
1F0010
1F0010
1F0010
1F0010
1F0010
1F0010
1F0010
1F0010
1F0010
1F0010
1F0010
1F0010
1F8030
1F8020
0FC060
07E1C0
03FF00
001000
ENDCHAR
STARTCHAR 0169
ENCODING 361
SWIDTH 547 0
DWIDTH 19 0
BBX 17 23 1 0
BITMAP
078400
0FFC00
1FFC00
19F800
102000
000000
000000
FE7E00
7E3E00
3E1E00
3E1E00
3E1E00
3E1E00
3E1E00
3E1E00
3E1E00
3E1E00
3E1E00
3E1E00
3E3E00
3E3F00
3FDF00
1F9F80
ENDCHAR
STARTCHAR 016A
ENCODING 362
SWIDTH 720 0
DWIDTH 25 0
BBX 23 29 1 -1
BITMAP
03FF80
03FF80
000000
000000
000000
FFF0FE
3F8038
1F0010
1F0010
1F0010
1F0010
1F0010
1F0010
1F0010
1F0010
1F0010
1F0010
1F0010
1F0010
1F0010
1F0010
1F0010
1F0010
1F8030
1F8020
0FC060
07E1C0
03FF00
001000
ENDCHAR
STARTCHAR 016B
ENCODING 363
SWIDTH 547 0
DWIDTH 19 0
BBX 17 21 1 0
BITMAP
1FFC00
1FFC00
1FFC00
000000
000000
FE7E00
7E3E00
3E1E00
3E1E00
3E1E00
3E1E00
3E1E00
3E1E00
3E1E00
3E1E00
3E1E00
3E1E00
3E3E00
3E3F00
3FDF00
1F9F80
ENDCHAR
STARTCHAR 016C
ENCODING 364
SWIDTH 720 0
DWIDTH 25 0
BBX 23 32 1 -1
BITMAP
030180
010180
01FF00
01FF00
00FE00
003800
000000
000000
FFF0FE
3F8038
1F0010
1F0010
1F0010
1F0010
1F0010
1F0010
1F0010
1F0010
1F0010
1F0010
1F0010
1F0010
1F0010
1F0010
1F0010
1F0010
1F8030
1F8020
0FC060
07E1C0
03FF00
001000
ENDCHAR
STARTCHAR 016D
ENCODING 365
SWIDTH 547 0
DWIDTH 19 0
BBX 17 24 1 0
BITMAP
080400
080C00
0E3800
0FF800
07F000
01E000
000000
000000
FE7E00
7E3E00
3E1E00
3E1E00
3E1E00
3E1E00
3E1E00
3E1E00
3E1E00
3E1E00
3E1E00
3E1E00
3E3E00
3E3F00
3FDF00
1F9F80
ENDCHAR
STARTCHAR 016E
ENCODING 366
SWIDTH 720 0
DWIDTH 25 0
BBX 23 32 1 -1
BITMAP
007C00
004200
00C200
00C200
004200
007C00
001000
000000
FFF0FE
3F8038
1F0010
1F0010
1F0010
1F0010
1F0010
1F0010
1F0010
1F0010
1F0010
1F0010
1F0010
1F0010
1F0010
1F0010
1F0010
1F0010
1F8030
1F8020
0FC060
07E1C0
03FF00
001000
ENDCHAR
STARTCHAR 016F
ENCODING 367
SWIDTH 547 0
DWIDTH 19 0
BBX 17 24 1 0
BITMAP
03E000
023000
061000
041000
063000
03E000
01C000
000000
FE7E00
7E3E00
3E1E00
3E1E00
3E1E00
3E1E00
3E1E00
3E1E00
3E1E00
3E1E00
3E1E00
3E1E00
3E3E00
3E3F00
3FDF00
1F9F80
ENDCHAR
STARTCHAR 0170
ENCODING 368
SWIDTH 720 0
DWIDTH 25 0
BBX 23 32 1 -1
BITMAP
0079C0
007380
006380
00E300
00C600
008600
000000
000000
FFF0FE
3F8038
1F0010
1F0010
1F0010
1F0010
1F0010
1F0010
1F0010
1F0010
1F0010
1F0010
1F0010
1F0010
1F0010
1F0010
1F0010
1F0010
1F8030
1F8020
0FC060
07E1C0
03FF00
001000
ENDCHAR
STARTCHAR 0171
ENCODING 369
SWIDTH 547 0
DWIDTH 19 0
BBX 17 24 1 0
BITMAP
01CE00
038E00
039C00
031800
061800
063000
000000
000000
FE7E00
7E3E00
3E1E00
3E1E00
3E1E00
3E1E00
3E1E00
3E1E00
3E1E00
3E1E00
3E1E00
3E1E00
3E3E00
3E3F00
3FDF00
1F9F80
ENDCHAR
STARTCHAR 0172
ENCODING 370
SWIDTH 720 0
DWIDTH 25 0
BBX 24 31 1 -8
BITMAP
FFF0FF
3F8038
1F0010
1F0010
1F0010
1F0010
1F0010
1F0010
1F0010
1F0010
1F0010
1F0010
1F0010
1F0010
1F0010
1F0010
1F0010
1F0010
1F8030
0F8020
0FC060
07E1C0
03FF00
001800
003800
003800
003800
003C00
003E00
001FC0
000700
ENDCHAR
STARTCHAR 0173
ENCODING 371
SWIDTH 547 0
DWIDTH 19 0
BBX 17 24 1 -8
BITMAP
FE7F00
3E1F00
3E1F00
3E1F00
3E1F00
3E1F00
3E1F00
3E1F00
3E1F00
3E1F00
3E1F00
3E1F00
3E1F00
3E3F00
1FDF00
1F9F80
001800
003000
007000
007000
007800
003C00
003F80
000F00
ENDCHAR
STARTCHAR 0174
ENCODING 372
SWIDTH 1008 0
DWIDTH 35 0
BBX 34 33 0 -1
BITMAP
0001E00000
0001F00000
0003F80000
0003B80000
00071C0000
00060C0000
000C060000
0000000000
0000000000
FFCFFF0FC0
3F01F80180
3F01F80100
1F80FC0100
1F80FC0200
0F807C0200
0FC07E0600
07C07E0400
07E07F0400
07E0FF0C00
03F09F0800
03F19F9800
01F11F9000
01F90F9000
01FA0FF000
00FE0FE000
00FE07E000
007C07E000
007C03C000
007803C000
0038038000
0038018000
0010018000
0010000000
ENDCHAR
STARTCHAR 0175
ENCODING 373
SWIDTH 720 0
DWIDTH 25 0
BBX 25 24 0 0
BITMAP
003E0000
003E0000
007F0000
00770000
00E18000
0180C000
00000000
00000000
FF3FCF80
7E1F0600
3E0F8200
1E0F8400
1F0F8400
1F17C400
0F97C800
0FB7C800
0FA3F800
07E3F000
07C1F000
03C1F000
03C1E000
0380E000
0180E000
0180C000
ENDCHAR
STARTCHAR 0176
ENCODING 374
SWIDTH 720 0
DWIDTH 25 0
BBX 25 32 0 0
BITMAP
001E0000
001F0000
003F0000
007F8000
00718000
00E0C000
00804000
00000000
00000000
FFE03F80
3F800E00
1F800C00
0FC00800
0FC01800
07E01000
07E02000
03F06000
03F84000
01F8C000
00FC8000
00FD0000
007F0000
007E0000
003E0000
003E0000
003E0000
003E0000
003E0000
003E0000
003E0000
007F0000
03FFE000
ENDCHAR
STARTCHAR 0177
ENCODING 375
SWIDTH 489 0
DWIDTH 17 0
BBX 17 31 0 -7
BITMAP
03E000
03F000
07F000
073800
0E1800
080C00
000000
000000
FF8F80
7E0700
3E0200
1F0600
1F0400
0F8400
0F8800
0F8800
07C800
07D000
03F000
03F000
01E000
01E000
01C000
00C000
00C000
008000
008000
790000
790000
7A0000
3E0000
ENDCHAR
STARTCHAR 0178
ENCODING 376
SWIDTH 720 0
DWIDTH 25 0
BBX 25 30 0 0
BITMAP
0061C000
00F3E000
00F3E000
00F3C000
00618000
00000000
00000000
FFE03F80
3F800E00
1F800C00
0FC00800
0FC01800
07E01000
07E02000
03F06000
03F84000
01F8C000
00FC8000
00FD0000
007F0000
007E0000
003E0000
003E0000
003E0000
003E0000
003E0000
003E0000
003E0000
007F0000
03FFE000
ENDCHAR
STARTCHAR 0179
ENCODING 377
SWIDTH 662 0
DWIDTH 23 0
BBX 21 31 1 0
BITMAP
001F00
001E00
003C00
003800
003000
006000
000000
000000
3FFFF0
3E07E0
300FE0
200FC0
201F80
403F80
403F00
007F00
007E00
00FC00
01FC00
01F800
03F000
07F000
07E000
0FE008
0FC008
1F8008
3F8018
3F0038
7E0078
FE07F8
FFFFF8
ENDCHAR
STARTCHAR 017A
ENCODING 378
SWIDTH 432 0
DWIDTH 15 0
BBX 15 24 0 0
BITMAP
00F8
00F0
01E0
01C0
0180
0300
0000
0000
7FFE
707C
60FC
40F8
41F0
03F0
03E0
07E0
07C0
0F80
1F80
1F02
3F04
3E04
7C1C
FFFC
ENDCHAR
STARTCHAR 017B
ENCODING 379
SWIDTH 662 0
DWIDTH 23 0
BBX 21 30 1 0
BITMAP
003000
007800
00F800
007800
007800
000000
000000
3FFFF0
3E07E0
300FE0
200FC0
201F80
403F80
403F00
007F00
007E00
00FC00
01FC00
01F800
03F000
07F000
07E000
0FE008
0FC008
1F8008
3F8018
3F0038
7E0078
FE07F8
FFFFF8
ENDCHAR
STARTCHAR 017C
ENCODING 380
SWIDTH 432 0
DWIDTH 15 0
BBX 15 23 0 0
BITMAP
01C0
03E0
03E0
03E0
01C0
0000
0000
7FFE
707C
60FC
40F8
41F0
03F0
03E0
07E0
07C0
0F80
1F80
1F02
3F04
3E04
7C1C
FFFC
ENDCHAR
STARTCHAR 017D
ENCODING 381
SWIDTH 662 0
DWIDTH 23 0
BBX 21 31 1 0
BITMAP
060300
030600
038E00
01DC00
01FC00
00F800
00F000
000000
3FFFF0
3E07E0
300FE0
200FC0
201F80
403F80
403F00
007F00
007E00
00FC00
01FC00
01F800
03F000
07F000
07E000
0FE008
0FC008
1F8008
3F8018
3F0038
7E0078
FE07F8
FFFFF8
ENDCHAR
STARTCHAR 017E
ENCODING 382
SWIDTH 432 0
DWIDTH 15 0
BBX 15 24 0 0
BITMAP
1808
0C38
0E70
07F0
07E0
03E0
0000
0000
7FFE
707C
60FC
40F8
41F0
03F0
03E0
07E0
07C0
0F80
1F80
1F02
3F04
3E04
7C1C
FFFC
ENDCHAR
STARTCHAR 017F
ENCODING 383
SWIDTH 288 0
DWIDTH 10 0
BBX 13 23 0 1
BITMAP
07F0
0E78
1E78
1E30
1E00
3E00
3E00
3E00
3E00
3E00
3E00
3E00
3E00
3E00
3E00
3E00
3E00
3E00
3E00
3E00
3E00
3E00
FF80
ENDCHAR
STARTCHAR 018F
ENCODING 399
SWIDTH 748 0
DWIDTH 26 0
BBX 23 25 1 -1
BITMAP
100000
11FF80
1F07E0
1C01F0
1800F8
1800F8
10007C
10007E
00007E
00007E
00007E
FFFFFE
FFFFFE
FE007E
FE007E
7E007E
7E007E
7E007E
3E007C
3E00F8
1E00F8
0F01F0
0783E0
03FF80
001000
ENDCHAR
STARTCHAR 0192
ENCODING 402
SWIDTH 489 0
DWIDTH 17 0
BBX 17 31 0 -7
BITMAP
000200
000D80
001B80
003B80
003900
007800
007800
00F800
01F000
07FE00
07FE00
01F000
01F000
01E000
03E000
03E000
03E000
03E000
03C000
07C000
07C000
07C000
07C000
078000
078000
078000
070000
070000
E60000
E60000
F80000
ENDCHAR
STARTCHAR 01A0
ENCODING 416
SWIDTH 777 0
DWIDTH 27 0
BBX 26 26 1 -1
BITMAP
000001C0
000003C0
00FF81C0
03C1E0C0
0F80FF80
1F007C00
1F003E00
3E003E00
7E003F00
7E003F00
7E003F00
7E001F80
FE001F80
FC001F80
FE001F80
7E001F80
7E001F00
7E003F00
7E003F00
3E003E00
3F003E00
1F007C00
0F80F800
07C1F000
01FFC000
00080000
ENDCHAR
STARTCHAR 01A1
ENCODING 417
SWIDTH 547 0
DWIDTH 19 0
BBX 19 17 1 1
BITMAP
0001E0
0FE1E0
1C70E0
3C38C0
7C3F80
783E00
783E00
F83E00
F83E00
F83E00
F83E00
783E00
783E00
783C00
3C3C00
1C7800
0FE000
ENDCHAR
STARTCHAR 01AF
ENCODING 431
SWIDTH 806 0
DWIDTH 28 0
BBX 28 29 1 -1
BITMAP
00000060
000000F0
000000F0
00000070
00000060
FFF0FF80
3F803800
1F001000
1F001000
1F001000
1F001000
1F001000
1F001000
1F001000
1F001000
1F001000
1F001000
1F001000
1F001000
1F001000
1F001000
1F001000
1F001000
1F803000
1F802000
0FC06000
07E1C000
03FF0000
00100000
ENDCHAR
STARTCHAR 01B0
ENCODING 432
SWIDTH 604 0
DWIDTH 21 0
BBX 21 16 1 0
BITMAP
FE7E70
7E3E78
3E1E78
3E1E30
3E1FE0
3E1E00
3E1E00
3E1E00
3E1E00
3E1E00
3E1E00
3E1E00
3E3E00
3E3F00
3FDF00
1F9F80
ENDCHAR
STARTCHAR 01CD
ENCODING 461
SWIDTH 720 0
DWIDTH 25 0
BBX 25 31 0 0
BITMAP
0080C000
00C18000
00738000
007F0000
003F0000
003E0000
00000000
00000000
00080000
000C0000
001C0000
001E0000
003E0000
003E0000
007F0000
005F0000
00DF8000
009F8000
008FC000
018FC000
0107E000
0307E000
0203E000
07FFF000
0403F000
0C01F800
0801F800
0800FC00
1800FC00
3800FE00
FF03FF80
ENDCHAR
STARTCHAR 01CE
ENCODING 462
SWIDTH 489 0
DWIDTH 17 0
BBX 14 24 2 0
BITMAP
2030
3060
1CE0
1FC0
0F80
0F80
0000
0000
1FC0
71F0
F0F0
F0F8
F8F8
F0F8
01F8
06F8
1CF8
38F8
70F8
F0F8
F0F8
FFF8
FEFC
7878
ENDCHAR
STARTCHAR 01CF
ENCODING 463
SWIDTH 403 0
DWIDTH 14 0
BBX 12 31 1 0
BITMAP
4060
70C0
39C0
3F80
1F80
1F00
0000
0000
FFF0
1F80
1F80
1F00
1F00
1F00
1F00
1F00
1F00
1F00
1F00
1F00
1F00
1F00
1F00
1F00
1F00
1F00
1F00
1F00
1F80
1F80
FFF0
ENDCHAR
STARTCHAR 01D0
ENCODING 464
SWIDTH 288 0
DWIDTH 10 0
BBX 10 24 0 0
BITMAP
C0C0
E1C0
7380
3F00
3F00
1E00
0000
0000
7E00
3E00
1E00
1E00
1E00
1E00
1E00
1E00
1E00
1E00
1E00
1E00
1E00
1E00
3F00
7F80
ENDCHAR
STARTCHAR 01D1
ENCODING 465
SWIDTH 777 0
DWIDTH 27 0
BBX 25 32 1 -1
BITMAP
0180C000
00C18000
00E38000
007F0000
007E0000
003E0000
00000000
00000000
01FFC000
03C1F000
0F80F800
1F007C00
1F003E00
3E003E00
7E003F00
7E003F00
7E001F00
7E001F80
FE001F80
FC001F80
FE001F80
7E001F80
7E001F00
7E003F00
7E003F00
3E003E00
3F003E00
1F007C00
0F807800
07C1F000
01FFC000
00080000
ENDCHAR
STARTCHAR 01D2
ENCODING 466
SWIDTH 489 0
DWIDTH 17 0
BBX 15 24 1 0
BITMAP
1018
1C30
0E70
0FE0
07E0
07C0
0000
0000
0FE0
1C78
3C38
7C3C
783E
783E
F83E
F83E
F83E
F83E
783E
783E
783C
3C3C
1C78
0FE0
ENDCHAR
STARTCHAR 01D3
ENCODING 467
SWIDTH 720 0
DWIDTH 25 0
BBX 23 32 1 -1
BITMAP
018180
01C380
00E700
00FE00
007E00
003C00
000000
000000
FFF0FE
3F8038
1F0010
1F0010
1F0010
1F0010
1F0010
1F0010
1F0010
1F0010
1F0010
1F0010
1F0010
1F0010
1F0010
1F0010
1F0010
1F0010
1F8030
1F8020
0FC060
07E1C0
03FF00
001000
ENDCHAR
STARTCHAR 01D4
ENCODING 468
SWIDTH 547 0
DWIDTH 19 0
BBX 17 24 1 0
BITMAP
180C00
0C1800
077800
07F000
03E000
03E000
000000
000000
FE7E00
7E3E00
3E1E00
3E1E00
3E1E00
3E1E00
3E1E00
3E1E00
3E1E00
3E1E00
3E1E00
3E1E00
3E3E00
3E3F00
3FDF00
1F9F80
ENDCHAR
STARTCHAR 01D5
ENCODING 469
SWIDTH 720 0
DWIDTH 25 0
BBX 23 32 1 -1
BITMAP
01FF00
01FF00
000000
000000
01C700
01C700
000000
000000
FFF0FE
3F8038
1F0010
1F0010
1F0010
1F0010
1F0010
1F0010
1F0010
1F0010
1F0010
1F0010
1F0010
1F0010
1F0010
1F0010
1F0010
1F0010
1F8030
1F8020
0FC060
07E1C0
03FF00
001000
ENDCHAR
STARTCHAR 01D6
ENCODING 470
SWIDTH 547 0
DWIDTH 19 0
BBX 17 27 1 0
BITMAP
1FFC00
1FFC00
1FFC00
000000
000000
0E3800
1F3C00
1F3C00
0E3C00
000000
000000
FE7E00
7E3E00
3E1E00
3E1E00
3E1E00
3E1E00
3E1E00
3E1E00
3E1E00
3E1E00
3E1E00
3E1E00
3E3E00
3E3F00
3FDF00
1F9F80
ENDCHAR
STARTCHAR 01D7
ENCODING 471
SWIDTH 720 0
DWIDTH 25 0
BBX 23 32 1 -1
BITMAP
001C00
001800
003000
000000
01C700
01C700
000000
000000
FFF0FE
3F8038
1F0010
1F0010
1F0010
1F0010
1F0010
1F0010
1F0010
1F0010
1F0010
1F0010
1F0010
1F0010
1F0010
1F0010
1F0010
1F0010
1F8030
1F8020
0FC060
07E1C0
03FF00
001000
ENDCHAR
STARTCHAR 01D8
ENCODING 472
SWIDTH 547 0
DWIDTH 19 0
BBX 17 29 1 0
BITMAP
007C00
007800
00F000
00E000
00C000
018000
000000
0E3800
1F3C00
1F3C00
0E3C00
000000
000000
FE7E00
7E3E00
3E1E00
3E1E00
3E1E00
3E1E00
3E1E00
3E1E00
3E1E00
3E1E00
3E1E00
3E1E00
3E3E00
3E3F00
3FDF00
1F9F80
ENDCHAR
STARTCHAR 01D9
ENCODING 473
SWIDTH 720 0
DWIDTH 25 0
BBX 23 32 1 -1
BITMAP
00C600
007C00
003800
000000
01C700
01C700
000000
000000
FFF0FE
3F8038
1F0010
1F0010
1F0010
1F0010
1F0010
1F0010
1F0010
1F0010
1F0010
1F0010
1F0010
1F0010
1F0010
1F0010
1F0010
1F0010
1F8030
1F8020
0FC060
07E1C0
03FF00
001000
ENDCHAR
STARTCHAR 01DA
ENCODING 474
SWIDTH 547 0
DWIDTH 19 0
BBX 17 30 1 0
BITMAP
180000
0C0C00
0E3800
077000
07F000
03E000
03E000
000000
0E3800
1F3C00
1F3C00
0E3C00
000000
000000
FE7E00
7E3E00
3E1E00
3E1E00
3E1E00
3E1E00
3E1E00
3E1E00
3E1E00
3E1E00
3E1E00
3E1E00
3E3E00
3E3F00
3FDF00
1F9F80
ENDCHAR
STARTCHAR 01DB
ENCODING 475
SWIDTH 720 0
DWIDTH 25 0
BBX 23 32 1 -1
BITMAP
007000
003000
001800
000000
01C700
01C700
000000
000000
FFF0FE
3F8038
1F0010
1F0010
1F0010
1F0010
1F0010
1F0010
1F0010
1F0010
1F0010
1F0010
1F0010
1F0010
1F0010
1F0010
1F0010
1F0010
1F8030
1F8020
0FC060
07E1C0
03FF00
001000
ENDCHAR
STARTCHAR 01DC
ENCODING 476
SWIDTH 547 0
DWIDTH 19 0
BBX 17 29 1 0
BITMAP
1F0000
0F8000
078000
038000
01C000
00C000
000000
0E3800
1F3C00
1F3C00
0E3C00
000000
000000
FE7E00
7E3E00
3E1E00
3E1E00
3E1E00
3E1E00
3E1E00
3E1E00
3E1E00
3E1E00
3E1E00
3E1E00
3E3E00
3E3F00
3FDF00
1F9F80
ENDCHAR
STARTCHAR 01FA
ENCODING 506
SWIDTH 720 0
DWIDTH 25 0
BBX 25 36 0 0
BITMAP
0007C000
000F8000
000F0000
000E0000
001C0000
00180000
00000000
001E0000
00230000
00610000
00610000
00610000
00370000
001C0000
000C0000
001C0000
001E0000
003E0000
003E0000
007F0000
005F0000
00DF8000
009F8000
008FC000
018FC000
0107E000
0307E000
0203E000
07FFF000
0403F000
0C01F800
0801F800
0800FC00
1800FC00
3800FE00
FF03FF80
ENDCHAR
STARTCHAR 01FB
ENCODING 507
SWIDTH 489 0
DWIDTH 17 0
BBX 14 31 2 0
BITMAP
03E0
03C0
0380
0700
0600
0400
0000
0F80
08C0
1840
1040
1840
0F80
0700
0000
1FC0
71F0
F0F0
F0F8
F8F8
F0F8
01F8
06F8
1CF8
38F8
70F8
F0F8
F0F8
FFF8
FEFC
7878
ENDCHAR
STARTCHAR 01FC
ENCODING 508
SWIDTH 1008 0
DWIDTH 35 0
BBX 33 31 0 0
BITMAP
00003E0000
00003C0000
0000380000
0000700000
0000600000
0000400000
0000000000
0000000000
001FFFFF00
0003FC7F00
0002FC0700
0006FC0300
0004FC0300
0008FC2100
0018FC2100
0010FC2000
0030FC2000
0060FC6000
0040FDE000
00C0FFE000
01FFFCE000
0100FC6000
0300FC2000
0200FC2000
0600FC2080
0C00FC0080
0800FC0180
1800FC0180
3000FC0300
3800FC1F00
FE0FFFFF00
ENDCHAR
STARTCHAR 01FD
ENCODING 509
SWIDTH 720 0
DWIDTH 25 0
BBX 22 24 2 0
BITMAP
003E00
003C00
003C00
007800
007000
006000
000000
000000
1FC7E0
71EC70
E0FC78
F0F838
F8F83C
F0F83C
01FFFC
07FFFC
1CF800
38F800
787C00
F07C04
F07E04
F8FF18
FFBFF0
FE0FE0
ENDCHAR
STARTCHAR 01FE
ENCODING 510
SWIDTH 777 0
DWIDTH 27 0
BBX 25 32 1 -1
BITMAP
000F8000
000F0000
000E0000
001C0000
00180000
00100000
00000000
00000200
00FFC600
03C1F400
0F80F800
1F007C00
1F003E00
3E007E00
7E00FF00
7E01BF00
7E033F00
7E021F80
FE041F80
FE0C1F80
FE181F80
7E301F80
7E601F00
7EC03F00
7E803F00
3F003E00
3F003E00
1F007C00
0F80F800
1FC1F000
31FFC000
60080000
ENDCHAR
STARTCHAR 01FF
ENCODING 511
SWIDTH 489 0
DWIDTH 17 0
BBX 15 24 1 0
BITMAP
00F8
01F0
01E0
01C0
0380
0300
0000
0002
0FE6
1E7C
3C3C
3C3C
7C3E
7C7E
7CFE
FDBE
FF3E
7E3E
7C3E
7C3E
7C3C
3C3C
7C78
CFF0
ENDCHAR
STARTCHAR 0218
ENCODING 536
SWIDTH 547 0
DWIDTH 19 0
BBX 16 31 2 -7
BITMAP
1FE4
383C
701C
F00C
F004
F004
F804
FE00
FF80
7FE0
3FF0
1FFC
0FFE
03FE
00FF
803F
801F
800F
C00F
C00E
E00E
F81C
9FF0
0100
0000
0780
07C0
03C0
00C0
0080
0300
ENDCHAR
STARTCHAR 0219
ENCODING 537
SWIDTH 403 0
DWIDTH 14 0
BBX 11 24 1 -8
BITMAP
3F40
71C0
70C0
F040
F840
FE00
7F00
7FC0
3FC0
0FE0
07E0
43E0
41E0
60E0
71C0
7F80
0000
0000
0E00
1F00
0F00
0300
0200
0C00
ENDCHAR
STARTCHAR 021A
ENCODING 538
SWIDTH 662 0
DWIDTH 23 0
BBX 21 31 1 -8
BITMAP
FFFFF8
F8F8F8
E0F818
C0F818
80F808
80F808
00F800
00F800
00F800
00F800
00F800
00F800
00F800
00F800
00F800
00F800
00F800
00F800
00F800
00F800
00F800
01FC00
07FF80
000000
000000
007800
00F800
007800
000800
001000
006000
ENDCHAR
STARTCHAR 021B
ENCODING 539
SWIDTH 345 0
DWIDTH 12 0
BBX 10 29 1 -7
BITMAP
0400
0400
0C00
1C00
3C00
7FC0
FFC0
3C00
3C00
3C00
3C00
3C00
3C00
3C00
3C00
3C00
3C00
3E00
3E40
3F80
1F00
0000
0000
1E00
1F00
0F00
0200
0200
0C00
ENDCHAR
STARTCHAR 0259
ENCODING 601
SWIDTH 432 0
DWIDTH 15 0
BBX 13 16 1 0
BITMAP
1FC0
3FE0
67F0
41F0
80F8
00F8
00F8
0078
0078
FFF8
F078
F078
7070
78F0
38E0
1FC0
ENDCHAR
STARTCHAR 02C6
ENCODING 710
SWIDTH 345 0
DWIDTH 12 0
BBX 10 6 1 18
BITMAP
1E00
3F00
7F00
7380
E180
C0C0
ENDCHAR
STARTCHAR 02C7
ENCODING 711
SWIDTH 345 0
DWIDTH 12 0
BBX 10 6 1 18
BITMAP
80C0
E180
7380
7F00
3F00
3E00
ENDCHAR
STARTCHAR 02C9
ENCODING 713
SWIDTH 345 0
DWIDTH 12 0
BBX 11 3 0 18
BITMAP
FFE0
FFE0
FFE0
ENDCHAR
STARTCHAR 02D8
ENCODING 728
SWIDTH 345 0
DWIDTH 12 0
BBX 10 6 1 18
BITMAP
8040
80C0
E3C0
7F80
7F00
1E00
ENDCHAR
STARTCHAR 02D9
ENCODING 729
SWIDTH 345 0
DWIDTH 12 0
BBX 5 5 3 18
BITMAP
78
F8
F8
78
30
ENDCHAR
STARTCHAR 02DA
ENCODING 730
SWIDTH 345 0
DWIDTH 12 0
BBX 7 7 2 17
BITMAP
3C
46
C2
C2
C2
7C
38
ENDCHAR
STARTCHAR 02DB
ENCODING 731
SWIDTH 345 0
DWIDTH 12 0
BBX 8 8 2 -8
BITMAP
30
60
E0
E0
F0
F8
7F
1C
ENDCHAR
STARTCHAR 02DC
ENCODING 732
SWIDTH 345 0
DWIDTH 12 0
BBX 11 5 0 18
BITMAP
3C20
7FE0
7FE0
CFC0
8100
ENDCHAR
STARTCHAR 02DD
ENCODING 733
SWIDTH 345 0
DWIDTH 12 0
BBX 11 6 2 18
BITMAP
39E0
71C0
7180
6380
C300
C200
ENDCHAR
STARTCHAR 0300
ENCODING 768
SWIDTH 0 0
DWIDTH 0 0
BBX 6 6 -9 25
BITMAP
F0
F8
78
38
1C
0C
ENDCHAR
STARTCHAR 0301
ENCODING 769
SWIDTH 0 0
DWIDTH 0 0
BBX 7 6 -7 25
BITMAP
3E
3C
78
70
60
C0
ENDCHAR
STARTCHAR 0303
ENCODING 771
SWIDTH 0 0
DWIDTH 0 0
BBX 11 5 -14 25
BITMAP
3C20
7F60
7FE0
DFC0
8380
ENDCHAR
STARTCHAR 0309
ENCODING 777
SWIDTH 0 0
DWIDTH 0 0
BBX 7 6 -8 25
BITMAP
7C
C6
C6
0C
18
10
ENDCHAR
STARTCHAR 0323
ENCODING 803
SWIDTH 0 0
DWIDTH 0 0
BBX 5 5 -17 -7
BITMAP
F0
F8
F8
F8
F0
ENDCHAR
STARTCHAR 037E
ENCODING 894
SWIDTH 345 0
DWIDTH 12 0
BBX 6 22 3 -6
BITMAP
78
F8
FC
F8
78
00
00
00
00
00
00
78
F8
FC
FC
FC
0C
0C
18
10
20
C0
ENDCHAR
STARTCHAR 0384
ENCODING 900
SWIDTH 345 0
DWIDTH 12 0
BBX 7 6 4 18
BITMAP
3E
7C
78
70
E0
C0
ENDCHAR
STARTCHAR 0385
ENCODING 901
SWIDTH 345 0
DWIDTH 12 0
BBX 16 6 -2 18
BITMAP
01F0
01E0
F3CE
F39F
F31F
760E
ENDCHAR
STARTCHAR 0386
ENCODING 902
SWIDTH 720 0
DWIDTH 25 0
BBX 25 24 0 0
BITMAP
07C00000
07880000
070C0000
0E1C0000
0C1E0000
083E0000
003E0000
007F0000
005F0000
00DF8000
009F8000
008FC000
018FC000
0107E000
0307E000
0203E000
07FFF000
0403F000
0C01F800
0801F800
0800FC00
1800FC00
3800FE00
FF03FF80
ENDCHAR
STARTCHAR 0387
ENCODING 903
SWIDTH 345 0
DWIDTH 12 0
BBX 6 5 3 11
BITMAP
78
F8
FC
F8
78
ENDCHAR
STARTCHAR 0388
ENCODING 904
SWIDTH 806 0
DWIDTH 28 0
BBX 28 24 -2 0
BITMAP
3C000000
79FFFFE0
783F0FE0
703F00E0
E01F0060
C01F0060
001F0420
001F0420
001F0400
001F0C00
001F0C00
001F3C00
001FFC00
001F1C00
001F0C00
001F0C00
001F0400
001F0410
001F0010
001F0030
001F0030
003F00E0
003F87E0
01FFFFE0
ENDCHAR
STARTCHAR 0389
ENCODING 905
SWIDTH 921 0
DWIDTH 32 0
BBX 33 24 -2 0
BITMAP
3C00000000
79FFE7FF80
783F00FC00
703F00FC00
E03F00FC00
C03F00FC00
003F00FC00
003F00FC00
003F00FC00
003F00FC00
003F00FC00
003FFFFC00
003FFFFC00
003F00FC00
003F00FC00
003F00FC00
003F00FC00
003F00FC00
003F00FC00
003F00FC00
003F00FC00
003F00FC00
003F00FC00
01FFE7FF80
ENDCHAR
STARTCHAR 038A
ENCODING 906
SWIDTH 518 0
DWIDTH 18 0
BBX 19 24 -2 0
BITMAP
3C0000
79FFE0
783F00
703F00
E01F00
C01F00
001F00
001F00
001F00
001F00
001F00
001F00
001F00
001F00
001F00
001F00
001F00
001F00
001F00
001F00
001F00
001F00
003F00
01FFE0
ENDCHAR
STARTCHAR 038C
ENCODING 908
SWIDTH 777 0
DWIDTH 27 0
BBX 28 25 -2 -1
BITMAP
3E000000
7C3FF800
78783E00
71F01F00
E3E00F80
C7E007C0
07C007C0
0FC007E0
0FC007E0
0FC007E0
1FC003F0
1F8003F0
1F8003F0
1F8003F0
1FC003F0
0FC007E0
0FC007E0
0FC007E0
07C007C0
07E007C0
03E00F80
01F01F00
00F83E00
003FF800
00010000
ENDCHAR
STARTCHAR 038E
ENCODING 910
SWIDTH 864 0
DWIDTH 30 0
BBX 32 24 -2 0
BITMAP
3C000000
79FFC07F
787F001C
703F0018
E01F8010
C01F8030
000FC020
000FC040
0007E0C0
0007E080
0003F180
0003F900
0001FA00
0000FE00
0000FC00
00007C00
00007C00
00007C00
00007C00
00007C00
00007C00
00007C00
0000FE00
0007FFC0
ENDCHAR
STARTCHAR 038F
ENCODING 911
SWIDTH 806 0
DWIDTH 28 0
BBX 29 24 -2 0
BITMAP
3C000000
7C3FFC00
78F81F00
71F00F80
E3E007C0
C7E007E0
07C007E0
0FC003E0
0FC003F0
0FC003F0
0FC003F0
0FC003F0
0FC003E0
07C003E0
07C007C0
03E007C0
01E00F80
00781E00
10081008
18081018
1FF83FF8
1FF83FF8
1FFC3FF8
1FFC3FF8
ENDCHAR
STARTCHAR 0390
ENCODING 912
SWIDTH 316 0
DWIDTH 11 0
BBX 16 24 -3 0
BITMAP
01F0
01E0
71CF
FB8F
FB0F
720E
0000
0000
0FC0
07C0
03C0
03C0
03C0
03C0
03C0
03C0
03C0
03C0
03C0
03E4
03E4
03E8
03F8
01F0
ENDCHAR
STARTCHAR 0391
ENCODING 913
SWIDTH 720 0
DWIDTH 25 0
BBX 25 23 0 0
BITMAP
00080000
000C0000
001C0000
001E0000
003E0000
003E0000
007F0000
005F0000
00DF8000
009F8000
008FC000
018FC000
0107E000
0307E000
0203E000
07FFF000
0403F000
0C01F800
0801F800
0800FC00
1800FC00
3800FE00
FF03FF80
ENDCHAR
STARTCHAR 0392
ENCODING 914
SWIDTH 662 0
DWIDTH 23 0
BBX 21 23 1 0
BITMAP
FFFF00
1F1FC0
1F07E0
1F03E0
1F03F0
1F03F0
1F03F0
1F03F0
1F07E0
1F0FC0
1FFE00
1FFF80
1F07E0
1F03F0
1F03F8
1F01F8
1F01F8
1F01F8
1F01F8
1F03F0
1F03E0
1F8FC0
FFFF00
ENDCHAR
STARTCHAR 0393
ENCODING 915
SWIDTH 633 0
DWIDTH 22 0
BBX 20 23 1 0
BITMAP
FFFFF0
1FFFF0
1F0030
1F0010
1F0010
1F0010
1F0000
1F0000
1F0000
1F0000
1F0000
1F0000
1F0000
1F0000
1F0000
1F0000
1F0000
1F0000
1F0000
1F0000
1F8000
1F8000
FFF000
ENDCHAR
STARTCHAR 0394
ENCODING 916
SWIDTH 633 0
DWIDTH 22 0
BBX 20 23 1 0
BITMAP
006000
006000
00E000
00F000
00F000
01F800
01F800
03F800
02FC00
067C00
047E00
043E00
0C3F00
083F00
181F00
101F80
100F80
200FC0
200FC0
6007C0
4007E0
C003E0
FFFFF0
ENDCHAR
STARTCHAR 0395
ENCODING 917
SWIDTH 662 0
DWIDTH 23 0
BBX 20 23 1 0
BITMAP
FFFFE0
1F07E0
1F00E0
1F0060
1F0020
1F0420
1F0420
1F0400
1F0400
1F0C00
1F3C00
1FFC00
1F1C00
1F0C00
1F0400
1F0400
1F0410
1F0010
1F0010
1F8030
1F8070
1F83F0
FFFFF0
ENDCHAR
STARTCHAR 0396
ENCODING 918
SWIDTH 662 0
DWIDTH 23 0
BBX 21 23 1 0
BITMAP
3FFFF0
3E07E0
300FE0
200FC0
201F80
403F80
403F00
007F00
007E00
00FC00
01FC00
01F800
03F000
07F000
07E000
0FE008
0FC008
1F8008
3F8018
3F0038
7E0078
FE07F8
FFFFF8
ENDCHAR
STARTCHAR 0397
ENCODING 919
SWIDTH 777 0
DWIDTH 27 0
BBX 25 23 1 0
BITMAP
FFF7FF80
1F80FE00
1F807C00
1F807C00
1F007C00
1F007C00
1F007C00
1F007C00
1F007C00
1F007C00
1FFFFC00
1FFFFC00
1F007C00
1F007C00
1F007C00
1F007C00
1F007C00
1F007C00
1F007C00
1F807C00
1F807C00
1F80FC00
FFF7FF80
ENDCHAR
STARTCHAR 0398
ENCODING 920
SWIDTH 777 0
DWIDTH 27 0
BBX 25 24 1 0
BITMAP
01FFC000
03C1F000
0F80F800
1F007C00
3F003E00
3E003E00
7E003F00
7E413F00
7E413F00
FE631F80
FC7F1F80
FC7F1F80
FC7F1F80
FE7F1F80
7E413F00
7E413F00
7E003F00
3E003E00
3F003E00
1F007C00
0F80F800
07C1F000
01FFC000
00080000
ENDCHAR
STARTCHAR 0399
ENCODING 921
SWIDTH 403 0
DWIDTH 14 0
BBX 12 23 1 0
BITMAP
FFF0
1F80
1F80
1F00
1F00
1F00
1F00
1F00
1F00
1F00
1F00
1F00
1F00
1F00
1F00
1F00
1F00
1F00
1F00
1F00
1F80
1F80
FFF0
ENDCHAR
STARTCHAR 039A
ENCODING 922
SWIDTH 777 0
DWIDTH 27 0
BBX 26 23 1 0
BITMAP
FFE0FF80
1F801E00
1F801800
1F803000
1F806000
1F81C000
1F830000
1F860000
1F8C0000
1F9C0000
1FFE0000
1FFF0000
1FBF0000
1FBF8000
1F9FC000
1F8FE000
1F87F000
1F83F000
1F83F800
1F81FC00
1F80FE00
1F80FF00
FFE3FFC0
ENDCHAR
STARTCHAR 039B
ENCODING 923
SWIDTH 720 0
DWIDTH 25 0
BBX 25 23 0 0
BITMAP
00080000
000C0000
001C0000
001E0000
003E0000
003F0000
007F0000
005F0000
00DF8000
008F8000
018FC000
010FC000
0107E000
0207E000
0203E000
0603F000
0401F000
0C01F800
0801F800
1800FC00
1800FC00
3800FE00
FF03FF80
ENDCHAR
STARTCHAR 039C
ENCODING 924
SWIDTH 950 0
DWIDTH 33 0
BBX 31 23 1 0
BITMAP
FF8003FE
1FC007F0
1FC007F0
17E00FF0
17E00BF0
13E00BF0
13F013F0
13F013F0
11F833F0
11F823F0
10FC63F0
10FC43F0
107C43F0
107EC3F0
107E83F0
103F83F0
103F03F0
101F03F0
101E03F0
100E03F0
100E03F0
380C03F0
FF041FFE
ENDCHAR
STARTCHAR 039D
ENCODING 925
SWIDTH 720 0
DWIDTH 25 0
BBX 24 23 0 -1
BITMAP
FF807F
1FC01C
0FE008
0FE008
0FF008
0BF808
09FC08
08FE08
08FE08
087F08
083F88
081FC8
080FE8
080FE8
0807F8
0803F8
0801F8
0800F8
080078
080078
080038
1C0018
FF8008
ENDCHAR
STARTCHAR 039E
ENCODING 926
SWIDTH 691 0
DWIDTH 24 0
BBX 20 23 2 0
BITMAP
FFFFE0
FFFFE0
FFFFE0
FFFFE0
FFFFE0
800020
800000
000100
080100
0FFF00
0FFF00
0FFF00
0FFF00
0C0300
100100
800110
800010
800010
FFFFF0
FFFFF0
FFFFF0
FFFFF0
FFFFF0
ENDCHAR
STARTCHAR 039F
ENCODING 927
SWIDTH 777 0
DWIDTH 27 0
BBX 25 24 1 -1
BITMAP
01FFC000
03C1F000
0F80F800
1F007C00
1F003E00
3E003E00
7E003F00
7E003F00
7E001F00
7E001F80
FE001F80
FC001F80
FE001F80
7E001F80
7E001F00
7E003F00
7E003F00
3E003E00
3F003E00
1F007C00
0F807800
07C1F000
01FFC000
00080000
ENDCHAR
STARTCHAR 03A0
ENCODING 928
SWIDTH 777 0
DWIDTH 27 0
BBX 25 23 1 0
BITMAP
FFFFFF80
1FFFFC00
1F007C00
1F007C00
1F007C00
1F007C00
1F007C00
1F007C00
1F007C00
1F007C00
1F007C00
1F007C00
1F007C00
1F007C00
1F007C00
1F007C00
1F007C00
1F007C00
1F007C00
1F007C00
1F80FC00
1F80FC00
FFF7FF80
ENDCHAR
STARTCHAR 03A1
ENCODING 929
SWIDTH 604 0
DWIDTH 21 0
BBX 19 23 1 0
BITMAP
FFFC00
1F3F80
1F0FC0
1F07E0
1F07E0
1F07E0
1F03E0
1F07E0
1F07E0
1F07C0
1F0F80
1FFF00
1FC000
1F0000
1F0000
1F0000
1F0000
1F0000
1F0000
1F0000
1F0000
1F8000
FFF000
ENDCHAR
STARTCHAR 03A3
ENCODING 931
SWIDTH 662 0
DWIDTH 23 0
BBX 21 23 1 0
BITMAP
FFFFE0
FC03E0
7E00E0
3F0060
1F8060
1F8020
0FC020
07E000
07E000
03F000
01E000
00C000
008000
018000
030000
060008
0C0010
080010
1801F0
3FFFF0
7FFFF0
FFFFF0
FFFFF0
ENDCHAR
STARTCHAR 03A4
ENCODING 932
SWIDTH 662 0
DWIDTH 23 0
BBX 21 23 1 0
BITMAP
FFFFF8
F8F8F8
E0F818
C0F818
80F808
80F808
00F800
00F800
00F800
00F800
00F800
00F800
00F800
00F800
00F800
00F800
00F800
00F800
00F800
00F800
00F800
01FC00
07FF80
ENDCHAR
STARTCHAR 03A5
ENCODING 933
SWIDTH 720 0
DWIDTH 25 0
BBX 25 23 0 0
BITMAP
FFE03F80
3F800E00
1F800C00
0FC00800
0FC01800
07E01000
07E02000
03F06000
03F84000
01F8C000
00FC8000
00FD0000
007F0000
007E0000
003E0000
003E0000
003E0000
003E0000
003E0000
003E0000
003E0000
007F0000
03FFE000
ENDCHAR
STARTCHAR 03A6
ENCODING 934
SWIDTH 835 0
DWIDTH 29 0
BBX 26 23 1 0
BITMAP
01FFE000
003F8000
001F0000
01FFF000
0FDF7C00
1F1F1F00
3E1F0F80
7C1F0F80
7C1F07C0
7C1F07C0
FC1F07C0
FC1F07C0
FC1F07C0
7C1F07C0
7C1F07C0
3E1F0F80
3E1F0F00
1F1F1E00
07FFFC00
007FC000
001F0000
003F8000
01FFE000
ENDCHAR
STARTCHAR 03A7
ENCODING 935
SWIDTH 720 0
DWIDTH 25 0
BBX 25 23 0 0
BITMAP
7FF0FF00
1FC03C00
1FC03800
0FE03000
07E06000
07F0C000
03F88000
01F90000
01FF0000
00FE0000
007E0000
007F0000
003F8000
003F8000
006FC000
00CFE000
0187E000
0303F000
0203F800
0601F800
0C00FC00
1C00FE00
FF83FF80
ENDCHAR
STARTCHAR 03A8
ENCODING 936
SWIDTH 777 0
DWIDTH 27 0
BBX 26 23 1 0
BITMAP
F1FFE7C0
787F0F00
7C3E1F00
7C3E1F00
7E3E1F00
7E3E3F00
7E3E3F00
3E3E3F00
3E3E3E00
3E3E3E00
1E3E3C00
0F3E7800
03FFE000
003E0000
003E0000
003E0000
003E0000
003E0000
003E0000
003E0000
003E0000
007F0000
01FFE000
ENDCHAR
STARTCHAR 03A9
ENCODING 937
SWIDTH 806 0
DWIDTH 28 0
BBX 26 23 1 1
BITMAP
01FFE000
07C0F800
0F807C00
1F003E00
3F003F00
3E003F00
7E001F00
7E001F80
7E001F80
7E001F80
7E001F80
7E001F00
3E001F00
3E003E00
1F003E00
0F007C00
03C0F000
80408040
C04080C0
FFC1FFC0
FFC1FFC0
FFE1FFC0
FFE1FFC0
ENDCHAR
STARTCHAR 03AA
ENCODING 938
SWIDTH 403 0
DWIDTH 14 0
BBX 12 30 1 0
BITMAP
30C0
79E0
F9E0
79E0
70C0
0000
0000
FFF0
1F80
1F80
1F00
1F00
1F00
1F00
1F00
1F00
1F00
1F00
1F00
1F00
1F00
1F00
1F00
1F00
1F00
1F00
1F00
1F80
1F80
FFF0
ENDCHAR
STARTCHAR 03AB
ENCODING 939
SWIDTH 720 0
DWIDTH 25 0
BBX 25 30 0 0
BITMAP
00C18000
01E3C000
01F7C000
01E3C000
00C18000
00000000
00000000
FFE03F80
3F800E00
1F800C00
0FC00800
0FC01800
07E01000
07E02000
03F06000
03F84000
01F8C000
00FC8000
00FD0000
007F0000
007E0000
003E0000
003E0000
003E0000
003E0000
003E0000
003E0000
003E0000
007F0000
03FFE000
ENDCHAR
STARTCHAR 03AC
ENCODING 940
SWIDTH 547 0
DWIDTH 19 0
BBX 18 24 1 0
BITMAP
007C00
00F800
00F000
00E000
01C000
018000
000000
000000
0F8F80
1C4F00
3C7F00
3C3F00
7C3F00
7C1E00
7C1E00
783E00
F83E00
783E00
783C00
7C3C40
7C7C40
3C7EC0
1CF380
0FE380
ENDCHAR
STARTCHAR 03AD
ENCODING 941
SWIDTH 432 0
DWIDTH 15 0
BBX 13 24 1 0
BITMAP
01E0
03E0
03C0
0380
0700
0600
0000
0000
1FF0
3C38
7C78
7C38
7C00
7C00
3C00
07C0
1E00
7C00
7C00
F810
F838
FC38
7C38
1FF0
ENDCHAR
STARTCHAR 03AE
ENCODING 942
SWIDTH 576 0
DWIDTH 20 0
BBX 18 31 0 -7
BITMAP
003E00
007C00
007800
007000
00E000
00C000
000000
000000
3E3F00
7F7F80
5F8F80
9F8F80
9F0F80
1F0F80
1F0F80
1F0F80
1F0F80
1F0F80
1F0F80
1F0F80
1F0F80
1F0F80
1F0F80
1F0F80
000F80
000F80
000F80
000780
000780
0007C0
0007C0
ENDCHAR
STARTCHAR 03AF
ENCODING 943
SWIDTH 316 0
DWIDTH 11 0
BBX 10 24 1 0
BITMAP
0F80
0F00
0E00
1C00
1800
1000
0000
0000
FC00
7C00
3C00
3C00
3C00
3C00
3C00
3C00
3C00
3C00
3C00
3E40
3E40
3E80
3F80
1F00
ENDCHAR
STARTCHAR 03B0
ENCODING 944
SWIDTH 518 0
DWIDTH 18 0
BBX 17 24 0 0
BITMAP
00F800
00F000
39E700
7DCF80
798F80
3B0700
000000
000000
3E1800
7F0C00
5F0600
9F0700
8F0300
0F0300
0F0380
0F0380
0F0380
0F0380
0F0300
0F0700
0F0700
0F8600
078C00
03F800
ENDCHAR
STARTCHAR 03B1
ENCODING 945
SWIDTH 547 0
DWIDTH 19 0
BBX 18 16 1 0
BITMAP
0F8F80
1C4F00
3C7F00
3C3F00
7C3F00
7C1E00
7C1E00
783E00
F83E00
783E00
783C00
7C3C40
7C7C40
3C7EC0
1CF380
0FE380
ENDCHAR
STARTCHAR 03B2
ENCODING 946
SWIDTH 518 0
DWIDTH 18 0
BBX 15 30 2 -6
BITMAP
1FF0
3878
787C
787C
F87C
F87C
F87C
F878
F970
FBE0
F870
F838
F83C
F83E
F83E
F83E
F83E
F83E
F83E
F83C
F87C
FC78
FBF0
F800
F800
F800
F800
F800
F800
F800
ENDCHAR
STARTCHAR 03B3
ENCODING 947
SWIDTH 460 0
DWIDTH 16 0
BBX 16 23 0 -7
BITMAP
781F
7C1E
FC3E
CE3C
863C
8638
0278
0370
0370
0160
0160
01C0
01C0
00C0
0180
0180
0380
0380
03C0
07C0
0780
0780
0780
ENDCHAR
STARTCHAR 03B4
ENCODING 948
SWIDTH 518 0
DWIDTH 18 0
BBX 16 23 1 1
BITMAP
0FF0
18F8
1078
1038
1800
0E00
0780
03E0
01F8
0FFC
1C7C
3C3E
783E
783E
F83F
F81F
F81F
F81E
781E
783E
3C3C
1C78
0FE0
ENDCHAR
STARTCHAR 03B5
ENCODING 949
SWIDTH 432 0
DWIDTH 15 0
BBX 13 16 1 0
BITMAP
1FF0
3C38
7C78
7C38
7C00
7C00
3C00
07C0
1E00
7C00
7C00
F810
F838
FC38
7C38
1FF0
ENDCHAR
STARTCHAR 03B6
ENCODING 950
SWIDTH 403 0
DWIDTH 14 0
BBX 13 31 1 -7
BITMAP
0800
3070
31F0
33F0
3FC0
0C00
0800
1000
3000
2000
6000
4000
4000
4000
C000
C000
C000
C000
E000
F000
7FF0
7FF0
3FF8
3FF8
0218
0008
0008
0008
0398
07F0
03E0
ENDCHAR
STARTCHAR 03B7
ENCODING 951
SWIDTH 576 0
DWIDTH 20 0
BBX 18 23 0 -7
BITMAP
3E3F00
7F7F80
5F8F80
9F8F80
9F0F80
1F0F80
1F0F80
1F0F80
1F0F80
1F0F80
1F0F80
1F0F80
1F0F80
1F0F80
1F0F80
1F0F80
000F80
000F80
000F80
000780
000780
0007C0
0007C0
ENDCHAR
STARTCHAR 03B8
ENCODING 952
SWIDTH 518 0
DWIDTH 18 0
BBX 16 23 1 1
BITMAP
07E0
0E38
1C38
3C3C
3C3E
7C1E
781E
781E
781F
781F
F81F
FFFF
F81F
F81F
781F
781E
7C1E
7C1E
3C1E
3C3C
1C38
0E38
07E0
ENDCHAR
STARTCHAR 03B9
ENCODING 953
SWIDTH 316 0
DWIDTH 11 0
BBX 10 16 1 0
BITMAP
FC00
7C00
3C00
3C00
3C00
3C00
3C00
3C00
3C00
3C00
3C00
3E40
3E40
3E80
3F80
1F00
ENDCHAR
STARTCHAR 03BA
ENCODING 954
SWIDTH 547 0
DWIDTH 19 0
BBX 18 16 1 0
BITMAP
FC0780
7C0FC0
3C1F80
3C3000
3C6000
3CE000
3CE000
3DF000
3FF800
3EF800
3C7C00
3C7E00
3C3E00
3C1F00
3C1F80
3C0FC0
ENDCHAR
STARTCHAR 03BB
ENCODING 955
SWIDTH 489 0
DWIDTH 17 0
BBX 16 23 1 1
BITMAP
3C00
7E00
7E00
4200
8200
0300
0100
0100
0300
0380
0780
0780
0F80
0FC0
1F40
1F40
3E40
3E60
3C21
7C31
783F
F81F
F81E
ENDCHAR
STARTCHAR 03BC
ENCODING 956
SWIDTH 576 0
DWIDTH 20 0
BBX 17 23 2 -7
BITMAP
783C00
783C00
783C00
783C00
783C00
783C00
783C00
783C00
783C00
783C00
783C00
783C00
7C7C80
7CFE80
7FBF80
7F1F00
600000
E00000
F00000
F00000
F00000
F00000
F00000
ENDCHAR
STARTCHAR 03BD
ENCODING 957
SWIDTH 460 0
DWIDTH 16 0
BBX 15 16 0 0
BITMAP
7C1C
FC1E
7E1E
3E1E
3E0C
1F0C
1F08
0F88
0F90
0FD0
07E0
07E0
03C0
03C0
0180
0180
ENDCHAR
STARTCHAR 03BE
ENCODING 958
SWIDTH 432 0
DWIDTH 15 0
BBX 14 31 1 -7
BITMAP
1000
63E0
67E0
3FC0
1F00
1000
1000
2000
30F0
1BF8
0FF0
1180
2000
6000
4000
C000
C000
C000
C000
F000
FFF8
7FF8
7FFC
3FFC
070C
0004
0004
0004
01FC
03F8
01F0
ENDCHAR
STARTCHAR 03BF
ENCODING 959
SWIDTH 489 0
DWIDTH 17 0
BBX 15 16 1 0
BITMAP
0FE0
1C78
3C38
7C3C
783E
783E
F83E
F83E
F83E
F83E
783E
783E
783C
3C3C
1C78
0FE0
ENDCHAR
STARTCHAR 03C0
ENCODING 960
SWIDTH 547 0
DWIDTH 19 0
BBX 18 16 0 0
BITMAP
0FFFC0
3FFFC0
3FFFC0
7FFFC0
431C00
831C00
071C00
061C00
061C00
0E3C00
0E3C00
1E3C00
3E3C80
7C3E80
7C3F80
3C1F00
ENDCHAR
STARTCHAR 03C1
ENCODING 961
SWIDTH 547 0
DWIDTH 19 0
BBX 15 23 2 -7
BITMAP
0FF0
1C78
387C
783C
783E
783E
F83E
F83E
F83E
F83E
F83E
F83E
F83C
F83C
FC78
FBF0
F800
F800
F800
F800
F800
F800
F800
ENDCHAR
STARTCHAR 03C2
ENCODING 962
SWIDTH 432 0
DWIDTH 15 0
BBX 13 23 1 -7
BITMAP
03F0
0FF8
1FF8
3030
6000
4000
4000
C000
C000
C000
C000
F800
FFF0
7FF0
7FF8
1FF8
0318
0008
0008
0008
03B8
07F0
03E0
ENDCHAR
STARTCHAR 03C3
ENCODING 963
SWIDTH 547 0
DWIDTH 19 0
BBX 17 16 1 0
BITMAP
01FF80
0FFF80
3FFF80
7FFF80
7F3000
7C3800
F81C00
F81E00
F81F00
F81F00
781F00
781F00
3C1E00
3C1E00
1E3C00
0FF000
ENDCHAR
STARTCHAR 03C4
ENCODING 964
SWIDTH 460 0
DWIDTH 16 0
BBX 15 16 0 0
BITMAP
0FFE
3FFE
7FFE
7FFE
C1C0
83C0
03C0
03C0
03C0
03C0
03C0
03C8
03C8
03C8
03F0
03E0
ENDCHAR
STARTCHAR 03C5
ENCODING 965
SWIDTH 518 0
DWIDTH 18 0
BBX 17 16 0 0
BITMAP
3E1800
7F0C00
5F0600
9F0700
8F0300
0F0300
0F0380
0F0380
0F0380
0F0380
0F0300
0F0700
0F0700
0F8600
078C00
03F800
ENDCHAR
STARTCHAR 03C6
ENCODING 966
SWIDTH 633 0
DWIDTH 22 0
BBX 19 23 1 -7
BITMAP
073E00
1C7F80
3C67C0
38E3C0
78E3E0
78E3E0
F8E1E0
F8E1E0
F8E1E0
F8E1E0
78E1E0
78E3C0
3CE3C0
3CE380
1EE700
07FE00
00E000
00E000
00E000
00E000
00E000
00E000
00E000
ENDCHAR
STARTCHAR 03C7
ENCODING 967
SWIDTH 460 0
DWIDTH 16 0
BBX 16 23 0 -7
BITMAP
381F
7C1E
7C3E
C63C
827C
8278
03F8
01F0
01F0
01E0
03E0
03C0
03C0
07C0
07C0
0F40
0F40
1E60
1E21
3E31
3C3F
7C1F
781E
ENDCHAR
STARTCHAR 03C8
ENCODING 968
SWIDTH 691 0
DWIDTH 24 0
BBX 22 23 1 -7
BITMAP
F0303C
783078
7C30F8
7C30F8
7C30F8
7C30F8
7C30F0
3C30F0
3C31F0
3E31F0
3E31F0
1E31E0
1E31E0
0F33C0
073380
03FE00
003000
003000
003000
003000
003000
003000
003000
ENDCHAR
STARTCHAR 03C9
ENCODING 969
SWIDTH 720 0
DWIDTH 25 0
BBX 23 16 1 0
BITMAP
0783E0
1E00F0
3C1078
3C383C
7C3C3C
783C3E
783C3E
F83C3E
F8383E
F8383E
78183E
7C103E
7C183C
3C2C7C
3F66F8
0F83F0
ENDCHAR
STARTCHAR 03CA
ENCODING 970
SWIDTH 316 0
DWIDTH 11 0
BBX 11 23 0 0
BITMAP
F1C0
F3E0
F3E0
F1C0
0000
0000
0000
7E00
3E00
1E00
1E00
1E00
1E00
1E00
1E00
1E00
1E00
1E00
1F20
1F20
1F40
1FC0
0F80
ENDCHAR
STARTCHAR 03CB
ENCODING 971
SWIDTH 518 0
DWIDTH 18 0
BBX 17 23 0 0
BITMAP
0E1C00
0F3C00
0F3C00
0F3C00
000000
000000
000000
3E1800
7F0C00
5F0600
9F0700
8F0300
0F0300
0F0380
0F0380
0F0380
0F0380
0F0300
0F0700
0F0700
0F8600
078C00
03F800
ENDCHAR
STARTCHAR 03CC
ENCODING 972
SWIDTH 489 0
DWIDTH 17 0
BBX 15 24 1 0
BITMAP
00F8
01F0
01E0
01C0
0380
0300
0000
0000
0FE0
1C78
3C38
7C3C
783E
783E
F83E
F83E
F83E
F83E
783E
783E
783C
3C3C
1C78
0FE0
ENDCHAR
STARTCHAR 03CD
ENCODING 973
SWIDTH 518 0
DWIDTH 18 0
BBX 17 24 0 0
BITMAP
007C00
007800
00F000
00E000
00C000
018000
000000
000000
3E1800
7F0C00
5F0600
9F0700
8F0300
0F0300
0F0380
0F0380
0F0380
0F0380
0F0300
0F0700
0F0700
0F8600
078C00
03F800
ENDCHAR
STARTCHAR 03CE
ENCODING 974
SWIDTH 720 0
DWIDTH 25 0
BBX 23 24 1 0
BITMAP
000F80
001F00
001E00
001C00
003800
003000
000000
000000
0783E0
1E00F0
3C1078
3C383C
7C3C3C
783C3E
783C3E
F83C3E
F8383E
F8383E
78183E
7C103E
7C183C
3C2C7C
3F66F8
0F83F0
ENDCHAR
STARTCHAR 0401
ENCODING 1025
SWIDTH 662 0
DWIDTH 23 0
BBX 20 30 1 0
BITMAP
030600
078F00
07DF00
078F00
030600
000000
000000
FFFFE0
1F07E0
1F00E0
1F0060
1F0020
1F0420
1F0420
1F0400
1F0400
1F0C00
1F3C00
1FFC00
1F1C00
1F0C00
1F0400
1F0400
1F0410
1F0010
1F0010
1F8030
1F8070
1F83F0
FFFFF0
ENDCHAR
STARTCHAR 0402
ENCODING 1026
SWIDTH 806 0
DWIDTH 28 0
BBX 26 23 1 0
BITMAP
FFFFF000
FFFFF000
C1F07000
C1F03000
81F01000
01F00000
01F00000
01F0F800
01F3FE00
01F7FF00
01F83F00
01F01F80
01F01F80
01F01F80
01F00FC0
01F00FC0
01F00FC0
01F00F80
01F00F80
01F01F80
01F01F00
03F01E00
1FFEFC00
ENDCHAR
STARTCHAR 0403
ENCODING 1027
SWIDTH 633 0
DWIDTH 22 0
BBX 20 31 1 0
BITMAP
003E00
003C00
007800
007000
006000
00C000
000000
000000
FFFFF0
1FFFF0
1F0030
1F0010
1F0010
1F0010
1F0000
1F0000
1F0000
1F0000
1F0000
1F0000
1F0000
1F0000
1F0000
1F0000
1F0000
1F0000
1F0000
1F0000
1F8000
1F8000
FFF000
ENDCHAR
STARTCHAR 0404
ENCODING 1028
SWIDTH 691 0
DWIDTH 24 0
BBX 21 25 1 -1
BITMAP
000008
01FF88
07C0F8
0F8038
1F0018
3F0018
3E0008
7E0008
7E0000
7E0000
FC0000
FFFF00
FFFF00
FC0000
FC0000
7E0000
7E0000
7E0000
3E0000
3F0000
1F0018
0F8030
07E0E0
01FF80
000800
ENDCHAR
STARTCHAR 0405
ENCODING 1029
SWIDTH 547 0
DWIDTH 19 0
BBX 16 24 2 0
BITMAP
1FE4
383C
701C
F00C
F004
F004
F804
FE00
FF80
7FE0
3FF0
1FFC
0FFE
03FE
00FF
803F
801F
800F
C00F
C00E
E00E
F81C
9FF0
0100
ENDCHAR
STARTCHAR 0406
ENCODING 1030
SWIDTH 403 0
DWIDTH 14 0
BBX 12 23 1 0
BITMAP
FFF0
1F80
1F80
1F00
1F00
1F00
1F00
1F00
1F00
1F00
1F00
1F00
1F00
1F00
1F00
1F00
1F00
1F00
1F00
1F00
1F80
1F80
FFF0
ENDCHAR
STARTCHAR 0407
ENCODING 1031
SWIDTH 403 0
DWIDTH 14 0
BBX 12 30 1 0
BITMAP
30C0
79E0
F9E0
79E0
70C0
0000
0000
FFF0
1F80
1F80
1F00
1F00
1F00
1F00
1F00
1F00
1F00
1F00
1F00
1F00
1F00
1F00
1F00
1F00
1F00
1F00
1F00
1F80
1F80
FFF0
ENDCHAR
STARTCHAR 0408
ENCODING 1032
SWIDTH 489 0
DWIDTH 17 0
BBX 17 23 0 -1
BITMAP
07FF80
00FC00
00FC00
00FC00
00FC00
00FC00
00FC00
00FC00
00FC00
00FC00
00FC00
00FC00
00FC00
00FC00
00FC00
00FC00
70FC00
78FC00
F8FC00
F8F800
70F800
30F000
1FE000
ENDCHAR
STARTCHAR 0409
ENCODING 1033
SWIDTH 1008 0
DWIDTH 35 0
BBX 34 23 0 0
BITMAP
03FFFF0000
007FFC0000
0020F80000
0020F80000
0020F80000
0020F80000
0020F80000
0020F80000
0020F80000
0020F80000
0020FF8000
0020FFFC00
0020F87F00
0020F83F80
0060F81F80
0060F81FC0
0040F81FC0
0040F81FC0
70C0F81F80
F080F81F80
F980FC3F00
FF01FC7E00
7E0FFFF800
ENDCHAR
STARTCHAR 040A
ENCODING 1034
SWIDTH 1008 0
DWIDTH 35 0
BBX 33 23 1 0
BITMAP
FFEFFE0000
3F83F80000
1F01F00000
1F01F00000
1F01F00000
1F01F00000
1F01F00000
1F01F00000
1F01F00000
1F01F00000
1FFFFF0000
1FFFFFF800
1F01F0FE00
1F01F07F00
1F01F03F00
1F01F03F80
1F01F03F80
1F01F03F80
1F01F03F00
1F01F03F00
1F81F07E00
1F83F8FC00
FFEFFFF000
ENDCHAR
STARTCHAR 040B
ENCODING 1035
SWIDTH 806 0
DWIDTH 28 0
BBX 26 23 1 0
BITMAP
FFFFC000
FFFFC000
C1F0C000
81F04000
81F04000
01F00000
01F00000
01F1F000
01F3FC00
01F7FE00
01FC7E00
01F03E00
01F03E00
01F03E00
01F03E00
01F03E00
01F03E00
01F03E00
01F03E00
01F03E00
03F03E00
03F03F00
1FFCFFC0
ENDCHAR
STARTCHAR 040C
ENCODING 1036
SWIDTH 720 0
DWIDTH 25 0
BBX 24 31 1 0
BITMAP
000F00
001E00
001C00
001C00
003800
003000
000000
000000
FFF07C
1F80FE
1F819E
1F011E
1F011E
1F0300
1F0300
1F0200
1F0600
1F0400
1FFC00
1FFE00
1F3F00
1F1F80
1F1F80
1F0FC0
1F0FC0
1F07E0
1F03E0
1F03F0
1F81F0
1F81F8
FFF0FF
ENDCHAR
STARTCHAR 040D
ENCODING 1037
SWIDTH 777 0
DWIDTH 27 0
BBX 26 31 1 0
BITMAP
01F00000
00F00000
00780000
00380000
00180000
000C0000
00000000
00000000
FFF7FFC0
1F80FC00
1F80FC00
1F007C00
1F00FC00
1F01FC00
1F01FC00
1F037C00
1F027C00
1F067C00
1F0C7C00
1F087C00
1F187C00
1F307C00
1F307C00
1F607C00
1FC07C00
1FC07C00
1F807C00
1F007C00
1F807C00
1F80FC00
FFF7FFC0
ENDCHAR
STARTCHAR 040E
ENCODING 1038
SWIDTH 720 0
DWIDTH 25 0
BBX 25 31 0 -1
BITMAP
00C03000
01E07800
00F0F800
00FFF000
001F8000
00000000
00000000
FFF07F80
1F800600
0FC00400
0FC00C00
07E00800
07E01800
03F01000
03F03000
01F82000
00F86000
00FC4000
007EC000
007E8000
003F8000
003F0000
001F0000
001E0000
000E0000
070C0000
078C0000
07880000
07D00000
07F00000
00800000
ENDCHAR
STARTCHAR 040F
ENCODING 1039
SWIDTH 777 0
DWIDTH 27 0
BBX 25 30 1 -7
BITMAP
FFF7FF80
1F80FC00
1F80FC00
1F007C00
1F007C00
1F007C00
1F007C00
1F007C00
1F007C00
1F007C00
1F007C00
1F007C00
1F007C00
1F007C00
1F007C00
1F007C00
1F007C00
1F007C00
1F007C00
1F007C00
1F807C00
1FE3FC00
FFFFFF80
007F0000
001C0000
001C0000
00080000
00080000
00080000
00080000
ENDCHAR
STARTCHAR 0410
ENCODING 1040
SWIDTH 720 0
DWIDTH 25 0
BBX 25 23 0 0
BITMAP
00080000
000C0000
001C0000
001E0000
003E0000
003E0000
007F0000
005F0000
00DF8000
009F8000
008FC000
018FC000
0107E000
0307E000
0203E000
07FFF000
0403F000
0C01F800
0801F800
0800FC00
1800FC00
3800FE00
FF03FF80
ENDCHAR
STARTCHAR 0411
ENCODING 1041
SWIDTH 662 0
DWIDTH 23 0
BBX 21 23 1 0
BITMAP
FFFFE0
3FFFE0
1F0060
1F0020
1F0020
1F0020
1F0000
1F0000
1F0000
1F0000
1FF000
1FFFC0
1F0FE0
1F07F0
1F03F0
1F03F8
1F01F8
1F01F8
1F03F8
1F03F0
1F83E0
1F8FC0
FFFF00
ENDCHAR
STARTCHAR 0412
ENCODING 1042
SWIDTH 662 0
DWIDTH 23 0
BBX 21 23 1 0
BITMAP
FFFF00
1F1FC0
1F07E0
1F03E0
1F03F0
1F03F0
1F03F0
1F03F0
1F07E0
1F0FC0
1FFE00
1FFF80
1F07E0
1F03F0
1F03F8
1F01F8
1F01F8
1F01F8
1F01F8
1F03F0
1F03E0
1F8FC0
FFFF00
ENDCHAR
STARTCHAR 0413
ENCODING 1043
SWIDTH 633 0
DWIDTH 22 0
BBX 20 23 1 0
BITMAP
FFFFF0
1FFFF0
1F0030
1F0010
1F0010
1F0010
1F0000
1F0000
1F0000
1F0000
1F0000
1F0000
1F0000
1F0000
1F0000
1F0000
1F0000
1F0000
1F0000
1F0000
1F8000
1F8000
FFF000
ENDCHAR
STARTCHAR 0414
ENCODING 1044
SWIDTH 691 0
DWIDTH 24 0
BBX 23 30 0 -7
BITMAP
0FFFFE
01FFF0
0081F0
0081F0
0081F0
0081F0
0081F0
0081F0
0081F0
0081F0
0181F0
0181F0
0181F0
0101F0
0101F0
0301F0
0301F0
0201F0
0601F0
0401F0
0C01F0
3807F0
FFFFFE
F8003E
E0000E
C00006
C00002
800002
800002
800000
ENDCHAR
STARTCHAR 0415
ENCODING 1045
SWIDTH 662 0
DWIDTH 23 0
BBX 20 23 1 0
BITMAP
FFFFE0
1F07E0
1F00E0
1F0060
1F0020
1F0420
1F0420
1F0400
1F0400
1F0C00
1F3C00
1FFC00
1F1C00
1F0C00
1F0400
1F0400
1F0410
1F0010
1F0010
1F8030
1F8070
1F83F0
FFFFF0
ENDCHAR
STARTCHAR 0416
ENCODING 1046
SWIDTH 979 0
DWIDTH 34 0
BBX 33 23 1 0
BITMAP
7C3FFC3E00
FE07E07F00
F307E04F80
F107E0CF80
F187E08700
0187E08000
0087E18000
0087E18000
00C7E10000
0047E30000
007FFE0000
00FFFF0000
01F7EF8000
03E7E7C000
03E7E7E000
07C7E3E000
07C7E3F000
0F87E1F000
0F87E1F800
1F07E0F800
1F07E0FC00
3E07E07E00
FE3FFC7F80
ENDCHAR
STARTCHAR 0417
ENCODING 1047
SWIDTH 518 0
DWIDTH 18 0
BBX 16 24 1 0
BITMAP
5FF0
70FC
607C
407E
407E
407E
407E
007E
007C
00F8
07E0
0FF0
01FC
007E
007E
003F
003F
003F
003F
007F
C07E
60FC
3FF8
0100
ENDCHAR
STARTCHAR 0418
ENCODING 1048
SWIDTH 777 0
DWIDTH 27 0
BBX 26 23 1 0
BITMAP
FFF7FFC0
1F80FC00
1F80FC00
1F007C00
1F00FC00
1F01FC00
1F01FC00
1F037C00
1F027C00
1F067C00
1F0C7C00
1F087C00
1F187C00
1F307C00
1F307C00
1F607C00
1FC07C00
1FC07C00
1F807C00
1F007C00
1F807C00
1F80FC00
FFF7FFC0
ENDCHAR
STARTCHAR 0419
ENCODING 1049
SWIDTH 777 0
DWIDTH 27 0
BBX 26 30 1 0
BITMAP
0380E000
03C1E000
03C1E000
01FFC000
007F0000
00000000
00000000
FFF7FFC0
1F80FC00
1F80FC00
1F007C00
1F00FC00
1F01FC00
1F01FC00
1F037C00
1F027C00
1F067C00
1F0C7C00
1F087C00
1F187C00
1F307C00
1F307C00
1F607C00
1FC07C00
1FC07C00
1F807C00
1F007C00
1F807C00
1F80FC00
FFF7FFC0
ENDCHAR
STARTCHAR 041A
ENCODING 1050
SWIDTH 720 0
DWIDTH 25 0
BBX 24 23 1 0
BITMAP
FFF07C
1F80FE
1F819E
1F011E
1F011E
1F0300
1F0300
1F0200
1F0600
1F0400
1FFC00
1FFE00
1F3F00
1F1F80
1F1F80
1F0FC0
1F0FC0
1F07E0
1F03E0
1F03F0
1F81F0
1F81F8
FFF0FF
ENDCHAR
STARTCHAR 041B
ENCODING 1051
SWIDTH 748 0
DWIDTH 26 0
BBX 25 23 0 0
BITMAP
03FFFF80
007FFC00
0020FC00
0020FC00
0020FC00
0020FC00
0020FC00
0020FC00
0020FC00
0020FC00
0020FC00
0020FC00
0020FC00
0020FC00
0060FC00
0060FC00
0040FC00
0040FC00
7040FC00
F080FC00
F980FC00
FF00FC00
7E07FF80
ENDCHAR
STARTCHAR 041C
ENCODING 1052
SWIDTH 950 0
DWIDTH 33 0
BBX 31 23 1 0
BITMAP
FF8003FE
1FC007F0
1FC007F0
17E00FF0
17E00BF0
13E00BF0
13F013F0
13F013F0
11F833F0
11F823F0
10FC63F0
10FC43F0
107C43F0
107EC3F0
107E83F0
103F83F0
103F03F0
101F03F0
101E03F0
100E03F0
100E03F0
380C03F0
FF041FFE
ENDCHAR
STARTCHAR 041D
ENCODING 1053
SWIDTH 777 0
DWIDTH 27 0
BBX 25 23 1 0
BITMAP
FFF7FF80
1F80FE00
1F807C00
1F807C00
1F007C00
1F007C00
1F007C00
1F007C00
1F007C00
1F007C00
1FFFFC00
1FFFFC00
1F007C00
1F007C00
1F007C00
1F007C00
1F007C00
1F007C00
1F007C00
1F807C00
1F807C00
1F80FC00
FFF7FF80
ENDCHAR
STARTCHAR 041E
ENCODING 1054
SWIDTH 777 0
DWIDTH 27 0
BBX 25 24 1 -1
BITMAP
01FFC000
03C1F000
0F80F800
1F007C00
1F003E00
3E003E00
7E003F00
7E003F00
7E001F00
7E001F80
FE001F80
FC001F80
FE001F80
7E001F80
7E001F00
7E003F00
7E003F00
3E003E00
3F003E00
1F007C00
0F807800
07C1F000
01FFC000
00080000
ENDCHAR
STARTCHAR 041F
ENCODING 1055
SWIDTH 777 0
DWIDTH 27 0
BBX 25 23 1 0
BITMAP
FFFFFF80
1FFFFC00
1F007C00
1F007C00
1F007C00
1F007C00
1F007C00
1F007C00
1F007C00
1F007C00
1F007C00
1F007C00
1F007C00
1F007C00
1F007C00
1F007C00
1F007C00
1F007C00
1F007C00
1F007C00
1F80FC00
1F80FC00
FFF7FF80
ENDCHAR
STARTCHAR 0420
ENCODING 1056
SWIDTH 604 0
DWIDTH 21 0
BBX 19 23 1 0
BITMAP
FFFC00
1F3F80
1F0FC0
1F07E0
1F07E0
1F07E0
1F03E0
1F07E0
1F07E0
1F07C0
1F0F80
1FFF00
1FC000
1F0000
1F0000
1F0000
1F0000
1F0000
1F0000
1F0000
1F0000
1F8000
FFF000
ENDCHAR
STARTCHAR 0421
ENCODING 1057
SWIDTH 720 0
DWIDTH 25 0
BBX 22 24 1 -1
BITMAP
000004
00FFC4
03F07C
07C03C
0F800C
1F000C
3F0004
3E0004
7E0000
7E0000
7E0000
FE0000
FE0000
FE0000
FE0000
7E0000
7E0000
7E0000
3F0000
3F0004
1F800C
0FC018
07E070
01FFC0
ENDCHAR
STARTCHAR 0422
ENCODING 1058
SWIDTH 662 0
DWIDTH 23 0
BBX 21 23 1 0
BITMAP
FFFFF8
F8F8F8
E0F818
C0F818
80F808
80F808
00F800
00F800
00F800
00F800
00F800
00F800
00F800
00F800
00F800
00F800
00F800
00F800
00F800
00F800
00F800
01FC00
07FF80
ENDCHAR
STARTCHAR 0423
ENCODING 1059
SWIDTH 720 0
DWIDTH 25 0
BBX 25 24 0 -1
BITMAP
FFF07F80
1F800600
0FC00400
0FC00C00
07E00800
07E01800
03F01000
03F03000
01F82000
00F86000
00FC4000
007EC000
007E8000
003F8000
003F0000
001F0000
001E0000
000E0000
070C0000
078C0000
07880000
07D00000
07F00000
00800000
ENDCHAR
STARTCHAR 0424
ENCODING 1060
SWIDTH 864 0
DWIDTH 30 0
BBX 28 23 1 0
BITMAP
00FFF000
001F8000
001F8000
00FFF000
0FFFFE00
1F1F8F80
3E1F87C0
7C1F87E0
7C1F83E0
7C1F83E0
FC1F83F0
FC1F83F0
FC1F83E0
7C1F83E0
7C1F83E0
7C1F87C0
3E1F87C0
1F1F8F80
07FFFE00
001F8000
001F8000
001F8000
00FFF000
ENDCHAR
STARTCHAR 0425
ENCODING 1061
SWIDTH 720 0
DWIDTH 25 0
BBX 25 23 0 0
BITMAP
7FF0FF00
1FC03C00
1FC03800
0FE03000
07E06000
07F0C000
03F88000
01F90000
01FF0000
00FE0000
007E0000
007F0000
003F8000
003F8000
006FC000
00CFE000
0187E000
0303F000
0203F800
0601F800
0C00FC00
1C00FE00
FF83FF80
ENDCHAR
STARTCHAR 0426
ENCODING 1062
SWIDTH 777 0
DWIDTH 27 0
BBX 25 30 1 -7
BITMAP
FFF7FF80
1F80FC00
1F80FC00
1F007C00
1F007C00
1F007C00
1F007C00
1F007C00
1F007C00
1F007C00
1F007C00
1F007C00
1F007C00
1F007C00
1F007C00
1F007C00
1F007C00
1F007C00
1F007C00
1F007C00
1F807C00
1FE3FC00
FFFFFF80
00000F80
00000380
00000180
00000180
00000080
00000080
00000080
ENDCHAR
STARTCHAR 0427
ENCODING 1063
SWIDTH 720 0
DWIDTH 25 0
BBX 25 23 0 0
BITMAP
FFE3FF80
1F80FC00
1F80FC00
1F80FC00
1F80FC00
1F80FC00
1F80FC00
1F80FC00
1F80FC00
1F80FC00
1F80FC00
0FC1FC00
0FFFFC00
07FCFC00
0000FC00
0000FC00
0000FC00
0000FC00
0000FC00
0000FC00
0000FC00
0000FC00
0007FF80
ENDCHAR
STARTCHAR 0428
ENCODING 1064
SWIDTH 1094 0
DWIDTH 38 0
BBX 36 23 1 0
BITMAP
FFE7FE7FF0
1F81F81FC0
1F81F80F80
1F01F80F80
1F01F80F80
1F01F80F80
1F01F80F80
1F01F80F80
1F01F80F80
1F01F80F80
1F01F80F80
1F01F80F80
1F01F80F80
1F01F80F80
1F01F80F80
1F01F80F80
1F01F80F80
1F01F80F80
1F01F80F80
1F01F80F80
1F81F80F80
1FE7FE3F80
FFFFFFFFF0
ENDCHAR
STARTCHAR 0429
ENCODING 1065
SWIDTH 1094 0
DWIDTH 38 0
BBX 36 30 1 -7
BITMAP
FFE7FE7FF0
1F81F81FC0
1F81F80F80
1F01F80F80
1F01F80F80
1F01F80F80
1F01F80F80
1F01F80F80
1F01F80F80
1F01F80F80
1F01F80F80
1F01F80F80
1F01F80F80
1F01F80F80
1F01F80F80
1F01F80F80
1F01F80F80
1F01F80F80
1F01F80F80
1F01F80F80
1F81F80F80
1FE7FE3F80
FFFFFFFFF0
00000003F0
00000000F0
0000000070
0000000030
0000000030
0000000010
0000000010
ENDCHAR
STARTCHAR 042A
ENCODING 1066
SWIDTH 777 0
DWIDTH 27 0
BBX 24 23 1 0
BITMAP
FFFE00
FFF000
E1F000
C1F000
81F000
81F000
01F000
01F000
01F000
01F000
01FE00
01FFF8
01F0FE
01F07F
01F03F
01F03F
01F03F
01F03F
01F03F
01F03F
03F07E
03F8FC
1FFFF0
ENDCHAR
STARTCHAR 042B
ENCODING 1067
SWIDTH 979 0
DWIDTH 34 0
BBX 32 23 1 0
BITMAP
FFF00FFF
1F8001FC
1F8000F8
1F0000F8
1F0000F8
1F0000F8
1F0000F8
1F0000F8
1F0000F8
1F0000F8
1FF000F8
1FFFC0F8
1F0FE0F8
1F07F0F8
1F03F0F8
1F03F8F8
1F01F8F8
1F01F8F8
1F01F8F8
1F83F0F8
1F83E0F8
1F8FC1FC
FFFF0FFF
ENDCHAR
STARTCHAR 042C
ENCODING 1068
SWIDTH 662 0
DWIDTH 23 0
BBX 21 23 1 0
BITMAP
FFF000
1F8000
1F8000
1F0000
1F0000
1F0000
1F0000
1F0000
1F0000
1F0000
1FF000
1FFFC0
1F0FE0
1F07F0
1F03F0
1F03F8
1F01F8
1F01F8
1F03F8
1F03F0
1F83E0
1F8FC0
FFFF00
ENDCHAR
STARTCHAR 042D
ENCODING 1069
SWIDTH 691 0
DWIDTH 24 0
BBX 20 24 2 0
BITMAP
8FF800
F83E00
E00F00
C00F80
8007C0
8007E0
8003E0
0003F0
0003F0
0003F0
07FFF0
07FFF0
0003F0
0003F0
0003F0
0003F0
0003E0
0007E0
0007C0
800FC0
401F80
303E00
1FFC00
008000
ENDCHAR
STARTCHAR 042E
ENCODING 1070
SWIDTH 1123 0
DWIDTH 39 0
BBX 37 24 1 0
BITMAP
FFF00FFC00
1F803C1F00
1F00F80F80
1F01F007C0
1F01F003E0
1F03E003E0
1F07E003F0
1F07E003F0
1F07E001F8
1F07E001F8
1FFFE001F8
1FFFE001F8
1F0FE001F8
1F07E001F8
1F07E001F0
1F07E003F0
1F07E003F0
1F03E003E0
1F03F003E0
1F01F007C0
1F80F80780
1F807C1F00
FFF01FFC00
0000008000
ENDCHAR
STARTCHAR 042F
ENCODING 1071
SWIDTH 720 0
DWIDTH 25 0
BBX 24 23 0 0
BITMAP
00FFFF
03F0FC
07C0F8
0F80F8
0F80F8
1F80F8
1F80F8
1F80F8
0F80F8
0FC0F8
07E0F8
01FFF8
00FFF8
01FCF8
01F8F8
03F0F8
07F0F8
07E0F8
0FC0F8
1F80F8
3F80F8
3F01FC
FE07FF
ENDCHAR
STARTCHAR 0430
ENCODING 1072
SWIDTH 489 0
DWIDTH 17 0
BBX 14 16 2 0
BITMAP
1FC0
71F0
F0F0
F0F8
F8F8
F0F8
01F8
06F8
1CF8
38F8
70F8
F0F8
F0F8
FFF8
FEFC
7878
ENDCHAR
STARTCHAR 0431
ENCODING 1073
SWIDTH 489 0
DWIDTH 17 0
BBX 15 24 1 0
BITMAP
0002
03FE
0FFC
1FF8
1FF0
3800
3000
6000
47E0
5C70
7C38
FC3C
F83E
F83E
F83E
F83E
F83E
F83E
783E
783E
783C
3C3C
1C78
0FF0
ENDCHAR
STARTCHAR 0432
ENCODING 1074
SWIDTH 547 0
DWIDTH 19 0
BBX 16 16 1 0
BITMAP
FFF0
3E7C
3E3E
3E1E
3E1E
3E1E
3E3C
3FF0
3E7E
3E1F
3E0F
3E0F
3E0F
3E1F
3E3E
FFF8
ENDCHAR
STARTCHAR 0433
ENCODING 1075
SWIDTH 460 0
DWIDTH 16 0
BBX 14 16 1 0
BITMAP
FFFC
3E0C
3E04
3E04
3E00
3E00
3E00
3E00
3E00
3E00
3E00
3E00
3E00
3E00
3E00
FF80
ENDCHAR
STARTCHAR 0434
ENCODING 1076
SWIDTH 518 0
DWIDTH 18 0
BBX 16 20 0 -4
BITMAP
1FFF
0C3E
0C3E
0C3E
0C3E
0C3E
0C3E
083E
083E
083E
083E
183E
103E
103E
207E
FFFF
E007
C001
8001
8001
ENDCHAR
STARTCHAR 0435
ENCODING 1077
SWIDTH 432 0
DWIDTH 15 0
BBX 14 16 1 0
BITMAP
0FC0
1C70
3870
7878
7878
7878
FFFC
FFFC
F800
F800
7C00
7C00
7E08
3F18
3FF0
0FE0
ENDCHAR
STARTCHAR 0436
ENCODING 1078
SWIDTH 720 0
DWIDTH 25 0
BBX 25 16 0 0
BITMAP
38FF8F00
7C3E1F00
763E1780
723E2700
223E2300
033E2000
013E4000
01FFC000
07FFF000
0FBEF800
0F3E7800
1F3E7C00
1E3E3C00
3E3E3E00
3C3E1E00
FCFF9F80
ENDCHAR
STARTCHAR 0437
ENCODING 1079
SWIDTH 403 0
DWIDTH 14 0
BBX 12 16 1 0
BITMAP
FF80
C3E0
C1E0
81E0
81E0
01E0
03C0
0F00
07C0
01E0
01F0
01F0
01F0
81F0
E7E0
3FC0
ENDCHAR
STARTCHAR 0438
ENCODING 1080
SWIDTH 576 0
DWIDTH 20 0
BBX 18 16 1 0
BITMAP
FF3FC0
3E1F00
3E1F00
3E1F00
3E3F00
3E3F00
3E7F00
3E5F00
3E9F00
3E9F00
3F1F00
3F1F00
3E1F00
3E1F00
3E1F00
FF3FC0
ENDCHAR
STARTCHAR 0439
ENCODING 1081
SWIDTH 576 0
DWIDTH 20 0
BBX 18 23 1 0
BITMAP
1C0E00
1C0E00
1E1E00
0F3C00
01E000
000000
000000
FF3FC0
3E1F00
3E1F00
3E1F00
3E3F00
3E3F00
3E7F00
3E5F00
3E9F00
3E9F00
3F1F00
3F1F00
3E1F00
3E1F00
3E1F00
FF3FC0
ENDCHAR
STARTCHAR 043A
ENCODING 1082
SWIDTH 576 0
DWIDTH 20 0
BBX 19 16 1 0
BITMAP
FF0780
3E0FC0
3E1BC0
3E13C0
3E11C0
3E2000
3E6000
3FE000
3EF800
3EFC00
3E7C00
3E3E00
3E3F00
3E1F00
3E0F80
FF0FE0
ENDCHAR
STARTCHAR 043B
ENCODING 1083
SWIDTH 547 0
DWIDTH 19 0
BBX 18 16 0 0
BITMAP
0FFFC0
020F80
020F80
020F80
020F80
020F80
020F80
020F80
020F80
020F80
020F80
620F80
F20F80
F20F80
FC0F80
783FC0
ENDCHAR
STARTCHAR 043C
ENCODING 1084
SWIDTH 691 0
DWIDTH 24 0
BBX 21 16 1 0
BITMAP
FE01F8
3E03F0
3F03F0
3F03F0
2F85F0
2F85F0
2789F0
27C9F0
27D1F0
23F1F0
23F1F0
21E1F0
21E1F0
21C1F0
20C1F0
F8C7F8
ENDCHAR
STARTCHAR 043D
ENCODING 1085
SWIDTH 576 0
DWIDTH 20 0
BBX 18 16 1 0
BITMAP
FF3FC0
3E1F00
3E1F00
3E1F00
3E1F00
3E1F00
3E1F00
3FFF00
3E1F00
3E1F00
3E1F00
3E1F00
3E1F00
3E1F00
3E1F00
FF3FC0
ENDCHAR
STARTCHAR 043E
ENCODING 1086
SWIDTH 489 0
DWIDTH 17 0
BBX 15 16 1 0
BITMAP
0FE0
1C78
3C38
7C3C
783E
783E
F83E
F83E
F83E
F83E
783E
783E
783C
3C3C
1C78
0FE0
ENDCHAR
STARTCHAR 043F
ENCODING 1087
SWIDTH 576 0
DWIDTH 20 0
BBX 18 16 1 0
BITMAP
FFFFC0
3E1F00
3E1F00
3E1F00
3E1F00
3E1F00
3E1F00
3E1F00
3E1F00
3E1F00
3E1F00
3E1F00
3E1F00
3E1F00
3E1F00
FF3FC0
ENDCHAR
STARTCHAR 0440
ENCODING 1088
SWIDTH 547 0
DWIDTH 19 0
BBX 17 23 1 -7
BITMAP
FCFC00
7DFE00
7E1E00
3E1F00
3C1F00
3C0F80
3C0F80
3C0F80
3C0F80
3C0F80
3C0F80
3C0F00
3C1F00
3E1F00
3F3E00
3DFC00
3C0000
3C0000
3C0000
3C0000
3C0000
7C0000
FF0000
ENDCHAR
STARTCHAR 0441
ENCODING 1089
SWIDTH 432 0
DWIDTH 15 0
BBX 14 16 1 0
BITMAP
0FE0
1CF0
3878
3878
7878
7830
7800
F800
F800
F800
7C00
7C00
7E04
3F18
1FF0
0FE0
ENDCHAR
STARTCHAR 0442
ENCODING 1090
SWIDTH 489 0
DWIDTH 17 0
BBX 15 16 1 0
BITMAP
FFFE
C7C6
87C2
87C2
07C0
07C0
07C0
07C0
07C0
07C0
07C0
07C0
07C0
07C0
07C0
1FF0
ENDCHAR
STARTCHAR 0443
ENCODING 1091
SWIDTH 489 0
DWIDTH 17 0
BBX 17 23 0 -7
BITMAP
FF8F80
7E0700
3E0200
1F0600
1F0400
0F8400
0F8800
0F8800
07C800
07D000
03F000
03F000
01E000
01E000
01C000
00C000
00C000
008000
008000
790000
790000
7A0000
3E0000
ENDCHAR
STARTCHAR 0444
ENCODING 1092
SWIDTH 691 0
DWIDTH 24 0
BBX 22 30 1 -7
BITMAP
01F800
00F800
007800
007800
007800
007800
007800
1F7BE0
3FFFF0
3C78F0
7C78F8
787878
787878
F8787C
F8787C
F8787C
F8787C
787878
787878
7C78F8
3C78F0
3EFDF0
1F7BE0
007800
007800
007800
007800
007800
007C00
01FE00
ENDCHAR
STARTCHAR 0445
ENCODING 1093
SWIDTH 489 0
DWIDTH 17 0
BBX 16 16 1 0
BITMAP
FFBE
7E18
3E10
1F20
1F60
0FC0
0FC0
07C0
07E0
03E0
07F0
05F0
08F8
18F8
30FC
FDFF
ENDCHAR
STARTCHAR 0446
ENCODING 1094
SWIDTH 576 0
DWIDTH 20 0
BBX 18 20 1 -4
BITMAP
FF3FC0
3E1F00
3E1F00
3E1F00
3E1F00
3E1F00
3E1F00
3E1F00
3E1F00
3E1F00
3E1F00
3E1F00
3E1F00
3E1F00
3E1F00
FFFFC0
0001C0
0000C0
000040
000040
ENDCHAR
STARTCHAR 0447
ENCODING 1095
SWIDTH 576 0
DWIDTH 20 0
BBX 17 16 1 0
BITMAP
FF7F80
7E1F00
3C1F00
3C1F00
3C1F00
3C1F00
3C1F00
3E1F00
3FFF00
0E1F00
001F00
001F00
001F00
001F00
001F00
007F80
ENDCHAR
STARTCHAR 0448
ENCODING 1096
SWIDTH 835 0
DWIDTH 29 0
BBX 27 16 1 0
BITMAP
FF3F9FE0
3E1F0FC0
3E1F0780
3E1F0780
3E1F0780
3E1F0780
3E1F0780
3E1F0780
3E1F0780
3E1F0780
3E1F0780
3E1F0780
3E1F0780
3E1F0780
3E1F0FC0
FFFFFFE0
ENDCHAR
STARTCHAR 0449
ENCODING 1097
SWIDTH 835 0
DWIDTH 29 0
BBX 27 20 1 -4
BITMAP
FF3F9FE0
3E1F0FC0
3E1F0780
3E1F0780
3E1F0780
3E1F0780
3E1F0780
3E1F0780
3E1F0780
3E1F0780
3E1F0780
3E1F0780
3E1F0780
3E1F0780
3E1F0FC0
FFFFFFE0
000000E0
00000060
00000020
00000020
ENDCHAR
STARTCHAR 044A
ENCODING 1098
SWIDTH 576 0
DWIDTH 20 0
BBX 18 16 1 0
BITMAP
FFC000
CF8000
8F8000
8F8000
0F8000
0F8000
0F8000
0FF800
0FBF00
0F8F80
0F87C0
0F87C0
0F87C0
0F87C0
0F8F80
3FFE00
ENDCHAR
STARTCHAR 044B
ENCODING 1099
SWIDTH 777 0
DWIDTH 27 0
BBX 25 16 1 0
BITMAP
FF007F80
3E003F00
3E003E00
3E003E00
3E003E00
3E003E00
3E003E00
3FE03E00
3EFC3E00
3E1F3E00
3E1F3E00
3E1F3E00
3E1F3E00
3E1F3E00
3E3E3E00
FFF87F80
ENDCHAR
STARTCHAR 044C
ENCODING 1100
SWIDTH 518 0
DWIDTH 18 0
BBX 16 16 1 0
BITMAP
FF00
3E00
3E00
3E00
3E00
3E00
3E00
3FE0
3EFC
3E1F
3E1F
3E1F
3E1F
3E1F
3E3E
FFF8
ENDCHAR
STARTCHAR 044D
ENCODING 1101
SWIDTH 432 0
DWIDTH 15 0
BBX 13 16 1 0
BITMAP
FF80
E3C0
C1E0
80F0
80F0
00F0
00F8
0FF8
00F8
00F8
00F8
00F0
01F0
81E0
43C0
3F80
ENDCHAR
STARTCHAR 044E
ENCODING 1102
SWIDTH 777 0
DWIDTH 27 0
BBX 24 16 1 0
BITMAP
FF07F0
3E0E3C
3E1E1E
3E1E1E
3E3E1F
3E3C1F
3E3C1F
3FFC1F
3E7C1F
3E3C1F
3E3C1F
3E3E1F
3E3E1E
3E1E1E
3E0E3C
FF07F8
ENDCHAR
STARTCHAR 044F
ENCODING 1103
SWIDTH 547 0
DWIDTH 19 0
BBX 16 16 1 0
BITMAP
1FFF
3E3E
7C3E
7C3E
F83E
7C3E
7C3E
3F3E
0FFE
0F3E
1F3E
1F3E
1E3E
3E3E
3C3E
FCFF
ENDCHAR
STARTCHAR 0451
ENCODING 1105
SWIDTH 432 0
DWIDTH 15 0
BBX 14 23 1 0
BITMAP
3C70
3CF8
3CF8
3C70
0000
0000
0000
0FC0
1C70
3870
7878
7878
7878
FFFC
FFFC
F800
F800
7C00
7C00
7E08
3F18
3FF0
0FE0
ENDCHAR
STARTCHAR 0452
ENCODING 1106
SWIDTH 547 0
DWIDTH 19 0
BBX 16 30 1 -7
BITMAP
FE00
3E00
3E00
FFF8
3E00
3E00
3E00
3EF8
3FFC
3E1E
3E1E
3E1E
3E1F
3E1F
3E1F
3E1F
3E1F
3E1F
3E1F
3E1F
3E1F
3E1E
FF1E
001E
001E
003C
003C
0038
0070
00C0
ENDCHAR
STARTCHAR 0453
ENCODING 1107
SWIDTH 460 0
DWIDTH 16 0
BBX 14 24 1 0
BITMAP
01F0
03E0
03C0
0380
0700
0600
0000
0000
FFFC
3E0C
3E04
3E04
3E00
3E00
3E00
3E00
3E00
3E00
3E00
3E00
3E00
3E00
3E00
FF80
ENDCHAR
STARTCHAR 0454
ENCODING 1108
SWIDTH 432 0
DWIDTH 15 0
BBX 13 16 1 0
BITMAP
0FF8
1E38
3C18
7808
7808
7800
F800
FF80
F800
F800
F800
7800
7C00
3C08
1E10
0FE0
ENDCHAR
STARTCHAR 0455
ENCODING 1109
SWIDTH 403 0
DWIDTH 14 0
BBX 11 16 1 0
BITMAP
3F40
71C0
70C0
F040
F840
FE00
7F00
7FC0
3FC0
0FE0
07E0
43E0
41E0
60E0
71C0
7F80
ENDCHAR
STARTCHAR 0456
ENCODING 1110
SWIDTH 288 0
DWIDTH 10 0
BBX 8 23 1 1
BITMAP
3C
7E
7E
3C
18
00
00
FC
7C
3C
3C
3C
3C
3C
3C
3C
3C
3C
3C
3C
3C
7E
FF
ENDCHAR
STARTCHAR 0457
ENCODING 1111
SWIDTH 288 0
DWIDTH 10 0
BBX 11 23 -1 0
BITMAP
71E0
F9E0
F9E0
71E0
0000
0000
0000
3F00
1F00
0F00
0F00
0F00
0F00
0F00
0F00
0F00
0F00
0F00
0F00
0F00
0F00
1F80
3FC0
ENDCHAR
STARTCHAR 0458
ENCODING 1112
SWIDTH 345 0
DWIDTH 12 0
BBX 10 30 -1 -6
BITMAP
0780
07C0
0FC0
0780
0300
0000
0000
1F80
0F80
0780
0780
0780
0780
0780
0780
0780
0780
0780
0780
0780
0780
0780
0780
0780
0780
0780
E780
E780
E700
7E00
ENDCHAR
STARTCHAR 0459
ENCODING 1113
SWIDTH 777 0
DWIDTH 27 0
BBX 26 16 0 0
BITMAP
0FFFC000
020F8000
020F0000
020F0000
020F0000
020F0000
020F0000
020FF800
020F3F00
020F0F80
020F07C0
620F07C0
F20F07C0
F20F07C0
FC1F9F80
783FFE00
ENDCHAR
STARTCHAR 045A
ENCODING 1114
SWIDTH 806 0
DWIDTH 28 0
BBX 26 16 1 0
BITMAP
FF3FC000
3E1F0000
3E1F0000
3E1F0000
3E1F0000
3E1F0000
3E1F0000
3FFFF000
3E1F3F00
3E1F0F80
3E1F0F80
3E1F07C0
3E1F07C0
3E1F0F80
3E1F1F00
FF3FFC00
ENDCHAR
STARTCHAR 045B
ENCODING 1115
SWIDTH 547 0
DWIDTH 19 0
BBX 17 23 1 0
BITMAP
FE0000
3E0000
3E0000
FFF800
3E0000
3E0000
3E0000
3E7C00
3FFE00
3F1E00
3E1F00
3E1F00
3E1F00
3E1F00
3E1F00
3E1F00
3E1F00
3E1F00
3E1F00
3E1F00
3E1F00
3E1F00
FF7F80
ENDCHAR
STARTCHAR 045C
ENCODING 1116
SWIDTH 576 0
DWIDTH 20 0
BBX 19 24 1 0
BITMAP
007C00
007800
00F000
00E000
00C000
018000
000000
000000
FF0780
3E0FC0
3E1BC0
3E13C0
3E11C0
3E2000
3E6000
3FE000
3EF800
3EFC00
3E7C00
3E3E00
3E3F00
3E1F00
3E0F80
FF0FE0
ENDCHAR
STARTCHAR 045D
ENCODING 1117
SWIDTH 576 0
DWIDTH 20 0
BBX 18 24 1 0
BITMAP
0F8000
078000
078000
03C000
01C000
00C000
000000
000000
FF3FC0
3E1F00
3E1F00
3E1F00
3E3F00
3E3F00
3E7F00
3E5F00
3E9F00
3E9F00
3F1F00
3F1F00
3E1F00
3E1F00
3E1F00
FF3FC0
ENDCHAR
STARTCHAR 045E
ENCODING 1118
SWIDTH 489 0
DWIDTH 17 0
BBX 17 30 0 -7
BITMAP
0C0E00
1E0E00
1E1E00
0F3C00
01E000
000000
000000
FF8F80
7E0700
3E0200
1F0600
1F0400
0F8400
0F8800
0F8800
07C800
07D000
03F000
03F000
01E000
01E000
01C000
00C000
00C000
008000
008000
790000
790000
7A0000
3E0000
ENDCHAR
STARTCHAR 045F
ENCODING 1119
SWIDTH 576 0
DWIDTH 20 0
BBX 18 20 1 -4
BITMAP
FF3FC0
3E1F00
3E1F00
3E1F00
3E1F00
3E1F00
3E1F00
3E1F00
3E1F00
3E1F00
3E1F00
3E1F00
3E1F00
3E1F00
3E1F00
FFFFC0
01E000
00C000
008000
008000
ENDCHAR
STARTCHAR 0490
ENCODING 1168
SWIDTH 518 0
DWIDTH 18 0
BBX 16 27 1 1
BITMAP
0001
0001
0001
0003
FFFF
1FFF
1F00
1F00
1F00
1F00
1F00
1F00
1F00
1F00
1F00
1F00
1F00
1F00
1F00
1F00
1F00
1F00
1F00
1F00
1F80
1F80
FFF0
ENDCHAR
STARTCHAR 0491
ENCODING 1169
SWIDTH 403 0
DWIDTH 14 0
BBX 12 19 1 0
BITMAP
0010
0010
0030
FFF0
3E00
3E00
3E00
3E00
3E00
3E00
3E00
3E00
3E00
3E00
3E00
3E00
3E00
3E00
FF00
ENDCHAR
STARTCHAR 0492
ENCODING 1170
SWIDTH 633 0
DWIDTH 22 0
BBX 20 23 1 0
BITMAP
FFFFF0
1FFFF0
1F0030
1F0010
1F0010
1F0010
1F0000
1F0000
1F0000
1F0000
FFF800
FFF800
1F0000
1F0000
1F0000
1F0000
1F0000
1F0000
1F0000
1F0000
1F8000
1F8000
FFF000
ENDCHAR
STARTCHAR 0493
ENCODING 1171
SWIDTH 460 0
DWIDTH 16 0
BBX 14 16 1 0
BITMAP
FFFC
3E0C
3E04
3E04
3E00
3E00
3E00
FFC0
3E00
3E00
3E00
3E00
3E00
3E00
3E00
FF80
ENDCHAR
STARTCHAR 0496
ENCODING 1174
SWIDTH 979 0
DWIDTH 34 0
BBX 33 30 1 -7
BITMAP
7C3FFC3F00
FE07E07F00
F307E04F80
F307E0CF80
F107E08700
0187E08000
0187E18000
0087E18000
00C7E10000
0047E30000
007FFE0000
00FFFF0000
01F7EF8000
03E7E7C000
03E7E7E000
07C7E3E000
07C7E3F000
0F87E1F000
0F87E1F800
1F07E0F800
1F07E0FC00
3E07E07E00
FE3FFC7F80
0000000F80
0000000380
0000000180
0000000180
0000000080
0000000080
0000000080
ENDCHAR
STARTCHAR 0497
ENCODING 1175
SWIDTH 720 0
DWIDTH 25 0
BBX 25 20 0 -4
BITMAP
38FF8F00
7C3E1F00
763E1780
723E2700
623E2300
033E2000
013E4000
01FFC000
07FFF000
0FBEF800
0F3E7800
1F3E7C00
1E3E3C00
3E3E3E00
3C3E1E00
FCFF9F80
00000380
00000180
00000080
00000080
ENDCHAR
STARTCHAR 049A
ENCODING 1178
SWIDTH 720 0
DWIDTH 25 0
BBX 24 30 1 -7
BITMAP
FFF07C
1F80FE
1F819E
1F019E
1F011E
1F0300
1F0300
1F0200
1F0600
1F0400
1FFC00
1FFE00
1F3F00
1F1F80
1F1F80
1F0FC0
1F0FC0
1F07E0
1F03E0
1F03F0
1F81F0
1F81F8
FFF0FF
00001F
00000F
000007
000003
000003
000001
000001
ENDCHAR
STARTCHAR 049B
ENCODING 1179
SWIDTH 576 0
DWIDTH 20 0
BBX 19 20 1 -4
BITMAP
FF0780
3E0FC0
3E1BC0
3E13C0
3E1180
3E2000
3E6000
3FE000
3EF800
3EFC00
3E7C00
3E3E00
3E3F00
3E1F00
3E0F80
FF0FE0
0001E0
000060
000060
000020
ENDCHAR
STARTCHAR 049C
ENCODING 1180
SWIDTH 720 0
DWIDTH 25 0
BBX 24 23 1 0
BITMAP
FFF07C
1F80FE
1F819E
1F019E
1F111E
1F1300
1F1300
1F1200
1F1600
1F1400
1FFC00
1FFE00
1F3F00
1F1F80
1F1F80
1F1FC0
1F1FC0
1F17E0
1F17E0
1F13F0
1F81F0
1F81F8
FFF0FF
ENDCHAR
STARTCHAR 049D
ENCODING 1181
SWIDTH 576 0
DWIDTH 20 0
BBX 19 16 1 0
BITMAP
FF0780
3E0FC0
3E1BC0
3E93C0
3E9180
3EA000
3EE000
3FE000
3EF800
3EFC00
3EFC00
3EBE00
3EBF00
3E1F00
3E0F80
FF0FE0
ENDCHAR
STARTCHAR 04A2
ENCODING 1186
SWIDTH 777 0
DWIDTH 27 0
BBX 25 29 1 -7
BITMAP
FFF7FF80
1F80FE00
1F807C00
1F807C00
1F007C00
1F007C00
1F007C00
1F007C00
1F007C00
1F007C00
1FFFFC00
1FFFFC00
1F007C00
1F007C00
1F007C00
1F007C00
1F007C00
1F007C00
1F007C00
1F807C00
1F807C00
1F80FE00
FFF7FF80
00000F80
00000380
00000180
00000080
00000080
00000080
ENDCHAR
STARTCHAR 04A3
ENCODING 1187
SWIDTH 576 0
DWIDTH 20 0
BBX 18 20 1 -4
BITMAP
FF3FC0
3E1F00
3E1F00
3E1F00
3E1F00
3E1F00
3E1F00
3FFF00
3E1F00
3E1F00
3E1F00
3E1F00
3E1F00
3E1F00
3E1F00
FF3FC0
0001C0
0000C0
000040
000040
ENDCHAR
STARTCHAR 04AE
ENCODING 1198
SWIDTH 720 0
DWIDTH 25 0
BBX 25 23 0 0
BITMAP
FFE03F80
3F800E00
1F800C00
0FC00800
0FC01800
07E01000
07E02000
03F06000
03F84000
01F8C000
00FC8000
00FD0000
007F0000
007E0000
003E0000
003E0000
003E0000
003E0000
003E0000
003E0000
003E0000
007F0000
03FFE000
ENDCHAR
STARTCHAR 04AF
ENCODING 1199
SWIDTH 489 0
DWIDTH 17 0
BBX 17 23 0 -7
BITMAP
FF8F80
3E0700
3E0200
1F0600
1F0400
1F0400
0F8C00
0F8800
0F8800
07C800
07D000
07D000
03F000
03E000
03E000
03E000
03E000
03E000
03E000
03E000
03E000
03E000
07F800
ENDCHAR
STARTCHAR 04B0
ENCODING 1200
SWIDTH 720 0
DWIDTH 25 0
BBX 25 23 0 0
BITMAP
FFE03F80
3F800E00
1F800C00
0FC00800
0FC01800
07E01000
07E02000
03F06000
03F84000
01F8C000
00FC8000
00FD0000
007F0000
007E0000
003E0000
0FFFF800
003E0000
003E0000
003E0000
003E0000
003E0000
007F0000
03FFE000
ENDCHAR
STARTCHAR 04B1
ENCODING 1201
SWIDTH 489 0
DWIDTH 17 0
BBX 17 23 0 -7
BITMAP
FF8F80
3E0700
3E0200
1F0600
1F0400
1F0400
0F8C00
0F8800
0F8800
07C800
07D000
07D000
03F000
03E000
03E000
FFFF80
03E000
03E000
03E000
03E000
03E000
03E000
07F800
ENDCHAR
STARTCHAR 04B2
ENCODING 1202
SWIDTH 720 0
DWIDTH 25 0
BBX 25 30 0 -7
BITMAP
7FF0FF00
1FC03C00
1FC03800
0FE03000
07E06000
07F0C000
03F88000
01F90000
01FF0000
00FE0000
007E0000
007F0000
003F8000
003F8000
006FC000
00CFE000
0187E000
0303F000
0203F800
0601F800
0C00FC00
1C00FE00
FF83FF80
00000F80
00000780
00000380
00000180
00000080
00000080
00000080
ENDCHAR
STARTCHAR 04B3
ENCODING 1203
SWIDTH 489 0
DWIDTH 17 0
BBX 16 20 1 -4
BITMAP
FFBE
7E18
3E10
1F20
1F60
0FC0
0FC0
07C0
07E0
03E0
07F0
05F0
08F8
18F8
30FC
FDFF
0007
0003
0001
0001
ENDCHAR
STARTCHAR 04B8
ENCODING 1208
SWIDTH 720 0
DWIDTH 25 0
BBX 25 23 0 0
BITMAP
FFE3FF80
1F80FC00
1F80FC00
1F80FC00
1F88FC00
1F88FC00
1F88FC00
1F88FC00
1F88FC00
1F88FC00
1F88FC00
0FC9FC00
0FFFFC00
07FCFC00
0008FC00
0008FC00
0008FC00
0008FC00
0000FC00
0000FC00
0000FC00
0000FC00
0007FF80
ENDCHAR
STARTCHAR 04B9
ENCODING 1209
SWIDTH 576 0
DWIDTH 20 0
BBX 17 16 1 0
BITMAP
FF7F80
7E1F00
3C1F00
3C1F00
3C9F00
3C9F00
3C9F00
3E9F00
3FFF00
0E9F00
009F00
009F00
001F00
001F00
001F00
007F80
ENDCHAR
STARTCHAR 04BA
ENCODING 1210
SWIDTH 720 0
DWIDTH 25 0
BBX 24 23 1 0
BITMAP
FFF000
1F8000
1F0000
1F0000
1F0000
1F0000
1F0000
1F0000
1F0000
1F1FF0
1F7FF0
1FC1F8
1F01F8
1F00F8
1F00F8
1F00F8
1F00F8
1F00F8
1F00F8
1F00F8
1F00F8
1F81FC
FFE7FF
ENDCHAR
STARTCHAR 04BB
ENCODING 1211
SWIDTH 547 0
DWIDTH 19 0
BBX 17 23 1 0
BITMAP
FE0000
3E0000
3E0000
3E0000
3E0000
3E0000
3E0000
3E7C00
3FFE00
3F3E00
3E1E00
3E1F00
3E1F00
3E1F00
3E1F00
3E1F00
3E1F00
3E1F00
3E1F00
3E1F00
3E1F00
3E1F00
FF7F80
ENDCHAR
STARTCHAR 04D8
ENCODING 1240
SWIDTH 748 0
DWIDTH 26 0
BBX 23 25 1 -1
BITMAP
100000
11FF80
1F07E0
1C01F0
1800F8
1800F8
10007C
10007E
00007E
00007E
00007E
FFFFFE
FFFFFE
FE007E
FE007E
7E007E
7E007E
7E007E
3E007C
3E00F8
1E00F8
0F01F0
0783E0
03FF80
001000
ENDCHAR
STARTCHAR 04D9
ENCODING 1241
SWIDTH 432 0
DWIDTH 15 0
BBX 13 16 1 0
BITMAP
1FC0
3FE0
67F0
41F0
80F8
00F8
00F8
0078
0078
FFF8
F078
F078
7070
78F0
38E0
1FC0
ENDCHAR
STARTCHAR 04E8
ENCODING 1256
SWIDTH 777 0
DWIDTH 27 0
BBX 25 24 1 -1
BITMAP
00FFC000
03C1F000
0F80F800
1F007C00
1F003E00
3E003E00
7E003F00
7E003F00
7E001F00
7E001F80
FFFFFF80
FFFFFF80
FE001F80
7E001F80
7E001F00
7E003F00
7E003F00
3E003E00
3F003E00
1F007C00
0F80F800
07C1F000
01FFC000
00080000
ENDCHAR
STARTCHAR 04E9
ENCODING 1257
SWIDTH 489 0
DWIDTH 17 0
BBX 15 16 1 0
BITMAP
0FE0
1C78
3C38
7C3C
783E
783E
F83E
FFFE
F83E
F83E
783E
783E
783C
3C3C
1C78
0FE0
ENDCHAR
STARTCHAR 05B0
ENCODING 1456
SWIDTH 345 0
DWIDTH 12 0
BBX 3 6 4 -7
BITMAP
60
E0
40
00
60
E0
ENDCHAR
STARTCHAR 05B1
ENCODING 1457
SWIDTH 345 0
DWIDTH 12 0
BBX 11 6 0 -7
BITMAP
6660
EEE0
6440
0000
18E0
38E0
ENDCHAR
STARTCHAR 05B2
ENCODING 1458
SWIDTH 345 0
DWIDTH 12 0
BBX 10 6 1 -7
BITMAP
F980
F9C0
0080
0000
01C0
01C0
ENDCHAR
STARTCHAR 05B3
ENCODING 1459
SWIDTH 345 0
DWIDTH 12 0
BBX 11 6 0 -7
BITMAP
FE60
FEE0
1040
1800
3860
10E0
ENDCHAR
STARTCHAR 05B4
ENCODING 1460
SWIDTH 345 0
DWIDTH 12 0
BBX 3 2 4 -4
BITMAP
E0
E0
ENDCHAR
STARTCHAR 05B5
ENCODING 1461
SWIDTH 345 0
DWIDTH 12 0
BBX 7 2 2 -4
BITMAP
EE
6E
ENDCHAR
STARTCHAR 05B6
ENCODING 1462
SWIDTH 345 0
DWIDTH 12 0
BBX 7 6 2 -7
BITMAP
66
EE
44
00
38
38
ENDCHAR
STARTCHAR 05B7
ENCODING 1463
SWIDTH 345 0
DWIDTH 12 0
BBX 7 2 2 -5
BITMAP
FE
FE
ENDCHAR
STARTCHAR 05B8
ENCODING 1464
SWIDTH 345 0
DWIDTH 12 0
BBX 7 5 2 -7
BITMAP
FE
FE
10
18
38
ENDCHAR
STARTCHAR 05B9
ENCODING 1465
SWIDTH 345 0
DWIDTH 12 0
BBX 3 3 4 20
BITMAP
60
E0
40
ENDCHAR
STARTCHAR 05BA
ENCODING 1466
SWIDTH 345 0
DWIDTH 12 0
BBX 3 3 4 20
BITMAP
60
E0
40
ENDCHAR
STARTCHAR 05BB
ENCODING 1467
SWIDTH 345 0
DWIDTH 12 0
BBX 11 6 0 -7
BITMAP
6000
E000
6600
0E00
00E0
00E0
ENDCHAR
STARTCHAR 05BC
ENCODING 1468
SWIDTH 345 0
DWIDTH 12 0
BBX 3 2 4 8
BITMAP
E0
E0
ENDCHAR
STARTCHAR 05BD
ENCODING 1469
SWIDTH 345 0
DWIDTH 12 0
BBX 2 5 5 -7
BITMAP
C0
C0
C0
C0
C0
ENDCHAR
STARTCHAR 05BE
ENCODING 1470
SWIDTH 374 0
DWIDTH 13 0
BBX 9 6 2 12
BITMAP
FF80
FF80
FF80
FF80
FF80
FF80
ENDCHAR
STARTCHAR 05BF
ENCODING 1471
SWIDTH 345 0
DWIDTH 12 0
BBX 7 1 2 21
BITMAP
FE
ENDCHAR
STARTCHAR 05C0
ENCODING 1472
SWIDTH 345 0
DWIDTH 12 0
BBX 4 22 4 -2
BITMAP
F0
F0
F0
F0
F0
F0
F0
F0
F0
F0
F0
F0
F0
F0
F0
F0
F0
F0
F0
F0
F0
F0
ENDCHAR
STARTCHAR 05C1
ENCODING 1473
SWIDTH 345 0
DWIDTH 12 0
BBX 2 2 12 20
BITMAP
C0
C0
ENDCHAR
STARTCHAR 05C2
ENCODING 1474
SWIDTH 345 0
DWIDTH 12 0
BBX 3 3 -3 20
BITMAP
60
E0
40
ENDCHAR
STARTCHAR 05C3
ENCODING 1475
SWIDTH 345 0
DWIDTH 12 0
BBX 6 18 3 0
BITMAP
78
F8
FC
F8
78
00
00
00
00
00
00
00
00
78
F8
FC
FC
78
ENDCHAR
STARTCHAR 05D0
ENCODING 1488
SWIDTH 518 0
DWIDTH 18 0
BBX 16 19 1 -1
BITMAP
2020
607E
707F
F87F
7C7F
7E3F
7F1F
3FC8
1FF8
37F8
73F8
71FC
70FE
787F
7C3F
7E1F
7E0F
7E07
FE06
ENDCHAR
STARTCHAR 05D1
ENCODING 1489
SWIDTH 460 0
DWIDTH 16 0
BBX 14 19 1 0
BITMAP
4000
7FC0
FFF0
FFF0
FFF0
7FF0
3FF0
0030
0010
0010
0010
0010
0010
7FFC
7FFC
FFFC
FFFC
FFFC
FFF8
ENDCHAR
STARTCHAR 05D2
ENCODING 1490
SWIDTH 374 0
DWIDTH 13 0
BBX 11 19 1 0
BITMAP
2000
7F00
7F80
7F80
7F80
3F80
1F00
0300
0100
0100
0180
0380
03C0
7FE0
7CE0
FCE0
FCE0
F860
F840
ENDCHAR
STARTCHAR 05D3
ENCODING 1491
SWIDTH 460 0
DWIDTH 16 0
BBX 14 19 1 0
BITMAP
4000
FFF8
FFFC
FFFC
FFFC
7FFC
3FF8
0070
0040
00C0
00C0
00C0
01C0
01C0
01E0
01E0
01E0
01C0
0180
ENDCHAR
STARTCHAR 05D4
ENCODING 1492
SWIDTH 518 0
DWIDTH 18 0
BBX 16 19 1 0
BITMAP
4000
7FFE
FFFF
FFFF
FFFF
7FFF
3FFE
0004
000C
000C
001C
381C
701C
701C
701C
701C
701C
701C
E018
ENDCHAR
STARTCHAR 05D5
ENCODING 1493
SWIDTH 288 0
DWIDTH 10 0
BBX 8 19 1 0
BITMAP
40
FC
FE
FE
FF
7F
3F
07
07
03
03
03
03
03
03
03
03
03
02
ENDCHAR
STARTCHAR 05D6
ENCODING 1494
SWIDTH 316 0
DWIDTH 11 0
BBX 9 19 1 0
BITMAP
4000
FE00
FF00
FF80
FF80
7F80
3F80
0800
1800
1800
1800
1C00
1C00
1C00
1C00
1C00
1C00
1C00
1800
ENDCHAR
STARTCHAR 05D7
ENCODING 1495
SWIDTH 518 0
DWIDTH 18 0
BBX 15 19 1 0
BITMAP
4000
7FFE
FFFE
FFFE
FFFE
7FFE
3FFE
180C
3008
3018
7018
701C
701C
701C
701C
701C
701C
701C
6018
ENDCHAR
STARTCHAR 05D8
ENCODING 1496
SWIDTH 518 0
DWIDTH 18 0
BBX 16 19 1 0
BITMAP
4000
F81C
FC3E
FE7E
FE7F
FE7F
7E7F
1043
3043
3003
3003
3003
3003
3FFF
3FFE
3FFE
3FFE
1FFE
1FFC
ENDCHAR
STARTCHAR 05D9
ENCODING 1497
SWIDTH 316 0
DWIDTH 11 0
BBX 8 13 1 6
BITMAP
C0
FE
FF
FF
FF
FF
3F
03
01
01
03
06
04
ENDCHAR
STARTCHAR 05DA
ENCODING 1498
SWIDTH 460 0
DWIDTH 16 0
BBX 14 25 1 -6
BITMAP
4000
FFF8
FFFC
FFFC
FFFC
FFFC
7FF8
0030
0030
0030
0030
0030
0030
0030
0030
0030
0038
0038
0038
0038
0038
0038
0030
0030
0020
ENDCHAR
STARTCHAR 05DB
ENCODING 1499
SWIDTH 460 0
DWIDTH 16 0
BBX 13 19 1 0
BITMAP
4000
7F80
FFE0
FFF0
FFF0
7FF8
3FF8
0018
0018
0018
0018
0018
0018
7FF8
7FF8
FFF0
FFF0
FFE0
FF80
ENDCHAR
STARTCHAR 05DC
ENCODING 1500
SWIDTH 432 0
DWIDTH 15 0
BBX 15 26 -1 0
BITMAP
4000
7000
FC00
7C00
3800
1800
1800
1800
3FF8
3FFC
3FFE
3FFE
3FFE
1FFE
000E
0006
0006
000C
001C
0038
0070
00E0
01C0
01C0
01C0
01C0
ENDCHAR
STARTCHAR 05DD
ENCODING 1501
SWIDTH 518 0
DWIDTH 18 0
BBX 15 19 1 0
BITMAP
4000
7FF0
FFFC
FFFC
FFFE
7FFE
3FFE
180E
3006
7006
6006
6006
6006
7FFE
7FFE
7FFE
7FFE
7FFE
7FFE
ENDCHAR
STARTCHAR 05DE
ENCODING 1502
SWIDTH 547 0
DWIDTH 19 0
BBX 16 19 1 0
BITMAP
4000
F830
FC78
FC7C
FCFE
7DFE
3FFF
0F0F
0C07
1803
1803
3001
3001
61FF
61FF
61FF
63FE
63FE
63FE
ENDCHAR
STARTCHAR 05DF
ENCODING 1503
SWIDTH 316 0
DWIDTH 11 0
BBX 9 25 1 -6
BITMAP
4000
FE00
FF00
FF80
FF80
7F80
1F80
0300
0300
0300
0200
0300
0300
0300
0300
0300
0300
0380
0380
0380
0380
0380
0300
0300
0200
ENDCHAR
STARTCHAR 05E0
ENCODING 1504
SWIDTH 316 0
DWIDTH 11 0
BBX 9 19 1 0
BITMAP
6000
7E00
7F00
7F00
7F00
7F00
3F00
0300
0300
0300
0300
0300
0300
7F00
7F00
FF00
FF80
FF80
FF80
ENDCHAR
STARTCHAR 05E1
ENCODING 1505
SWIDTH 489 0
DWIDTH 17 0
BBX 14 19 1 0
BITMAP
4000
7FE0
FFF8
FFF8
FFFC
7FFC
7FFC
301C
600C
600C
6004
600C
700C
7FFC
7FFC
7FF8
3FF8
1FF0
0FE0
ENDCHAR
STARTCHAR 05E2
ENCODING 1506
SWIDTH 518 0
DWIDTH 18 0
BBX 16 20 1 -1
BITMAP
C060
F87C
FE7E
FE7F
FE7F
7E7E
3E1E
1004
180C
1E0C
1E1C
0E18
0218
07F8
7FF8
7FF8
FFF8
FFF0
FFE0
F800
ENDCHAR
STARTCHAR 05E3
ENCODING 1507
SWIDTH 489 0
DWIDTH 17 0
BBX 15 25 1 -6
BITMAP
4000
FFF0
FFF8
FFFC
FFFC
FFFC
7FFC
301C
300C
300C
700C
7E0C
7E0C
7E0C
7C0C
000C
000E
000E
000E
000E
000E
000E
000E
000C
0008
ENDCHAR
STARTCHAR 05E4
ENCODING 1508
SWIDTH 460 0
DWIDTH 16 0
BBX 13 19 1 0
BITMAP
4000
7FC0
7FE0
FFF0
7FF8
7FF8
3FF8
2018
7008
7C08
7C08
6008
0018
7FF8
7FF8
FFF8
FFF0
FFE0
FFC0
ENDCHAR
STARTCHAR 05E5
ENCODING 1509
SWIDTH 576 0
DWIDTH 20 0
BBX 18 25 1 -6
BITMAP
402000
FC3F00
FF3F80
FF3FC0
FF3FC0
7F3FC0
3E1F80
060C00
063000
066000
06C000
078000
078000
070000
070000
060000
070000
070000
070000
070000
070000
070000
060000
060000
040000
ENDCHAR
STARTCHAR 05E6
ENCODING 1510
SWIDTH 518 0
DWIDTH 18 0
BBX 16 19 1 0
BITMAP
C040
FC7E
FE7E
FE7F
FE7F
7E7F
1E3E
0218
0330
03B0
01F0
00F0
0078
7FFC
7FFE
7FFE
7FFE
7FFC
FFFC
ENDCHAR
STARTCHAR 05E7
ENCODING 1511
SWIDTH 489 0
DWIDTH 17 0
BBX 14 25 1 -6
BITMAP
4000
7FF8
FFFC
FFFC
FFFC
7FFC
3FFC
000C
000C
200C
200C
6018
6070
60E0
6180
6380
6380
6380
6300
6000
6000
6000
6000
6000
4000
ENDCHAR
STARTCHAR 05E8
ENCODING 1512
SWIDTH 460 0
DWIDTH 16 0
BBX 13 19 1 0
BITMAP
4000
FFE0
FFF0
FFF8
FFF8
FFF8
7FF8
0018
0018
0018
0018
0018
0018
0018
0018
0018
0018
0018
0018
ENDCHAR
STARTCHAR 05E9
ENCODING 1513
SWIDTH 691 0
DWIDTH 24 0
BBX 22 19 1 0
BITMAP
C0C040
F8F8F0
FCFCF8
FEFCFC
FEFCFC
7EFCFC
3C7C7C
103038
302030
306030
306060
30C0E0
3180C0
3FFFC0
3FFFC0
3FFF80
3FFF80
1FFF80
1FFF80
ENDCHAR
STARTCHAR 05EA
ENCODING 1514
SWIDTH 518 0
DWIDTH 18 0
BBX 16 19 0 0
BITMAP
1000
1FFC
3FFE
3FFF
3FFF
1FFF
0FFF
0207
0603
0603
0C03
0E03
0E03
3E03
7E03
7E03
7E03
7E03
FE03
ENDCHAR
STARTCHAR 05F0
ENCODING 1520
SWIDTH 604 0
DWIDTH 21 0
BBX 18 19 1 0
BITMAP
401000
FC1F00
FE3F80
FE3FC0
FF3FC0
7F1FC0
3F0FC0
0701C0
0700C0
0300C0
0300C0
0300C0
0300C0
0300C0
0300C0
0300C0
0300C0
0300C0
020080
ENDCHAR
STARTCHAR 05F1
ENCODING 1521
SWIDTH 604 0
DWIDTH 21 0
BBX 18 19 1 0
BITMAP
C01800
FE1F80
FF1FC0
FF1FC0
FF1FC0
FF1FC0
3F07C0
0300C0
0100C0
0100C0
0300C0
0600C0
0400C0
0000C0
0000C0
0000C0
0000C0
0000C0
0000C0
ENDCHAR
STARTCHAR 05F2
ENCODING 1522
SWIDTH 633 0
DWIDTH 22 0
BBX 19 13 1 6
BITMAP
C01000
FE1FC0
FF1FE0
FF1FE0
FF1FE0
FF1FE0
3F07E0
030060
010060
010060
030060
0600C0
040080
ENDCHAR
STARTCHAR 05F3
ENCODING 1523
SWIDTH 259 0
DWIDTH 9 0
BBX 5 11 2 8
BITMAP
10
78
78
78
78
70
70
E0
E0
C0
C0
ENDCHAR
STARTCHAR 05F4
ENCODING 1524
SWIDTH 460 0
DWIDTH 16 0
BBX 12 11 2 8
BITMAP
1020
78F0
78F0
78F0
78F0
70E0
70E0
E0C0
E0C0
C080
C080
ENDCHAR
STARTCHAR 060C
ENCODING 1548
SWIDTH 316 0
DWIDTH 11 0
BBX 5 10 3 5
BITMAP
30
60
40
C0
C0
E0
F8
F8
F8
78
ENDCHAR
STARTCHAR 061B
ENCODING 1563
SWIDTH 316 0
DWIDTH 11 0
BBX 5 16 3 5
BITMAP
10
60
40
C0
80
C0
F8
F8
F8
78
00
00
30
78
78
70
ENDCHAR
STARTCHAR 061F
ENCODING 1567
SWIDTH 345 0
DWIDTH 12 0
BBX 10 20 1 5
BITMAP
0E00
3B80
70C0
61C0
F3C0
F3C0
FBC0
F800
7C00
3C00
1C00
0C00
0400
0400
0400
0000
0C00
1E00
1E00
0E00
ENDCHAR
STARTCHAR 0621
ENCODING 1569
SWIDTH 460 0
DWIDTH 16 0
BBX 13 16 2 2
BITMAP
0600
1F80
1FC0
3F80
7F80
7100
F008
F8F0
FFF0
7FF0
3FE0
1F00
3C00
7000
6000
4000
ENDCHAR
STARTCHAR 0622
ENCODING 1570
SWIDTH 230 0
DWIDTH 8 0
BBX 8 25 0 4
BITMAP
60
FF
00
00
10
18
18
38
38
38
1C
1C
1C
1C
1C
1C
0C
0C
0C
0C
0C
0C
0C
08
08
ENDCHAR
STARTCHAR 0623
ENCODING 1571
SWIDTH 230 0
DWIDTH 8 0
BBX 4 26 2 4
BITMAP
70
80
F0
E0
00
20
60
60
60
E0
E0
70
70
70
70
70
30
30
30
30
30
30
30
30
20
20
ENDCHAR
STARTCHAR 0624
ENCODING 1572
SWIDTH 460 0
DWIDTH 16 0
BBX 16 25 0 -2
BITMAP
0180
0300
0600
0380
0400
0000
0018
003C
003E
007E
007F
0067
00E7
00FF
00FF
007F
007F
001F
000E
001E
C03E
607C
3FF8
1FF0
07E0
ENDCHAR
STARTCHAR 0625
ENCODING 1573
SWIDTH 230 0
DWIDTH 8 0
BBX 4 28 2 -2
BITMAP
40
60
60
E0
E0
E0
70
70
70
70
70
70
30
30
30
30
30
30
30
20
20
00
00
20
60
C0
70
80
ENDCHAR
STARTCHAR 0626
ENCODING 1574
SWIDTH 633 0
DWIDTH 22 0
BBX 17 21 3 -2
BITMAP
300000
500000
400000
700700
C00F80
001F80
003F80
107980
206000
60C000
40FC00
C0FF00
80FF00
807F00
800300
800F00
C03E00
FFFC00
FFF800
FFE000
3F0000
ENDCHAR
STARTCHAR 0627
ENCODING 1575
SWIDTH 230 0
DWIDTH 8 0
BBX 4 21 2 5
BITMAP
40
60
60
E0
E0
E0
70
70
70
70
70
70
30
30
30
30
30
30
30
20
20
ENDCHAR
STARTCHAR 0628
ENCODING 1576
SWIDTH 662 0
DWIDTH 23 0
BBX 22 19 1 -2
BITMAP
200010
600010
400018
C00038
C00038
C0001C
E0000C
FFFFFC
FFFFFC
7FFFFC
7FFFFC
1FFFFC
000000
000000
003800
003E00
007C00
007C00
001800
ENDCHAR
STARTCHAR 0629
ENCODING 1577
SWIDTH 345 0
DWIDTH 12 0
BBX 10 22 1 4
BITMAP
0600
6780
7F00
F600
F200
2000
0000
0000
1000
1C00
3E00
3F00
3F80
2F80
63C0
41C0
6380
7F80
FF80
7F00
7E00
1000
ENDCHAR
STARTCHAR 062A
ENCODING 1578
SWIDTH 662 0
DWIDTH 23 0
BBX 22 18 1 5
BITMAP
000800
000E00
00DE00
00FE00
01EC00
00E000
204010
600010
400018
C00038
C00038
C0001C
E0000C
FFFFFC
FFFFFC
7FFFFC
7FFFFC
1FFFFC
ENDCHAR
STARTCHAR 062B
ENCODING 1579
SWIDTH 662 0
DWIDTH 23 0
BBX 22 21 1 6
BITMAP
006000
00F000
00F000
006800
002E00
00DE00
00FE00
01EC00
01E000
204010
600010
400018
C00038
C00038
C0001C
E0000C
FFFFFC
FFFFFC
7FFFFC
3FFFFC
1FFFFC
ENDCHAR
STARTCHAR 062C
ENCODING 1580
SWIDTH 576 0
DWIDTH 20 0
BBX 18 25 1 -7
BITMAP
1FFF80
3FFF00
7FFF00
7FFF00
F3FF00
87C000
1F0000
1C0000
380000
700000
604000
60F000
C0F800
C1F000
C07000
E02000
E00000
F00000
780000
7E0000
7FFFC0
3FFFC0
1FFF00
0FFE00
01F800
ENDCHAR
STARTCHAR 062D
ENCODING 1581
SWIDTH 576 0
DWIDTH 20 0
BBX 18 25 1 -7
BITMAP
1FFF80
3FFF00
7FFF00
7FFF00
F3FF00
87C000
1F0000
1C0000
380000
700000
600000
600000
C00000
C00000
C00000
E00000
E00000
F00000
780000
7E0000
7FFFC0
3FFFC0
1FFF00
0FFE00
01F800
ENDCHAR
STARTCHAR 062E
ENCODING 1582
SWIDTH 576 0
DWIDTH 20 0
BBX 18 33 1 -7
BITMAP
010000
03C000
03E000
07C000
03C000
008000
000000
000000
1FFF80
3FFF00
7FFF00
7FFF00
F3FF00
87C000
1F0000
1C0000
380000
700000
600000
600000
C00000
C00000
C00000
E00000
E00000
F00000
780000
7E0000
7FFFC0
3FFFC0
1FFF00
0FFE00
01F800
ENDCHAR
STARTCHAR 062F
ENCODING 1583
SWIDTH 345 0
DWIDTH 12 0
BBX 10 16 2 5
BITMAP
0200
0300
0700
0780
0780
0780
03C0
01C0
01C0
00C0
80C0
FFC0
FFC0
FFC0
FFC0
FFC0
ENDCHAR
STARTCHAR 0630
ENCODING 1584
SWIDTH 345 0
DWIDTH 12 0
BBX 10 24 2 5
BITMAP
1800
3E00
3E00
7C00
1C00
0000
0000
0000
0200
0300
0700
0780
0780
0780
03C0
01C0
01C0
00C0
80C0
FFC0
FFC0
FFC0
FFC0
FFC0
ENDCHAR
STARTCHAR 0631
ENCODING 1585
SWIDTH 432 0
DWIDTH 15 0
BBX 15 18 0 -3
BITMAP
0008
000C
000C
000E
000E
000E
0006
0006
0002
0006
0006
000E
001E
003C
C0FC
7FF8
1FF0
0FE0
ENDCHAR
STARTCHAR 0632
ENCODING 1586
SWIDTH 432 0
DWIDTH 15 0
BBX 15 26 0 -3
BITMAP
0020
0078
007C
00F8
0038
0010
0000
0000
0008
000C
000C
000E
000E
000E
0006
0006
0002
0006
0006
000E
001E
003C
C0FC
7FF8
1FF0
0FE0
ENDCHAR
STARTCHAR 0633
ENCODING 1587
SWIDTH 892 0
DWIDTH 31 0
BBX 30 17 1 -1
BITMAP
00018004
000180CC
180180DC
1003C08C
3001C18C
2001FFFC
6000FFFC
4000FFFC
C000FFFC
C000FF3C
E000C000
E001C000
F8078000
FFFF8000
7FFF0000
3FFF0000
0FFC0000
ENDCHAR
STARTCHAR 0634
ENCODING 1588
SWIDTH 892 0
DWIDTH 31 0
BBX 30 29 1 -2
BITMAP
00000200
00000380
00000780
00000780
00000320
00000070
000007F0
000007F0
00000F20
00000700
00000000
00000000
00018004
000180CC
180180DC
1003C08C
3001C18C
2001FFFC
6000FFFC
4000FFFC
C000FFFC
C000FF3C
E000C000
E001C000
F8078000
FFFF8000
7FFF0000
3FFF0000
0FFC0000
ENDCHAR
STARTCHAR 0635
ENCODING 1589
SWIDTH 1065 0
DWIDTH 37 0
BBX 36 19 1 -2
BITMAP
00000007C0
0000001FE0
0001803FF0
0001807FF0
180181F0F0
1003C3C030
3001CF8070
2001FFFFF0
6000FFFFF0
4000FFFFF0
C000FFFFF0
C000FFFFF0
E000C00000
E001C00000
F807800000
FFFF800000
7FFF800000
3FFF000000
0FFC000000
ENDCHAR
STARTCHAR 0636
ENCODING 1590
SWIDTH 1065 0
DWIDTH 37 0
BBX 36 27 1 -2
BITMAP
0000018000
000003C000
000003E000
000007C000
000001C000
0000000000
0000000000
0000000000
00000007C0
0000001FE0
0001803FF0
0001807FF0
180181F0F0
1003C3C030
3001CF8070
2001FFFFF0
6000FFFFF0
4000FFFFF0
C000FFFFF0
C000FFFFF0
E000C00000
E001C00000
F807800000
FFFF800000
7FFF800000
3FFF000000
0FFC000000
ENDCHAR
STARTCHAR 0637
ENCODING 1591
SWIDTH 518 0
DWIDTH 18 0
BBX 19 23 -1 5
BITMAP
040000
060000
0F8000
0F8000
0F8000
078000
070000
070000
070000
030000
030000
030FC0
031FE0
037FE0
03FFE0
03E1E0
07C060
0F00E0
FFFFE0
FFFFE0
FFFFE0
FFFFE0
FFFFE0
ENDCHAR
STARTCHAR 0638
ENCODING 1592
SWIDTH 518 0
DWIDTH 18 0
BBX 19 23 -1 5
BITMAP
040000
060000
0F8000
0F8C00
0F8F00
079F00
071F00
070E00
070200
030000
030000
030FC0
031FE0
037FE0
03FFE0
03E1E0
07C060
0F00E0
FFFFE0
FFFFE0
FFFFE0
FFFFE0
FFFFE0
ENDCHAR
STARTCHAR 0639
ENCODING 1593
SWIDTH 547 0
DWIDTH 19 0
BBX 17 28 1 -7
BITMAP
030000
1FE000
1FF000
3FF800
380000
700000
700200
783C00
7EFC00
7FF800
3FF800
1FC000
3E0000
380000
700000
600000
C00000
C00000
C00000
C00000
C00000
E00000
F80000
FFF880
7FFF80
3FFE00
1FFC00
07F000
ENDCHAR
STARTCHAR 063A
ENCODING 1594
SWIDTH 547 0
DWIDTH 19 0
BBX 17 35 1 -6
BITMAP
060000
0F8000
0F8000
1F0000
070000
000000
000000
030000
1FE000
1FF000
3FF800
380000
700000
700200
783C00
7EFC00
7FF800
3FF800
1FC000
3E0000
380000
700000
600000
C00000
C00000
C00000
C00000
C00000
E00000
F80000
FFF880
7FFF80
3FFE00
1FFC00
07F000
ENDCHAR
STARTCHAR 0640
ENCODING 1600
SWIDTH 201 0
DWIDTH 7 0
BBX 8 5 -1 5
BITMAP
FF
FF
FF
FF
FF
ENDCHAR
STARTCHAR 0641
ENCODING 1601
SWIDTH 748 0
DWIDTH 26 0
BBX 25 23 1 4
BITMAP
00000800
00001E00
00001F00
00003E00
00001E00
00000400
00000000
00000000
00000E00
00001F00
20003F80
40003F80
40003F80
C0007380
C0007B80
C0007F80
E0007F80
F807FF80
FFFFFF80
FFFFFF80
FFFFFF80
3FFFFF80
03800000
ENDCHAR
STARTCHAR 0642
ENCODING 1602
SWIDTH 604 0
DWIDTH 21 0
BBX 20 28 1 -5
BITMAP
000080
0000E0
000DE0
000FE0
001EC0
000E00
000000
0001C0
0003E0
0007E0
0007F0
0007F0
100C70
300EF0
200FF0
600FF0
4007F0
C003F0
C00010
C00010
C00030
E00070
F801F0
FFFFF0
7FFFE0
3FFFC0
1FFF00
004000
ENDCHAR
STARTCHAR 0643
ENCODING 1603
SWIDTH 547 0
DWIDTH 19 0
BBX 18 22 1 5
BITMAP
000200
000200
000700
0027C0
006780
00E780
008380
01C300
01F300
01F300
00F380
603180
40E180
C7C180
C00180
C00180
E000C0
FFFFC0
FFFFC0
FFFFC0
7FFFC0
3FFFC0
ENDCHAR
STARTCHAR 0644
ENCODING 1604
SWIDTH 460 0
DWIDTH 16 0
BBX 15 28 1 -1
BITMAP
0010
0010
0038
003E
003C
003C
001C
0018
0018
0018
001C
001C
000C
000C
300C
200C
600E
4006
C006
C006
C00E
C00E
C01E
F9FC
FFFC
FFF8
7FF0
3FC0
ENDCHAR
STARTCHAR 0645
ENCODING 1605
SWIDTH 374 0
DWIDTH 13 0
BBX 12 22 1 -7
BITMAP
0E00
1F00
1F80
3FC0
23E0
23F0
0FF0
7FF0
7FF0
FFF0
F000
C000
C000
C000
C000
6000
6000
6000
6000
2000
2000
2000
ENDCHAR
STARTCHAR 0646
ENCODING 1606
SWIDTH 547 0
DWIDTH 19 0
BBX 18 23 1 -2
BITMAP
00C000
01F000
01F000
03E000
00E000
000000
000180
000180
180180
1003C0
3001C0
2001C0
6000C0
4000C0
C000C0
C000C0
E000C0
E001C0
F80780
FFFF80
7FFF80
3FFE00
0FF800
ENDCHAR
STARTCHAR 0647
ENCODING 1607
SWIDTH 345 0
DWIDTH 12 0
BBX 10 14 1 4
BITMAP
1000
1C00
3E00
3F00
3F80
2F80
63C0
41C0
6380
7F80
FF80
7F00
7E00
1000
ENDCHAR
STARTCHAR 0648
ENCODING 1608
SWIDTH 460 0
DWIDTH 16 0
BBX 16 19 0 -2
BITMAP
0018
003C
003E
007E
007F
0067
00E7
00FF
00FF
007F
007F
001F
000E
001E
C03E
607C
3FF8
1FF0
07E0
ENDCHAR
STARTCHAR 0649
ENCODING 1609
SWIDTH 633 0
DWIDTH 22 0
BBX 17 18 3 -2
BITMAP
000700
000F80
001F80
003F80
107980
206000
60C000
40FC00
C0FF00
80FF00
807F00
800300
800F00
C03E00
FFFC00
FFF800
FFE000
3F0000
ENDCHAR
STARTCHAR 064A
ENCODING 1610
SWIDTH 633 0
DWIDTH 22 0
BBX 17 22 3 -7
BITMAP
000700
000F80
001F80
003F80
107980
206000
60C000
40FC00
C0FF00
80FF00
807F00
800300
800F00
C03E00
FFFC00
FFF800
FFE000
3F0000
000000
027000
07F000
070000
ENDCHAR
STARTCHAR 064B
ENCODING 1611
SWIDTH 201 0
DWIDTH 7 0
BBX 6 6 1 24
BITMAP
04
18
60
8C
38
C0
ENDCHAR
STARTCHAR 064C
ENCODING 1612
SWIDTH 230 0
DWIDTH 8 0
BBX 7 6 1 24
BITMAP
06
0A
6E
AE
2A
70
ENDCHAR
STARTCHAR 064D
ENCODING 1613
SWIDTH 201 0
DWIDTH 7 0
BBX 6 6 1 -5
BITMAP
0C
70
C4
18
60
80
ENDCHAR
STARTCHAR 064E
ENCODING 1614
SWIDTH 201 0
DWIDTH 7 0
BBX 6 3 1 24
BITMAP
0C
38
C0
ENDCHAR
STARTCHAR 064F
ENCODING 1615
SWIDTH 201 0
DWIDTH 7 0
BBX 5 7 2 24
BITMAP
18
38
28
38
18
20
C0
ENDCHAR
STARTCHAR 0650
ENCODING 1616
SWIDTH 201 0
DWIDTH 7 0
BBX 6 3 1 -2
BITMAP
0C
70
C0
ENDCHAR
STARTCHAR 0651
ENCODING 1617
SWIDTH 201 0
DWIDTH 7 0
BBX 6 5 1 24
BITMAP
04
14
9C
FC
E0
ENDCHAR
STARTCHAR 0652
ENCODING 1618
SWIDTH 172 0
DWIDTH 6 0
BBX 5 5 1 24
BITMAP
70
78
98
D8
F0
ENDCHAR
STARTCHAR 0653
ENCODING 1619
SWIDTH 230 0
DWIDTH 8 0
BBX 8 2 0 27
BITMAP
60
FF
ENDCHAR
STARTCHAR 0654
ENCODING 1620
SWIDTH 230 0
DWIDTH 8 0
BBX 4 5 2 26
BITMAP
30
60
C0
70
80
ENDCHAR
STARTCHAR 0655
ENCODING 1621
SWIDTH 230 0
DWIDTH 8 0
BBX 4 5 2 -4
BITMAP
20
70
C0
70
C0
ENDCHAR
STARTCHAR 0660
ENCODING 1632
SWIDTH 576 0
DWIDTH 20 0
BBX 5 8 7 7
BITMAP
40
60
F0
F8
F8
F8
78
38
ENDCHAR
STARTCHAR 0661
ENCODING 1633
SWIDTH 576 0
DWIDTH 20 0
BBX 6 19 6 6
BITMAP
60
70
F0
F8
F8
78
7C
3C
1C
1C
1C
0C
0C
0C
0C
04
04
04
04
ENDCHAR
STARTCHAR 0662
ENCODING 1634
SWIDTH 576 0
DWIDTH 20 0
BBX 10 20 5 5
BITMAP
0080
4080
E0C0
FFC0
FF80
FF80
FF80
7F00
3C00
3C00
1C00
1C00
0C00
0E00
0E00
0600
0600
0400
0400
0400
ENDCHAR
STARTCHAR 0663
ENCODING 1635
SWIDTH 576 0
DWIDTH 20 0
BBX 14 20 3 5
BITMAP
4080
4088
60CC
FBFC
FFF8
FFF8
FFF8
7FF0
3E00
3800
1C00
1C00
1C00
0C00
0C00
0C00
0C00
0C00
0800
0800
ENDCHAR
STARTCHAR 0664
ENCODING 1636
SWIDTH 576 0
DWIDTH 20 0
BBX 9 19 5 6
BITMAP
0200
0E00
1C00
1C00
3000
7000
7E00
FF00
FE00
7C00
0800
1800
3000
3C00
7F80
7F80
7F00
3F00
0700
ENDCHAR
STARTCHAR 0665
ENCODING 1637
SWIDTH 576 0
DWIDTH 20 0
BBX 12 14 4 8
BITMAP
0F00
1F80
1FC0
3FE0
3FE0
63F0
40F0
E060
F060
FFE0
FFC0
FFC0
7F80
3E00
ENDCHAR
STARTCHAR 0666
ENCODING 1638
SWIDTH 576 0
DWIDTH 20 0
BBX 11 20 4 5
BITMAP
8000
8000
FF00
FF00
FF00
FF00
FF00
0300
0300
0300
0300
0380
0380
03C0
03E0
01E0
01C0
01C0
00C0
0040
ENDCHAR
STARTCHAR 0667
ENCODING 1639
SWIDTH 576 0
DWIDTH 20 0
BBX 13 20 3 5
BITMAP
8008
C018
C018
E038
E038
F078
F070
7870
78E0
38C0
1CC0
1C80
0D80
0F80
0780
0700
0700
0300
0300
0300
ENDCHAR
STARTCHAR 0668
ENCODING 1640
SWIDTH 576 0
DWIDTH 20 0
BBX 13 20 3 5
BITMAP
0600
0600
0600
0700
0700
0700
0D80
0D80
09C0
19C0
18E0
38F0
70F8
7078
F078
E038
E038
E018
C008
8000
ENDCHAR
STARTCHAR 0669
ENCODING 1641
SWIDTH 576 0
DWIDTH 20 0
BBX 11 20 4 5
BITMAP
0E00
3F00
3F00
7F00
7F00
C300
F700
FF00
FF00
FF00
7F80
0180
0180
01C0
01E0
01E0
01C0
01C0
00C0
0040
ENDCHAR
STARTCHAR 066A
ENCODING 1642
SWIDTH 518 0
DWIDTH 18 0
BBX 14 24 2 3
BITMAP
380C
7818
7818
7830
0030
0060
0060
00C0
00C0
0180
0180
0300
0300
0600
0600
0C00
0C00
1800
1800
3000
3078
6078
6078
C038
ENDCHAR
STARTCHAR 066B
ENCODING 1643
SWIDTH 316 0
DWIDTH 11 0
BBX 5 8 3 1
BITMAP
70
F8
F8
78
10
30
60
C0
ENDCHAR
STARTCHAR 066C
ENCODING 1644
SWIDTH 316 0
DWIDTH 11 0
BBX 5 10 3 5
BITMAP
30
60
40
C0
C0
E0
F8
F8
F8
78
ENDCHAR
STARTCHAR 066D
ENCODING 1645
SWIDTH 518 0
DWIDTH 18 0
BBX 12 12 3 14
BITMAP
0600
0600
76C0
37C0
1D80
F6F0
FBF0
0D00
3FC0
76C0
2640
0600
ENDCHAR
STARTCHAR 066E
ENCODING 1646
SWIDTH 662 0
DWIDTH 23 0
BBX 22 12 1 5
BITMAP
200010
600010
400018
C00038
C00038
C0001C
E0000C
FFFFFC
FFFFFC
7FFFFC
7FFFFC
1FFFFC
ENDCHAR
STARTCHAR 066F
ENCODING 1647
SWIDTH 604 0
DWIDTH 21 0
BBX 20 21 1 -5
BITMAP
0001C0
0003E0
0007E0
0007F0
0007F0
100C70
300EF0
200FF0
600FF0
4007F0
C003F0
C00010
C00010
C00030
E00070
F801F0
FFFFF0
7FFFE0
3FFFC0
1FFF00
004000
ENDCHAR
STARTCHAR 0670
ENCODING 1648
SWIDTH 0 0
DWIDTH 0 0
BBX 2 10 -1 18
BITMAP
80
80
C0
C0
40
40
40
40
40
80
ENDCHAR
STARTCHAR 0671
ENCODING 1649
SWIDTH 230 0
DWIDTH 8 0
BBX 7 27 0 4
BITMAP
0E
12
26
FC
80
00
10
18
18
38
38
38
1C
1C
1C
1C
1C
1C
0C
0C
0C
0C
0C
0C
0C
08
08
ENDCHAR
STARTCHAR 0672
ENCODING 1650
SWIDTH 230 0
DWIDTH 8 0
BBX 6 27 0 4
BITMAP
08
18
20
1C
F0
00
10
18
18
38
38
38
1C
1C
1C
1C
1C
1C
0C
0C
0C
0C
0C
0C
0C
08
08
ENDCHAR
STARTCHAR 0673
ENCODING 1651
SWIDTH 230 0
DWIDTH 8 0
BBX 5 28 1 -2
BITMAP
20
30
30
70
70
70
38
38
38
38
38
38
18
18
18
18
18
18
18
10
10
00
00
18
28
20
18
E0
ENDCHAR
STARTCHAR 0674
ENCODING 1652
SWIDTH 230 0
DWIDTH 8 0
BBX 4 5 2 26
BITMAP
30
60
C0
70
80
ENDCHAR
STARTCHAR 0675
ENCODING 1653
SWIDTH 230 0
DWIDTH 8 0
BBX 8 22 2 4
BITMAP
03
47
6C
67
EC
E0
E0
70
70
70
70
70
70
30
30
30
30
30
30
30
20
20
ENDCHAR
STARTCHAR 0676
ENCODING 1654
SWIDTH 460 0
DWIDTH 16 0
BBX 17 26 0 -2
BITMAP
000380
000400
000600
000380
000400
000000
000000
001800
003C00
003E00
007E00
007F00
006700
00E700
00FF00
00FF00
007F00
007F00
001F00
000E00
001E00
C03E00
607C00
3FF800
1FF000
07E000
ENDCHAR
STARTCHAR 0677
ENCODING 1655
SWIDTH 460 0
DWIDTH 16 0
BBX 17 27 0 -2
BITMAP
006000
00A380
00E400
00E600
007380
008400
030000
000000
001800
003C00
003E00
007E00
007F00
006700
00E700
00FF00
00FF00
007F00
007F00
001F00
000E00
001E00
C03E00
607C00
3FF800
1FF000
07E000
ENDCHAR
STARTCHAR 0678
ENCODING 1656
SWIDTH 633 0
DWIDTH 22 0
BBX 19 26 3 -2
BITMAP
000060
000180
000180
0000E0
000100
000000
000000
000000
000700
000F80
001F80
003F80
107980
206000
60C000
40FC00
C0FF00
80FF00
807F00
800300
800F00
C03E00
FFFC00
FFF800
FFE000
3F0000
ENDCHAR
STARTCHAR 0679
ENCODING 1657
SWIDTH 662 0
DWIDTH 23 0
BBX 22 24 1 5
BITMAP
008000
00E000
00C000
004000
004000
004E00
005E00
007200
00C200
03FE00
03FE00
000000
200010
600010
400018
C00038
C00038
C0001C
E0000C
FFFFFC
FFFFFC
7FFFFC
7FFFFC
1FFFFC
ENDCHAR
STARTCHAR 067A
ENCODING 1658
SWIDTH 662 0
DWIDTH 23 0
BBX 22 21 1 6
BITMAP
00E000
00F000
01E000
00E000
001000
003C00
003C00
007800
001800
200010
600010
400018
C00038
C00038
C0001C
E0000C
FFFFFC
FFFFFC
7FFFFC
7FFFFC
1FFFFC
ENDCHAR
STARTCHAR 067B
ENCODING 1659
SWIDTH 662 0
DWIDTH 23 0
BBX 22 23 1 -6
BITMAP
200010
600010
400018
C00038
C00038
C0001C
E0000C
FFFFFC
FFFFFC
7FFFFC
7FFFFC
1FFFFC
000000
002000
003800
007800
007800
003000
000C00
000F00
001E00
001E00
000400
ENDCHAR
STARTCHAR 067C
ENCODING 1660
SWIDTH 662 0
DWIDTH 23 0
BBX 22 22 1 1
BITMAP
000800
000E00
00DE00
00FE00
01EC00
00E000
204010
600010
400018
C00038
C00038
C0001C
E0000C
FFFFFC
FFFFFC
7FFFFC
7FFFFC
1FFFFC
004C00
004400
007800
003000
ENDCHAR
STARTCHAR 067D
ENCODING 1661
SWIDTH 662 0
DWIDTH 23 0
BBX 22 21 1 6
BITMAP
001C00
009E00
01FC00
03DC00
01C000
009800
003C00
003C00
003800
200810
600010
400018
C00038
C00038
C0001C
E0000C
FFFFFC
FFFFFC
7FFFFC
7FFFFC
1FFFFC
ENDCHAR
STARTCHAR 067E
ENCODING 1662
SWIDTH 662 0
DWIDTH 23 0
BBX 22 23 1 -7
BITMAP
200010
600010
400018
C00038
C00038
C0001C
E0000C
FFFFFC
FFFFFC
7FFFFC
7FFFFC
1FFFFC
000000
000800
000E00
00DE00
00FE00
01EC00
00E000
005C00
001E00
003C00
001C00
ENDCHAR
STARTCHAR 067F
ENCODING 1663
SWIDTH 662 0
DWIDTH 23 0
BBX 22 22 1 5
BITMAP
003000
003C00
03F800
03F800
079000
018E00
006F00
00FE00
00F600
00E000
202010
600010
400018
C00038
C00038
C0001C
E0000C
FFFFFC
FFFFFC
7FFFFC
7FFFFC
1FFFFC
ENDCHAR
STARTCHAR 0680
ENCODING 1664
SWIDTH 662 0
DWIDTH 23 0
BBX 22 24 1 -7
BITMAP
200010
600010
400018
C00038
C00038
C0001C
E0000C
FFFFFC
FFFFFC
7FFFFC
7FFFFC
1FFFFC
000000
000000
001C00
019E00
01FC00
03D800
01C200
002780
007F80
007F00
00F000
003000
ENDCHAR
STARTCHAR 0681
ENCODING 1665
SWIDTH 576 0
DWIDTH 20 0
BBX 18 32 1 -7
BITMAP
006000
008000
00F000
00C000
000000
000000
000000
1FFF80
3FFF00
7FFF00
7FFF00
F3FF00
87C000
1F0000
1C0000
380000
700000
600000
600000
C00000
C00000
C00000
E00000
E00000
F00000
780000
7E0000
7FFFC0
3FFFC0
1FFF00
0FFE00
01F800
ENDCHAR
STARTCHAR 0682
ENCODING 1666
SWIDTH 576 0
DWIDTH 20 0
BBX 18 37 1 -7
BITMAP
020000
030000
078000
078000
030000
00C000
00F000
01E000
01E000
004000
000000
000000
1FFF80
3FFF00
7FFF00
7FFF00
F3FF00
87C000
1F0000
1C0000
380000
700000
600000
600000
C00000
C00000
C00000
E00000
E00000
F00000
780000
7E0000
7FFFC0
3FFFC0
1FFF00
0FFE00
01F800
ENDCHAR
STARTCHAR 0683
ENCODING 1667
SWIDTH 576 0
DWIDTH 20 0
BBX 18 25 1 -7
BITMAP
1FFF80
3FFF00
7FFF00
7FFF00
F3FF00
87C000
1F0000
1C0000
380000
701000
601C00
61BC00
C1FC00
C3D800
C1C000
E08000
E00000
F00000
780000
7E0000
7FFFC0
3FFFC0
1FFF00
0FFE00
01F800
ENDCHAR
STARTCHAR 0684
ENCODING 1668
SWIDTH 576 0
DWIDTH 20 0
BBX 18 25 1 -7
BITMAP
1FFF80
3FFF00
7FFF00
7FFF00
F3FF00
87C000
1F0000
1C0000
380000
70C000
61E000
61E000
C1C000
C06000
C03800
E07800
E07800
F03000
780000
7E0000
7FFFC0
3FFFC0
1FFF00
0FFE00
01F800
ENDCHAR
STARTCHAR 0685
ENCODING 1669
SWIDTH 576 0
DWIDTH 20 0
BBX 18 37 1 -7
BITMAP
018000
01C000
03C000
01C000
00B800
013C00
03F800
03F800
078000
018000
000000
000000
1FFF80
3FFF00
7FFF00
7FFF00
F3FF00
87C000
1F0000
1C0000
380000
700000
600000
600000
C00000
C00000
C00000
E00000
E00000
F00000
780000
7E0000
7FFFC0
3FFFC0
1FFF00
0FFE00
01F800
ENDCHAR
STARTCHAR 0686
ENCODING 1670
SWIDTH 576 0
DWIDTH 20 0
BBX 18 25 1 -7
BITMAP
1FFF80
3FFF00
7FFF00
7FFF00
F3FF00
87C000
1F0000
1C0000
381000
703C00
63BC00
63F800
C79800
C3A000
C03000
E07800
E07800
F03000
780000
7E0000
7FFFC0
3FFFC0
1FFF00
0FFE00
01F800
ENDCHAR
STARTCHAR 0687
ENCODING 1671
SWIDTH 576 0
DWIDTH 20 0
BBX 18 25 1 -7
BITMAP
1FFF80
3FFF00
7FFF00
7FFF00
F3FF00
87C000
1F0000
1C0000
383800
713C00
63F800
63F800
C38400
C1CF00
C07F00
E0FE00
E0F200
F06000
780000
7E0000
7FFFC0
3FFFC0
1FFF00
0FFE00
01F800
ENDCHAR
STARTCHAR 0688
ENCODING 1672
SWIDTH 345 0
DWIDTH 12 0
BBX 11 25 1 6
BITMAP
3800
3800
1000
1000
1380
1780
1CC0
30C0
FFC0
FFC0
0000
0100
0180
03C0
03C0
03C0
01E0
00E0
0060
4060
7FE0
7FE0
7FE0
7FE0
7FE0
ENDCHAR
STARTCHAR 0689
ENCODING 1673
SWIDTH 345 0
DWIDTH 12 0
BBX 10 20 2 1
BITMAP
0200
0300
0700
0780
0780
0780
03C0
01C0
01C0
00C0
80C0
FFC0
FFC0
FFC0
FFC0
FFC0
1200
1200
1E00
1C00
ENDCHAR
STARTCHAR 068A
ENCODING 1674
SWIDTH 345 0
DWIDTH 12 0
BBX 10 23 2 -2
BITMAP
0200
0300
0700
0780
0780
0780
03C0
01C0
01C0
00C0
80C0
FFC0
FFC0
FFC0
FFC0
FFC0
0000
0800
1C00
1F00
3E00
1E00
0400
ENDCHAR
STARTCHAR 068B
ENCODING 1675
SWIDTH 345 0
DWIDTH 12 0
BBX 11 32 1 -1
BITMAP
3800
3800
1000
1000
1380
1780
1CC0
30C0
FFC0
FFC0
0000
0100
0180
03C0
03C0
03C0
01E0
00E0
0060
4060
7FE0
7FE0
7FE0
7FE0
7FE0
0000
0400
0E00
0F80
1F00
0F00
0200
ENDCHAR
STARTCHAR 068C
ENCODING 1676
SWIDTH 345 0
DWIDTH 12 0
BBX 10 24 2 5
BITMAP
0600
6F00
7F00
F600
F000
2000
0000
0000
0200
0300
0700
0780
0780
0780
03C0
01C0
01C0
00C0
80C0
FFC0
FFC0
FFC0
FFC0
FFC0
ENDCHAR
STARTCHAR 068D
ENCODING 1677
SWIDTH 345 0
DWIDTH 12 0
BBX 10 24 2 -3
BITMAP
0200
0300
0700
0780
0780
0780
03C0
01C0
01C0
00C0
80C0
FFC0
FFC0
FFC0
FFC0
FFC0
0000
0200
0380
3780
3F80
7B00
7800
1000
ENDCHAR
STARTCHAR 068E
ENCODING 1678
SWIDTH 345 0
DWIDTH 12 0
BBX 10 26 2 5
BITMAP
2000
3800
7800
7800
3000
0700
7F00
7F00
F200
7000
0000
0000
0200
0300
0780
0780
0780
03C0
01C0
00C0
80C0
FFC0
FFC0
FFC0
FFC0
FFC0
ENDCHAR
STARTCHAR 068F
ENCODING 1679
SWIDTH 345 0
DWIDTH 12 0
BBX 11 26 1 5
BITMAP
0400
0700
6F00
7F00
F600
6000
0E00
0F00
1E00
0E00
0000
0000
0100
0180
03C0
03C0
03C0
01E0
00E0
0060
4060
7FE0
7FE0
7FE0
7FE0
7FE0
ENDCHAR
STARTCHAR 0690
ENCODING 1680
SWIDTH 345 0
DWIDTH 12 0
BBX 11 26 1 5
BITMAP
0400
0700
6F00
FE00
F600
6180
39E0
1FC0
3F80
3C80
0800
0000
0100
0180
03C0
03C0
03C0
01E0
00E0
0060
4060
7FE0
7FE0
7FE0
7FE0
7FE0
ENDCHAR
STARTCHAR 0691
ENCODING 1681
SWIDTH 432 0
DWIDTH 15 0
BBX 15 31 0 -3
BITMAP
0100
01C0
0180
0080
0080
009C
00BC
00E4
0184
07FC
07FC
0000
0000
0008
000C
000C
000E
000E
000E
0006
0006
0002
0006
0006
000E
001E
003C
C0FC
7FF8
1FF0
0FE0
ENDCHAR
STARTCHAR 0692
ENCODING 1682
SWIDTH 432 0
DWIDTH 15 0
BBX 15 24 0 -3
BITMAP
0066
006C
0038
0018
0000
0000
0008
000C
000C
000E
000E
000E
0006
0006
0002
0006
0006
000E
001E
003C
C0FC
7FF8
1FF0
0FE0
ENDCHAR
STARTCHAR 0693
ENCODING 1683
SWIDTH 432 0
DWIDTH 15 0
BBX 16 19 0 -3
BITMAP
0008
000C
000C
000E
000E
000E
0006
0006
0002
0006
0006
000E
001E
003C
C0FE
7FFF
1FF1
0FF9
000E
ENDCHAR
STARTCHAR 0694
ENCODING 1684
SWIDTH 432 0
DWIDTH 15 0
BBX 18 22 0 -6
BITMAP
000800
000C00
000C00
000E00
000E00
000E00
000600
000600
000200
000600
000600
000E00
001E00
003C00
C0FC00
7FF800
1FF000
0FE700
000FC0
000F80
000F00
000300
ENDCHAR
STARTCHAR 0695
ENCODING 1685
SWIDTH 432 0
DWIDTH 15 0
BBX 17 23 0 -7
BITMAP
000800
000C00
000C00
000E00
000E00
000E00
000600
000600
000200
000600
000600
000E00
001E00
003C00
C0FC00
7FF800
1FF000
0FE000
000000
001980
000F00
000F00
000600
ENDCHAR
STARTCHAR 0696
ENCODING 1686
SWIDTH 432 0
DWIDTH 15 0
BBX 18 22 0 -6
BITMAP
000800
000C00
000C00
000E00
000E00
000E00
010600
03C600
03E200
07C600
01C600
000E00
001E00
003C00
C0FC00
7FF800
1FF000
0FE700
000FC0
000F80
000F00
000300
ENDCHAR
STARTCHAR 0697
ENCODING 1687
SWIDTH 432 0
DWIDTH 15 0
BBX 15 26 0 -3
BITMAP
000C
009E
00FE
01FC
01E4
0040
0000
0000
0008
000C
000C
000E
000E
000E
0006
0006
0002
0006
0006
000E
001E
003C
C0FC
7FF8
1FF0
0FE0
ENDCHAR
STARTCHAR 0698
ENCODING 1688
SWIDTH 432 0
DWIDTH 15 0
BBX 15 30 0 -3
BITMAP
0040
00F0
00F0
00E0
002C
009E
00FE
01FC
01E4
0040
0000
0000
0008
000C
000C
000E
000E
000E
0006
0006
0002
0006
0006
000E
001E
003C
C0FC
7FF8
1FF0
0FE0
ENDCHAR
STARTCHAR 0699
ENCODING 1689
SWIDTH 432 0
DWIDTH 15 0
BBX 15 31 0 -3
BITMAP
0020
0070
0378
07F0
07B0
070C
019E
00FE
01FC
01E4
0040
0000
0000
0008
000C
000C
000E
000E
000E
0006
0006
0002
0006
0006
000E
001E
003C
C0FC
7FF8
1FF0
0FE0
ENDCHAR
STARTCHAR 069A
ENCODING 1690
SWIDTH 892 0
DWIDTH 31 0
BBX 30 24 1 -2
BITMAP
00000C00
00000E00
00001F00
00001F00
00000E00
00000200
00000000
00018004
000180CC
180180DC
1003C08C
3001C18C
2001FFFC
6000FFFC
4000FFFC
C000FFFC
C000FF3C
E000C000
E001C000
F8078380
FFFF83E0
7FFF07C0
3FFF03C0
0FFC0080
ENDCHAR
STARTCHAR 069B
ENCODING 1691
SWIDTH 892 0
DWIDTH 31 0
BBX 30 21 1 -6
BITMAP
00018004
000180CC
180180DC
1003C08C
3001C18C
2001FFFC
6000FFFC
4000FFFC
C000FFFC
C000FF3C
E000C000
E001C040
F8078060
FFFF86F0
7FFF0FF0
3FFF0F60
0FFC0E00
000002C0
000000F0
000001E0
000000E0
ENDCHAR
STARTCHAR 069C
ENCODING 1692
SWIDTH 892 0
DWIDTH 31 0
BBX 30 33 1 -7
BITMAP
00000200
00000380
00000780
00000780
00000320
00000070
000007F0
000007F0
00000F20
00000700
00000000
00000000
00018004
000180CC
180180DC
1003C08C
3001C18C
2001FFFC
6000FFFC
4000FFFC
C000FFFC
C000FF3C
E000C000
E001C040
F8078060
FFFF86F0
7FFF0FF0
3FFF0F60
0FFC0E00
000002C0
000000F0
000001E0
000000E0
ENDCHAR
STARTCHAR 069D
ENCODING 1693
SWIDTH 1065 0
DWIDTH 37 0
BBX 36 19 1 -3
BITMAP
00000007C0
0000001FE0
0001803FF0
0001807FF0
180181F0F0
1003C3C030
3001CF8070
2001FFFFF0
6000FFFFF0
4000FFFFF0
C000FFFFF0
C000FFFFF0
E000C00000
E001C00000
F807800E00
FFFF80EF00
7FFF80FE00
3FFF01EE00
0FFC00E000
ENDCHAR
STARTCHAR 069E
ENCODING 1694
SWIDTH 1065 0
DWIDTH 37 0
BBX 36 30 1 -2
BITMAP
0000030000
0000078000
0000078000
0000074000
0000016000
000006F000
000007F000
00000F6000
00000F2000
0000020000
0000000000
00000007C0
0000001FE0
0001803FF0
0001807FF0
180181F0F0
1003C3C030
3001CF8070
2001FFFFF0
6000FFFFF0
4000FFFFF0
C000FFFFF0
C000FFFFF0
E000C00000
E001C00000
F807800000
FFFF800000
7FFF800000
3FFF000000
0FFC000000
ENDCHAR
STARTCHAR 069F
ENCODING 1695
SWIDTH 518 0
DWIDTH 18 0
BBX 19 24 -1 6
BITMAP
000E00
040F00
061E00
0F8680
0F81E0
0F8DE0
079FC0
071EC0
071C00
070400
030000
030000
030FC0
031FE0
037FE0
03FFE0
03E1E0
07C060
0F00E0
FFFFE0
FFFFE0
FFFFE0
FFFFE0
FFFFE0
ENDCHAR
STARTCHAR 06A0
ENCODING 1696
SWIDTH 547 0
DWIDTH 19 0
BBX 17 38 1 -7
BITMAP
100000
3C0000
3C0000
780000
1A0000
078000
378000
7F0000
7B0000
300000
030000
1FE000
1FF000
3FF800
380000
700000
700200
783C00
7EFC00
7FF800
3FF800
1FC000
3E0000
380000
700000
600000
C00000
C00000
C00000
C00000
C00000
E00000
F80000
FFF880
7FFF80
3FFE00
1FFC00
07F000
ENDCHAR
STARTCHAR 06A1
ENCODING 1697
SWIDTH 748 0
DWIDTH 26 0
BBX 25 15 1 4
BITMAP
00000E00
00001F00
20003F80
40003F80
40003F80
C0007380
C0007B80
C0007F80
E0007F80
F807FF80
FFFFFF80
FFFFFF80
FFFFFF80
3FFFFF80
03800000
ENDCHAR
STARTCHAR 06A2
ENCODING 1698
SWIDTH 748 0
DWIDTH 26 0
BBX 25 21 1 -2
BITMAP
00000E00
00001F00
20003F80
40003F80
40003F80
C0007380
C0007B80
C0007F80
E0007F80
F807FF80
FFFFFF80
FFFFFF80
FFFFFF80
3FFFFF80
03800000
00000000
00001C00
00001F00
00003E00
00001E00
00000400
ENDCHAR
STARTCHAR 06A3
ENCODING 1699
SWIDTH 748 0
DWIDTH 26 0
BBX 25 29 1 -2
BITMAP
00000800
00001E00
00001F00
00003E00
00001E00
00000400
00000000
00000000
00000E00
00001F00
20003F80
40003F80
40003F80
C0007380
C0007B80
C0007F80
E0007F80
F807FF80
FFFFFF80
FFFFFF80
FFFFFF80
3FFFFF80
03800000
00000000
000E0000
000F8000
001F0000
000F0000
00020000
ENDCHAR
STARTCHAR 06A4
ENCODING 1700
SWIDTH 748 0
DWIDTH 26 0
BBX 25 26 1 4
BITMAP
00002000
00007800
00007800
00007000
00001600
00004F00
00007F00
0000FE00
0000F200
00002000
00000000
00000E00
00001F00
20003F80
40003F80
40003F80
C0007380
C0007B80
C0007F80
E0007F80
F807FF80
FFFFFF80
FFFFFF80
FFFFFF80
3FFFFF80
03800000
ENDCHAR
STARTCHAR 06A5
ENCODING 1701
SWIDTH 748 0
DWIDTH 26 0
BBX 25 25 1 -7
BITMAP
00000E00
00001F00
20003F80
40003F80
40003F80
C0007380
C0007B80
C0007F80
E0007F80
F807FF80
FFFFFF80
FFFFFF80
FFFFFF80
3FFFFF80
03800000
00000200
00000300
00003780
00007F80
00007B00
00007000
00001600
00000780
00000F00
00000700
ENDCHAR
STARTCHAR 06A6
ENCODING 1702
SWIDTH 748 0
DWIDTH 26 0
BBX 25 26 1 5
BITMAP
00001800
0001BC00
0003F800
0003D800
00038600
0000C700
00007F00
0000FE00
0000F200
00006000
00000000
00000E00
00001F00
20003F80
40003F80
40003F80
C0007380
C0007B80
C0007F80
E0007F80
F807FF80
FFFFFF80
FFFFFF80
FFFFFF80
3FFFFF80
03800000
ENDCHAR
STARTCHAR 06A7
ENCODING 1703
SWIDTH 604 0
DWIDTH 21 0
BBX 20 29 1 -5
BITMAP
000400
000700
000FC0
000F80
000F00
000300
000000
000000
0001C0
0003E0
0007E0
0007F0
0007F0
100C70
300EF0
200FF0
600FF0
4007F0
C003F0
C00010
C00010
C00030
E00070
F801F0
FFFFF0
7FFFE0
3FFFC0
1FFF00
004000
ENDCHAR
STARTCHAR 06A8
ENCODING 1704
SWIDTH 604 0
DWIDTH 21 0
BBX 20 32 1 -5
BITMAP
000800
000E00
001E00
001E00
000C80
0001C0
000DE0
001FC0
003CC0
001C00
000000
0001C0
0003E0
0007E0
0007F0
0007F0
100C70
300EF0
200FF0
600FF0
4007F0
C003F0
C00010
C00010
C00030
E00070
F801F0
FFFFF0
7FFFE0
3FFFC0
1FFF00
004000
ENDCHAR
STARTCHAR 06A9
ENCODING 1705
SWIDTH 748 0
DWIDTH 26 0
BBX 25 19 1 6
BITMAP
00000700
00001F00
00007F00
0000FF00
0001F800
0001E000
0001E000
0001F000
6001F800
4000FC00
C0007E00
C0001F00
C0000700
E0000380
FFFFFF80
FFFFFF80
FFFFFF80
7FFFFF80
3FFFFF80
ENDCHAR
STARTCHAR 06AA
ENCODING 1706
SWIDTH 748 0
DWIDTH 26 0
BBX 25 18 1 5
BITMAP
00060000
003E0000
00FE0000
01FE0000
03F00000
03C00000
03F00000
03FF0000
03FFF000
41FFFC00
C03FFF00
C001FF80
E0001F80
FFFFFF80
FFFFFF80
FFFFFF80
7FFFFF80
3FFFFF80
ENDCHAR
STARTCHAR 06AB
ENCODING 1707
SWIDTH 748 0
DWIDTH 26 0
BBX 25 19 1 6
BITMAP
00000700
00001F00
00007F00
0000FF80
0001FC80
0001E480
0001E780
0001F300
6001F800
4000FC00
C0007E00
C0001F00
C0000700
E0000380
FFFFFF80
FFFFFF80
FFFFFF80
7FFFFF80
3FFFFF80
ENDCHAR
STARTCHAR 06AC
ENCODING 1708
SWIDTH 547 0
DWIDTH 19 0
BBX 18 26 1 5
BITMAP
010000
03C000
03E000
07C000
03C200
008200
000700
0027C0
006780
00E780
008380
01C300
01F300
01F300
00F380
603180
40E180
C7C180
C00180
C00180
E000C0
FFFFC0
FFFFC0
FFFFC0
7FFFC0
3FFFC0
ENDCHAR
STARTCHAR 06AD
ENCODING 1709
SWIDTH 547 0
DWIDTH 19 0
BBX 18 25 1 5
BITMAP
010000
03F000
006000
070200
020200
000700
0027C0
006780
00E780
008380
01C300
01F300
01F300
00F380
603180
40E180
C7C180
C00180
C00180
E000C0
FFFFC0
FFFFC0
FFFFC0
7FFFC0
3FFFC0
ENDCHAR
STARTCHAR 06AE
ENCODING 1710
SWIDTH 547 0
DWIDTH 19 0
BBX 18 34 1 -7
BITMAP
000200
000200
000700
0027C0
006780
00E780
008380
01C300
01F300
01F300
00F380
603180
40E180
C7C180
C00180
C00180
E000C0
FFFFC0
FFFFC0
FFFFC0
7FFFC0
3FFFC0
000000
000000
003800
01BC00
03F800
039800
038000
003000
007800
007800
007000
001000
ENDCHAR
STARTCHAR 06AF
ENCODING 1711
SWIDTH 748 0
DWIDTH 26 0
BBX 25 25 1 5
BITMAP
00000100
00000700
00001F00
00007F00
0001FC00
0003E000
00038700
00021F00
00007F00
0000FF00
0001F800
0001E000
0001E000
0001F000
6001F800
4000FC00
C0007E00
C0001F00
C0000700
E0000380
FFFFFF80
FFFFFF80
FFFFFF80
7FFFFF80
3FFFFF80
ENDCHAR
STARTCHAR 06B0
ENCODING 1712
SWIDTH 748 0
DWIDTH 26 0
BBX 25 25 1 5
BITMAP
00000100
00000700
00001F00
00007F00
0001FC00
0003E000
00038700
00021F00
00007F00
0000FF80
0001FC80
0001E480
0001E780
0001F300
6001F800
4000FC00
C0007E00
C0001F00
C0000700
E0000380
FFFFFF80
FFFFFF80
FFFFFF80
7FFFFF80
3FFFFF80
ENDCHAR
STARTCHAR 06B1
ENCODING 1713
SWIDTH 748 0
DWIDTH 26 0
BBX 25 26 1 5
BITMAP
00003000
00007100
00039700
00031F00
00007F00
0001FC00
0003E000
00038700
00021F00
00007F00
0000FF00
0001F800
0001E000
0001E000
0001F000
6001F800
4000FC00
C0007E00
C0001F00
C0000700
E0000380
FFFFFF80
FFFFFF80
FFFFFF80
7FFFFF80
3FFFFF80
ENDCHAR
STARTCHAR 06B2
ENCODING 1714
SWIDTH 748 0
DWIDTH 26 0
BBX 25 33 1 -3
BITMAP
00000100
00000700
00001F00
00007F00
0001FC00
0003E000
00038700
00021F00
00007F00
0000FF00
0001F800
0001E000
0001E000
0001F000
6001F800
4000FC00
C0007E00
C0001F00
C0000700
E0000380
FFFFFF80
FFFFFF80
FFFFFF80
7FFFFF80
3FFFFF80
00000000
00020000
00038000
00378000
003F8000
007B0000
00700000
00100000
ENDCHAR
STARTCHAR 06B3
ENCODING 1715
SWIDTH 748 0
DWIDTH 26 0
BBX 25 36 1 -6
BITMAP
00000100
00000700
00001F00
00007F00
0001FC00
0003E000
00038700
00021F00
00007F00
0000FF00
0001F800
0001E000
0001E000
0001F000
6001F800
4000FC00
C0007E00
C0001F00
C0000700
E0000380
FFFFFF80
FFFFFF80
FFFFFF80
7FFFFF80
3FFFFF80
00000000
00100000
001C0000
003C0000
003C0000
00180000
00060000
00078000
000F0000
000F0000
00020000
ENDCHAR
STARTCHAR 06B4
ENCODING 1716
SWIDTH 748 0
DWIDTH 26 0
BBX 25 26 1 5
BITMAP
00030000
00037100
00006700
00071F00
00007F00
0001FC00
0003E000
00038700
00021F00
00007F00
0000FF00
0001F800
0001E000
0001E000
0001F000
6001F800
4000FC00
C0007E00
C0001F00
C0000700
E0000380
FFFFFF80
FFFFFF80
FFFFFF80
7FFFFF80
3FFFFF80
ENDCHAR
STARTCHAR 06B5
ENCODING 1717
SWIDTH 460 0
DWIDTH 16 0
BBX 15 32 1 -1
BITMAP
0198
00F0
00F0
0060
0010
0010
0038
003E
003C
003C
001C
0018
0018
0018
001C
001C
000C
000C
300C
200C
600E
4006
C006
C006
C00E
C00E
C01E
F9FC
FFFC
FFF8
7FF0
3FC0
ENDCHAR
STARTCHAR 06B6
ENCODING 1718
SWIDTH 460 0
DWIDTH 16 0
BBX 15 32 1 -1
BITMAP
0100
03C0
03E0
07C0
03D0
0090
0038
003E
003C
003C
001C
0018
0018
0018
001C
001C
000C
000C
300C
200C
600E
4006
C006
C006
C00E
C00E
C01E
F9FC
FFFC
FFF8
7FF0
3FC0
ENDCHAR
STARTCHAR 06B7
ENCODING 1719
SWIDTH 460 0
DWIDTH 16 0
BBX 15 32 1 -1
BITMAP
00C0
00FC
0018
01C0
0010
0010
0038
003E
003C
003C
001C
0018
0018
0018
001C
001C
000C
000C
300C
200C
600E
4006
C006
C006
C00E
C00E
C01E
F9FC
FFFC
FFF8
7FF0
3FC0
ENDCHAR
STARTCHAR 06B8
ENCODING 1720
SWIDTH 460 0
DWIDTH 16 0
BBX 15 33 1 -6
BITMAP
0010
0010
0038
003E
003C
003C
001C
0018
0018
0018
001C
001C
000C
000C
300C
200C
600E
4006
C006
C006
C00E
C00E
C01E
F9FC
FFFC
FFF8
7FF0
3FC0
0000
0000
0580
0700
0180
ENDCHAR
STARTCHAR 06B9
ENCODING 1721
SWIDTH 547 0
DWIDTH 19 0
BBX 18 28 1 -7
BITMAP
00C000
01F000
01F000
03E000
00E000
000000
000180
000180
180180
1003C0
3001C0
2001C0
6000C0
4000C0
C000C0
C000C0
E000C0
E001C0
F80780
FFFF80
7FFF80
3FFE00
0FF800
00C000
01F000
03F000
03E000
00C000
ENDCHAR
STARTCHAR 06BA
ENCODING 1722
SWIDTH 547 0
DWIDTH 19 0
BBX 18 17 1 -1
BITMAP
000180
000180
180180
1003C0
3001C0
2001C0
6000C0
4000C0
C000C0
C000C0
E000C0
E001C0
F80780
FFFF80
7FFF80
3FFE00
0FF800
ENDCHAR
STARTCHAR 06BB
ENCODING 1723
SWIDTH 547 0
DWIDTH 19 0
BBX 18 30 1 -2
BITMAP
010000
018000
038000
018000
010000
019800
00BC00
00FC00
018400
07FC00
07FC00
000000
000000
000180
000180
180180
1003C0
3001C0
2001C0
6000C0
4000C0
C000C0
C000C0
E000C0
E001C0
F80780
FFFF80
7FFF80
3FFE00
0FF800
ENDCHAR
STARTCHAR 06BC
ENCODING 1724
SWIDTH 547 0
DWIDTH 19 0
BBX 18 27 1 -6
BITMAP
00C000
01F000
01F000
03E000
00E000
000000
000180
000180
180180
1003C0
3001C0
2001C0
6000C0
4000C0
C000C0
C000C0
E000C0
E001C0
F80780
FFFF80
7FFF80
3FFE00
0FF800
02C000
024000
03C000
038000
ENDCHAR
STARTCHAR 06BD
ENCODING 1725
SWIDTH 547 0
DWIDTH 19 0
BBX 18 27 1 -1
BITMAP
038000
03C000
078000
01A000
003800
037800
07F800
07B000
030000
010000
000180
000180
180180
1003C0
3001C0
2001C0
6000C0
4000C0
C000C0
C000C0
E000C0
E001C0
F80780
FFFF80
7FFF80
3FFE00
0FF800
ENDCHAR
STARTCHAR 06BE
ENCODING 1726
SWIDTH 460 0
DWIDTH 16 0
BBX 15 17 -1 5
BITMAP
0300
0780
07C0
07E0
07E0
07F0
0FF8
0CF8
1CDC
1FCC
1F8E
FFE6
FFFE
FFFE
FDFE
F07C
001C
ENDCHAR
STARTCHAR 06BF
ENCODING 1727
SWIDTH 576 0
DWIDTH 20 0
BBX 18 33 1 -7
BITMAP
010000
03C000
03E000
07C000
03C000
008000
000000
000000
1FFF80
3FFF00
7FFF00
7FFF00
F3FF00
87C000
1F0000
1C0000
381000
703C00
63BC00
63F800
C79800
C3A000
C03000
E07800
E07800
F03000
780000
7E0000
7FFFC0
3FFFC0
1FFF00
0FFE00
01F800
ENDCHAR
STARTCHAR 06C0
ENCODING 1728
SWIDTH 345 0
DWIDTH 12 0
BBX 10 20 1 4
BITMAP
1C00
2000
3000
1C00
2000
0000
1000
1C00
3E00
3F00
3F80
2F80
63C0
41C0
6380
7F80
FF80
7F00
7E00
1000
ENDCHAR
STARTCHAR 06C1
ENCODING 1729
SWIDTH 374 0
DWIDTH 13 0
BBX 12 10 1 2
BITMAP
0700
0F80
1FC0
1FF0
3BF0
61F0
60F0
4070
8000
8000
ENDCHAR
STARTCHAR 06C2
ENCODING 1730
SWIDTH 374 0
DWIDTH 13 0
BBX 12 18 1 2
BITMAP
0200
0E00
0800
0E00
1800
0000
0000
0000
0700
0F80
1FC0
1FF0
3BF0
61F0
60F0
4070
8000
8000
ENDCHAR
STARTCHAR 06C3
ENCODING 1731
SWIDTH 374 0
DWIDTH 13 0
BBX 12 19 1 2
BITMAP
0300
0380
3F80
3F80
7900
3800
0000
0000
0000
0700
0F80
1FC0
1FF0
3BF0
61F0
60F0
4070
8000
8000
ENDCHAR
STARTCHAR 06C4
ENCODING 1732
SWIDTH 460 0
DWIDTH 16 0
BBX 16 19 0 -2
BITMAP
0018
003C
003E
007E
007F
0067
00E7
00FF
00FF
007F
007F
001F
01CE
02DE
C47E
63FC
3FF8
1FF0
07E0
ENDCHAR
STARTCHAR 06C5
ENCODING 1733
SWIDTH 460 0
DWIDTH 16 0
BBX 16 19 0 -2
BITMAP
0018
003C
003E
007E
007F
0067
00E7
00FF
00FF
007F
007F
001F
078E
01FE
C03E
607C
3FF8
1FF0
07E0
ENDCHAR
STARTCHAR 06C6
ENCODING 1734
SWIDTH 460 0
DWIDTH 16 0
BBX 16 25 0 -2
BITMAP
006C
006C
0038
0010
0000
0000
0018
003C
003E
007E
007F
0067
00E7
00FF
00FF
007F
007F
001F
000E
001E
C03E
607C
3FF8
1FF0
07E0
ENDCHAR
STARTCHAR 06C7
ENCODING 1735
SWIDTH 460 0
DWIDTH 16 0
BBX 16 29 0 -2
BITMAP
0008
001C
0014
0018
000C
0014
0060
0000
0000
0000
0018
003C
003E
007E
007F
0067
00E7
00FF
00FF
007F
007F
001F
000E
001E
C03E
607C
3FF8
1FF0
07E0
ENDCHAR
STARTCHAR 06C8
ENCODING 1736
SWIDTH 460 0
DWIDTH 16 0
BBX 16 30 0 -2
BITMAP
0020
0020
0020
0030
0030
0010
0010
0010
0010
0020
0000
0018
003C
003E
007E
007F
0067
00E7
00FF
00FF
007F
007F
001F
000E
001E
C03E
607C
3FF8
1FF0
07E0
ENDCHAR
STARTCHAR 06C9
ENCODING 1737
SWIDTH 460 0
DWIDTH 16 0
BBX 16 25 0 -2
BITMAP
0038
0038
006C
006C
0000
0000
0018
003C
003E
007E
007F
0067
00E7
00FF
00FF
007F
007F
001F
000E
001E
C03E
607C
3FF8
1FF0
07E0
ENDCHAR
STARTCHAR 06CA
ENCODING 1738
SWIDTH 460 0
DWIDTH 16 0
BBX 16 26 0 -2
BITMAP
0008
009E
00FE
01FC
03C4
00C0
0000
0018
003C
003E
007E
007F
0067
00E7
00FF
00FF
007F
007F
001F
000E
001E
C03E
607C
3FF8
1FF0
07E0
ENDCHAR
STARTCHAR 06CB
ENCODING 1739
SWIDTH 460 0
DWIDTH 16 0
BBX 16 30 0 -2
BITMAP
00C0
00F0
01E0
00E0
000C
009E
01FE
01FC
01C4
0040
0000
0018
003C
003E
007E
007F
0067
00E7
00FF
00FF
007F
007F
001F
000E
001E
C03E
607C
3FF8
1FF0
07E0
ENDCHAR
STARTCHAR 06CC
ENCODING 1740
SWIDTH 633 0
DWIDTH 22 0
BBX 17 18 3 -2
BITMAP
000700
000F80
001F80
003F80
107980
206000
60C000
40FC00
C0FF00
80FF00
807F00
800300
800F00
C03E00
FFFC00
FFF800
FFE000
3F0000
ENDCHAR
STARTCHAR 06CD
ENCODING 1741
SWIDTH 633 0
DWIDTH 22 0
BBX 19 18 1 -2
BITMAP
0001C0
0003E0
0007E0
000FE0
041E60
181800
783000
903F00
103FC0
203FC0
201FC0
2000C0
2003C0
300F80
3FFF00
3FFE00
3FF800
0FE000
ENDCHAR
STARTCHAR 06CE
ENCODING 1742
SWIDTH 633 0
DWIDTH 22 0
BBX 17 20 3 -2
BITMAP
198000
0F0000
0F0700
060F80
001F80
003F80
107980
206000
60C000
40FC00
C0FF00
80FF00
807F00
800300
800F00
C03E00
FFFC00
FFF800
FFE000
3F0000
ENDCHAR
STARTCHAR 06CF
ENCODING 1743
SWIDTH 460 0
DWIDTH 16 0
BBX 16 27 0 -2
BITMAP
0060
0078
00F8
00F8
0070
0010
0000
0000
0018
003C
003E
007E
007F
0067
00E7
00FF
00FF
007F
007F
001F
000E
001E
C03E
607C
3FF8
1FF0
07E0
ENDCHAR
STARTCHAR 06D0
ENCODING 1744
SWIDTH 633 0
DWIDTH 22 0
BBX 17 22 3 -6
BITMAP
000700
000F80
001F80
003F80
107980
206000
60C000
40FC00
C0FF00
80FF00
807F00
800300
800F00
C03E00
FFFC00
FFF800
FFE000
3F0000
000000
030000
000000
030000
ENDCHAR
STARTCHAR 06D1
ENCODING 1745
SWIDTH 633 0
DWIDTH 22 0
BBX 17 22 3 -6
BITMAP
000700
000F80
001F80
003F80
107980
206000
60C000
40FC00
C0FF00
80FF00
807F00
800300
800F00
C03E00
FFFC00
FFF800
FFE000
3F0000
000000
018000
0C0000
030000
ENDCHAR
STARTCHAR 06D2
ENCODING 1746
SWIDTH 806 0
DWIDTH 28 0
BBX 27 17 1 -1
BITMAP
001C0000
003C0000
003C0000
007C0000
01E40000
03C40000
0F800000
3F800000
7F000000
7C000000
70000000
60000000
FFFFFFE0
FFFFFFC0
FFFFFF80
FFFFFF00
7FFFFE00
ENDCHAR
STARTCHAR 06D3
ENCODING 1747
SWIDTH 806 0
DWIDTH 28 0
BBX 27 22 1 -1
BITMAP
00800000
03800000
02000000
03800000
06000000
001C0000
003C0000
003C0000
007C0000
01E40000
03C40000
0F800000
3F800000
7F000000
7C000000
70000000
60000000
FFFFFFE0
FFFFFFC0
FFFFFF80
FFFFFF00
7FFFFE00
ENDCHAR
STARTCHAR 06D4
ENCODING 1748
SWIDTH 201 0
DWIDTH 7 0
BBX 6 5 1 5
BITMAP
FC
FC
FC
FC
FC
ENDCHAR
STARTCHAR 06D5
ENCODING 1749
SWIDTH 345 0
DWIDTH 12 0
BBX 10 14 1 4
BITMAP
1000
1C00
3E00
3F00
3F80
2F80
63C0
41C0
6380
7F80
FF80
7F00
7E00
1000
ENDCHAR
STARTCHAR 06D6
ENCODING 1750
SWIDTH 0 0
DWIDTH 0 0
BBX 16 13 -8 18
BITMAP
0800
0C00
0C00
0C02
040F
0519
05A3
1FFF
3FFF
6000
4000
FFF8
FFF8
ENDCHAR
STARTCHAR 06D7
ENCODING 1751
SWIDTH 0 0
DWIDTH 0 0
BBX 12 13 -6 18
BITMAP
0040
0D40
0C00
09C0
0D60
05E0
0420
1FE0
3FE0
4000
8000
FFF0
FFF0
ENDCHAR
STARTCHAR 06D8
ENCODING 1752
SWIDTH 0 0
DWIDTH 0 0
BBX 8 5 -4 18
BITMAP
06
0E
1F
FF
E7
ENDCHAR
STARTCHAR 06D9
ENCODING 1753
SWIDTH 0 0
DWIDTH 0 0
BBX 8 11 -4 18
BITMAP
04
C7
E3
F2
52
0C
0C
0C
16
1E
1C
ENDCHAR
STARTCHAR 06DA
ENCODING 1754
SWIDTH 0 0
DWIDTH 0 0
BBX 8 12 -4 18
BITMAP
7E
FE
B8
60
80
88
98
80
80
E0
7F
3C
ENDCHAR
STARTCHAR 06DB
ENCODING 1755
SWIDTH 0 0
DWIDTH 0 0
BBX 4 5 -2 18
BITMAP
40
C0
10
F0
C0
ENDCHAR
STARTCHAR 06DC
ENCODING 1756
SWIDTH 0 0
DWIDTH 0 0
BBX 14 8 -7 19
BITMAP
0114
4114
81FC
81FC
81C4
C100
FF00
7E00
ENDCHAR
STARTCHAR 06DD
ENCODING 1757
SWIDTH 1123 0
DWIDTH 39 0
BBX 37 38 1 -7
BITMAP
0000FC0000
000FFF8000
01FE03FC00
0230006600
023FFFE200
037FFFF700
0680000B00
0C00000180
18000000C0
38000000E0
3000000060
6000000030
6000000030
6000000030
C000000018
C000000018
C000000018
C000000018
C000000018
C000000018
C000000018
C000000018
C000000018
C000000018
6000000030
6000000030
7000000030
3000000060
18000000C0
1C000000C0
0C00000180
06C0001B00
037FFFF600
023FFFE200
0370007400
00BF8FE800
000FFF8000
0000200000
ENDCHAR
STARTCHAR 06DE
ENCODING 1758
SWIDTH 1094 0
DWIDTH 38 0
BBX 36 35 1 -4
BITMAP
0000600000
0000B00000
0001180000
00020C0000
0004060000
07FFFFFE00
0410018600
042000C600
0440006600
0480003600
0500001E00
0600000E00
0400000600
0C00000700
1401F00780
24011806C0
4403080660
C4020C0630
6403080660
34019806C0
1C00F00780
0C00000700
0600000600
0700000E00
0580001E00
04C0003600
0460006600
043000C600
0418018600
07FFFFFE00
0006060000
00030C0000
0001980000
0000F00000
0000600000
ENDCHAR
STARTCHAR 06DF
ENCODING 1759
SWIDTH 0 0
DWIDTH 0 0
BBX 2 2 -1 19
BITMAP
C0
C0
ENDCHAR
STARTCHAR 06E0
ENCODING 1760
SWIDTH 0 0
DWIDTH 0 0
BBX 2 3 -1 18
BITMAP
C0
C0
C0
ENDCHAR
STARTCHAR 06E1
ENCODING 1761
SWIDTH 0 0
DWIDTH 0 0
BBX 10 6 -5 18
BITMAP
1C00
3E00
0700
0380
FFC0
FFC0
ENDCHAR
STARTCHAR 06E2
ENCODING 1762
SWIDTH 0 0
DWIDTH 0 0
BBX 6 11 -3 18
BITMAP
10
38
5C
3C
7C
C0
80
40
40
40
40
ENDCHAR
STARTCHAR 06E3
ENCODING 1763
SWIDTH 0 0
DWIDTH 0 0
BBX 14 8 -7 -7
BITMAP
0104
4114
813C
81FC
80EC
8100
FF00
7E00
ENDCHAR
STARTCHAR 06E4
ENCODING 1764
SWIDTH 0 0
DWIDTH 0 0
BBX 4 1 -2 18
BITMAP
F0
ENDCHAR
STARTCHAR 06E5
ENCODING 1765
SWIDTH 201 0
DWIDTH 7 0
BBX 7 9 0 18
BITMAP
06
0E
0A
0E
0E
02
06
FC
38
ENDCHAR
STARTCHAR 06E6
ENCODING 1766
SWIDTH 374 0
DWIDTH 13 0
BBX 12 8 0 18
BITMAP
0600
0E00
1A00
7000
E000
8000
FFF0
FFE0
ENDCHAR
STARTCHAR 06E7
ENCODING 1767
SWIDTH 0 0
DWIDTH 0 0
BBX 12 8 -6 18
BITMAP
0400
0C00
3000
7000
C000
8000
FFF0
FFE0
ENDCHAR
STARTCHAR 06E8
ENCODING 1768
SWIDTH 0 0
DWIDTH 0 0
BBX 8 11 -4 18
BITMAP
18
18
08
01
41
81
81
81
C3
FF
7E
ENDCHAR
STARTCHAR 06E9
ENCODING 1769
SWIDTH 604 0
DWIDTH 21 0
BBX 19 28 1 0
BITMAP
00C000
00A000
011000
024800
04A400
091200
12C900
252480
4A1240
920B60
491640
251480
151900
0D1A00
0D1A00
0D1A00
0D1A00
0D1A00
0D1A00
0D1A00
0D1A00
0D1A00
0D1A00
0CEA00
140900
27F980
6000C0
FFFFE0
ENDCHAR
STARTCHAR 06EA
ENCODING 1770
SWIDTH 0 0
DWIDTH 0 0
BBX 4 4 -2 -5
BITMAP
60
90
90
60
ENDCHAR
STARTCHAR 06EB
ENCODING 1771
SWIDTH 0 0
DWIDTH 0 0
BBX 6 5 -3 19
BITMAP
30
48
CC
78
20
ENDCHAR
STARTCHAR 06EC
ENCODING 1772
SWIDTH 0 0
DWIDTH 0 0
BBX 2 2 -1 19
BITMAP
C0
C0
ENDCHAR
STARTCHAR 06ED
ENCODING 1773
SWIDTH 0 0
DWIDTH 0 0
BBX 6 10 -3 -7
BITMAP
38
78
1C
7C
E0
80
80
40
40
40
ENDCHAR
STARTCHAR 06F0
ENCODING 1776
SWIDTH 576 0
DWIDTH 20 0
BBX 5 8 7 7
BITMAP
40
60
F0
F8
F8
F8
78
38
ENDCHAR
STARTCHAR 06F1
ENCODING 1777
SWIDTH 576 0
DWIDTH 20 0
BBX 6 19 6 6
BITMAP
60
70
F0
F8
F8
78
7C
3C
1C
1C
1C
0C
0C
0C
0C
04
04
04
04
ENDCHAR
STARTCHAR 06F2
ENCODING 1778
SWIDTH 576 0
DWIDTH 20 0
BBX 10 20 5 5
BITMAP
0080
4080
E0C0
FFC0
FF80
FF80
FF80
7F00
3C00
3C00
1C00
1C00
0C00
0E00
0E00
0600
0600
0400
0400
0400
ENDCHAR
STARTCHAR 06F3
ENCODING 1779
SWIDTH 576 0
DWIDTH 20 0
BBX 14 20 3 5
BITMAP
4080
4088
60CC
FBFC
FFF8
FFF8
FFF8
7FF0
3E00
3800
1C00
1C00
1C00
0C00
0C00
0C00
0C00
0C00
0800
0800
ENDCHAR
STARTCHAR 06F4
ENCODING 1780
SWIDTH 576 0
DWIDTH 20 0
BBX 13 21 3 5
BITMAP
0080
01E0
63F8
6300
FA00
FC08
FFF8
7FF8
3FF0
3FF0
1FC0
1E00
0E00
0E00
0E00
0E00
0600
0400
0400
0400
0400
ENDCHAR
STARTCHAR 06F5
ENCODING 1781
SWIDTH 576 0
DWIDTH 20 0
BBX 13 20 3 5
BITMAP
0400
0600
0700
0780
0FC0
07C0
07E0
0DE0
08F0
1870
3038
3038
6018
6018
F198
FFF8
FFF0
FFF0
7FE0
3C00
ENDCHAR
STARTCHAR 06F6
ENCODING 1782
SWIDTH 576 0
DWIDTH 20 0
BBX 11 20 4 5
BITMAP
0F00
1F80
3FC0
6000
4000
E020
FFE0
FFE0
FFE0
7FC0
0F00
0E00
1C00
1C00
1800
1800
1000
3000
3000
3000
ENDCHAR
STARTCHAR 06F7
ENCODING 1783
SWIDTH 576 0
DWIDTH 20 0
BBX 13 20 3 5
BITMAP
8008
C018
C018
E038
E038
F078
F070
7870
78E0
38C0
1CC0
1C80
0D80
0F80
0780
0700
0700
0300
0300
0300
ENDCHAR
STARTCHAR 06F8
ENCODING 1784
SWIDTH 576 0
DWIDTH 20 0
BBX 13 20 3 5
BITMAP
0600
0600
0600
0700
0700
0700
0D80
0D80
09C0
19C0
18E0
38F0
70F8
7078
F078
E038
E038
E018
C008
8000
ENDCHAR
STARTCHAR 06F9
ENCODING 1785
SWIDTH 576 0
DWIDTH 20 0
BBX 11 20 4 5
BITMAP
0E00
3F00
3F00
7F00
7F00
C300
F700
FF00
FF00
FF00
7F80
0180
0180
01C0
01E0
01E0
01C0
01C0
00C0
0040
ENDCHAR
STARTCHAR 06FA
ENCODING 1786
SWIDTH 892 0
DWIDTH 31 0
BBX 30 29 1 -2
BITMAP
00000200
00000380
00000780
00000780
00000320
00000070
000007F0
000007F0
00000F20
00000700
00000000
00000000
00018004
000180CC
180180DC
1003C08C
3001C18C
2001FFFC
6000FFFC
4000FFFC
C000FFFC
C000FF3C
E000C000
E001C000
F8078380
FFFF83E0
7FFF07C0
3FFF03C0
0FFC0080
ENDCHAR
STARTCHAR 06FB
ENCODING 1787
SWIDTH 1065 0
DWIDTH 37 0
BBX 36 27 1 -2
BITMAP
0000018000
000003C000
000003E000
000007C000
000001C000
0000000000
0000000000
0000000000
00000007C0
0000001FE0
0001803FF0
0001807FF0
180181F0F0
1003C3C030
3001CF8070
2001FFFFF0
6000FFFFF0
4000FFFFF0
C000FFFFF0
C000FFFFF0
E000C00000
E001C00000
F807807000
FFFF807C00
7FFF80F800
3FFF007800
0FFC003000
ENDCHAR
STARTCHAR 06FC
ENCODING 1788
SWIDTH 547 0
DWIDTH 19 0
BBX 17 35 1 -6
BITMAP
060000
0F8000
0F8000
1F0000
070000
000000
000000
030000
1FE000
1FF000
3FF800
380000
700000
700200
783C00
7EFC00
7FF800
3FF800
1FC000
3E0000
380000
700000
606000
C07800
C0F800
C0F800
C07000
C01000
E00000
F80000
FFF880
7FFF80
3FFE00
1FFC00
07F000
ENDCHAR
STARTCHAR 06FD
ENCODING 1789
SWIDTH 460 0
DWIDTH 16 0
BBX 13 23 2 -5
BITMAP
0600
1F80
1FC0
3F80
7F80
7100
F008
F8F0
FFF0
7FF0
3FE0
1F00
3C00
7000
6000
4000
0CC0
0CC0
0CC0
0CC0
0CC0
0CC0
0CC0
ENDCHAR
STARTCHAR 06FE
ENCODING 1790
SWIDTH 374 0
DWIDTH 13 0
BBX 12 22 1 -7
BITMAP
0E00
1F00
1F80
3FC0
23E0
23F0
0FF0
7FF0
7FF0
FFF0
F000
C000
C000
C660
C660
6660
6660
6660
6660
2660
2000
2000
ENDCHAR
STARTCHAR 1E80
ENCODING 7808
SWIDTH 1008 0
DWIDTH 35 0
BBX 34 32 0 -1
BITMAP
0007C00000
0003C00000
0001C00000
0000E00000
0000600000
0000200000
0000000000
0000000000
FFCFFF0FC0
3F01F80180
3F01F80100
1F80FC0100
1F80FC0200
0F807C0200
0FC07E0600
07C07E0400
07E07F0400
07E0FF0C00
03F09F0800
03F19F9800
01F11F9000
01F90F9000
01FA0FF000
00FE0FE000
00FE07E000
007C07E000
007C03C000
007803C000
0038038000
0038018000
0010018000
0010000000
ENDCHAR
STARTCHAR 1E81
ENCODING 7809
SWIDTH 720 0
DWIDTH 25 0
BBX 25 24 0 0
BITMAP
00F80000
00780000
00380000
003C0000
001C0000
000C0000
00000000
00000000
FF3FCF80
7E1F0600
3E0F8200
1E0F8400
1F0F8400
1F17C400
0F97C800
0FB7C800
0FA3F800
07E3F000
07C1F000
03C1F000
03C1E000
0380E000
0180E000
0180C000
ENDCHAR
STARTCHAR 1E82
ENCODING 7810
SWIDTH 1008 0
DWIDTH 35 0
BBX 34 32 0 -1
BITMAP
00007C0000
0000780000
0000700000
0000E00000
0000C00000
0000800000
0000000000
0000000000
FFCFFF0FC0
3F01F80180
3F01F80100
1F80FC0100
1F80FC0200
0F807C0200
0FC07E0600
07C07E0400
07E07F0400
07E0FF0C00
03F09F0800
03F19F9800
01F11F9000
01F90F9000
01FA0FF000
00FE0FE000
00FE07E000
007C07E000
007C03C000
007803C000
0038038000
0038018000
0010018000
0010000000
ENDCHAR
STARTCHAR 1E83
ENCODING 7811
SWIDTH 720 0
DWIDTH 25 0
BBX 25 24 0 0
BITMAP
000F8000
000F0000
000F0000
001E0000
001C0000
00180000
00000000
00000000
FF3FCF80
7E1F0600
3E0F8200
1E0F8400
1F0F8400
1F17C400
0F97C800
0FB7C800
0FA3F800
07E3F000
07C1F000
03C1F000
03C1E000
0380E000
0180E000
0180C000
ENDCHAR
STARTCHAR 1E84
ENCODING 7812
SWIDTH 1008 0
DWIDTH 35 0
BBX 34 31 0 -1
BITMAP
00030C0000
00079E0000
000F9E0000
00079E0000
00030C0000
0000000000
0000000000
FFCFFF0FC0
3F01F80180
3F01F80100
1F80FC0100
1F80FC0200
0F807C0200
0FC07E0600
07C07E0400
07E07F0400
07E0FF0C00
03F09F0800
03F19F9800
01F11F9000
01F90F9000
01FA0FF000
00FE0FE000
00FE07E000
007C07E000
007C03C000
007803C000
0038038000
0038018000
0010018000
0010000000
ENDCHAR
STARTCHAR 1E85
ENCODING 7813
SWIDTH 720 0
DWIDTH 25 0
BBX 25 23 0 0
BITMAP
00E38000
01F3C000
01F7C000
00E38000
00000000
00000000
00000000
FF3FCF80
7E1F0600
3E0F8200
1E0F8400
1F0F8400
1F17C400
0F97C800
0FB7C800
0FA3F800
07E3F000
07C1F000
03C1F000
03C1E000
0380E000
0180E000
0180C000
ENDCHAR
STARTCHAR 1EA0
ENCODING 7840
SWIDTH 720 0
DWIDTH 25 0
BBX 25 30 0 -7
BITMAP
00080000
000C0000
001C0000
001E0000
003E0000
003E0000
007F0000
005F0000
00DF8000
009F8000
008FC000
018FC000
0107E000
0307E000
0203E000
07FFF000
0403F000
0C01F800
0801F800
0800FC00
1800FC00
3800FE00
FF03FF80
00000000
00000000
00380000
007C0000
007C0000
007C0000
007C0000
ENDCHAR
STARTCHAR 1EA1
ENCODING 7841
SWIDTH 489 0
DWIDTH 17 0
BBX 14 23 2 -7
BITMAP
1FC0
71F0
F0F0
F0F8
F8F8
F0F8
01F8
06F8
1CF8
38F8
70F8
F0F8
F0F8
FFF8
FEFC
7878
0000
0000
0F00
0F80
0F80
0F80
0F00
ENDCHAR
STARTCHAR 1EA2
ENCODING 7842
SWIDTH 720 0
DWIDTH 25 0
BBX 25 31 0 0
BITMAP
001F0000
00638000
00338000
00070000
00040000
00080000
00000000
00000000
00080000
000C0000
001C0000
001E0000
003E0000
003E0000
007F0000
005F0000
00DF8000
009F8000
008FC000
018FC000
0107E000
0307E000
0203E000
07FFF000
0403F000
0C01F800
0801F800
0800FC00
1800FC00
3800FE00
FF03FF80
ENDCHAR
STARTCHAR 1EA3
ENCODING 7843
SWIDTH 489 0
DWIDTH 17 0
BBX 14 24 2 0
BITMAP
0780
18E0
1CE0
00C0
0100
0200
0000
0000
1FC0
71F0
F0F0
F0F8
F8F8
F0F8
01F8
06F8
1CF8
38F8
70F8
F0F8
F0F8
FFF8
FEFC
7878
ENDCHAR
STARTCHAR 1EA4
ENCODING 7844
SWIDTH 720 0
DWIDTH 25 0
BBX 25 31 0 0
BITMAP
000F8000
000E0000
00080000
00000000
003E0000
00618000
00000000
00000000
00080000
000C0000
001C0000
001E0000
003E0000
003E0000
007F0000
005F0000
00DF8000
009F8000
008FC000
018FC000
0107E000
0307E000
0203E000
07FFF000
0403F000
0C01F800
0801F800
0800FC00
1800FC00
3800FE00
FF03FF80
ENDCHAR
STARTCHAR 1EA5
ENCODING 7845
SWIDTH 489 0
DWIDTH 17 0
BBX 14 31 2 0
BITMAP
01E0
03C0
0380
0380
0700
0600
0000
0F80
0FC0
1FC0
1CE0
3860
2030
0000
0000
1FC0
71F0
F0F0
F0F8
F8F8
F0F8
01F8
06F8
1CF8
38F8
70F8
F0F8
F0F8
FFF8
FEFC
7878
ENDCHAR
STARTCHAR 1EA6
ENCODING 7846
SWIDTH 720 0
DWIDTH 25 0
BBX 25 31 0 0
BITMAP
00F80000
00380000
000C0000
00000000
003E0000
00618000
00000000
00000000
00080000
000C0000
001C0000
001E0000
003E0000
003E0000
007F0000
005F0000
00DF8000
009F8000
008FC000
018FC000
0107E000
0307E000
0203E000
07FFF000
0403F000
0C01F800
0801F800
0800FC00
1800FC00
3800FE00
FF03FF80
ENDCHAR
STARTCHAR 1EA7
ENCODING 7847
SWIDTH 489 0
DWIDTH 17 0
BBX 14 31 2 0
BITMAP
3E00
1E00
0F00
0700
0300
0100
0000
0F80
0FC0
1FC0
1CE0
3860
2030
0000
0000
1FC0
71F0
F0F0
F0F8
F8F8
F0F8
01F8
06F8
1CF8
38F8
70F8
F0F8
F0F8
FFF8
FEFC
7878
ENDCHAR
STARTCHAR 1EA8
ENCODING 7848
SWIDTH 720 0
DWIDTH 25 0
BBX 25 31 0 0
BITMAP
003F0000
00330000
00040000
00000000
003E0000
00618000
00000000
00000000
00080000
000C0000
001C0000
001E0000
003E0000
003E0000
007F0000
005F0000
00DF8000
009F8000
008FC000
018FC000
0107E000
0307E000
0203E000
07FFF000
0403F000
0C01F800
0801F800
0800FC00
1800FC00
3800FE00
FF03FF80
ENDCHAR
STARTCHAR 1EA9
ENCODING 7849
SWIDTH 489 0
DWIDTH 17 0
BBX 14 31 2 0
BITMAP
07C0
1CE0
0CE0
00C0
0100
0100
0000
0F80
0FC0
1FC0
1CE0
3860
2030
0000
0000
1FC0
71F0
F0F0
F0F8
F8F8
F0F8
01F8
06F8
1CF8
38F8
70F8
F0F8
F0F8
FFF8
FEFC
7878
ENDCHAR
STARTCHAR 1EAA
ENCODING 7850
SWIDTH 720 0
DWIDTH 25 0
BBX 25 31 0 0
BITMAP
00784000
00FF8000
00870000
00000000
003E0000
00618000
00000000
00000000
00080000
000C0000
001C0000
001E0000
003E0000
003E0000
007F0000
005F0000
00DF8000
009F8000
008FC000
018FC000
0107E000
0307E000
0203E000
07FFF000
0403F000
0C01F800
0801F800
0800FC00
1800FC00
3800FE00
FF03FF80
ENDCHAR
STARTCHAR 1EAB
ENCODING 7851
SWIDTH 489 0
DWIDTH 17 0
BBX 14 30 2 0
BITMAP
1C10
3FB0
3FF0
6FE0
41C0
0000
0F80
0FC0
1FC0
1CE0
3860
2030
0000
0000
1FC0
71F0
F0F0
F0F8
F8F8
F0F8
01F8
06F8
1CF8
38F8
70F8
F0F8
F0F8
FFF8
FEFC
7878
ENDCHAR
STARTCHAR 1EAC
ENCODING 7852
SWIDTH 720 0
DWIDTH 25 0
BBX 25 34 0 -7
BITMAP
003E0000
00618000
00000000
00000000
00080000
000C0000
001C0000
001E0000
003E0000
003E0000
007F0000
005F0000
00DF8000
009F8000
008FC000
018FC000
0107E000
0307E000
0203E000
07FFF000
0403F000
0C01F800
0801F800
0800FC00
1800FC00
3800FE00
FF03FF80
00000000
00000000
00380000
007C0000
007C0000
007C0000
007C0000
ENDCHAR
STARTCHAR 1EAD
ENCODING 7853
SWIDTH 489 0
DWIDTH 17 0
BBX 14 31 2 -7
BITMAP
0F80
0FC0
1FC0
1CE0
3860
2030
0000
0000
1FC0
71F0
F0F0
F0F8
F8F8
F0F8
01F8
06F8
1CF8
38F8
70F8
F0F8
F0F8
FFF8
FEFC
7878
0000
0000
0F00
0F80
0F80
0F80
0F00
ENDCHAR
STARTCHAR 1EAE
ENCODING 7854
SWIDTH 720 0
DWIDTH 25 0
BBX 25 31 0 0
BITMAP
000F0000
000E0000
00180000
00000000
00638000
003E0000
00000000
00000000
00080000
000C0000
001C0000
001E0000
003E0000
003E0000
007F0000
005F0000
00DF8000
009F8000
008FC000
018FC000
0107E000
0307E000
0203E000
07FFF000
0403F000
0C01F800
0801F800
0800FC00
1800FC00
3800FE00
FF03FF80
ENDCHAR
STARTCHAR 1EAF
ENCODING 7855
SWIDTH 489 0
DWIDTH 17 0
BBX 14 31 2 0
BITMAP
01E0
03C0
0380
0300
0700
0600
0000
2010
2030
38F0
1FE0
1FC0
0780
0000
0000
1FC0
71F0
F0F0
F0F8
F8F8
F0F8
01F8
06F8
1CF8
38F8
70F8
F0F8
F0F8
FFF8
FEFC
7878
ENDCHAR
STARTCHAR 1EB0
ENCODING 7856
SWIDTH 720 0
DWIDTH 25 0
BBX 25 31 0 0
BITMAP
00780000
001C0000
000C0000
00000000
00638000
003E0000
00000000
00000000
00080000
000C0000
001C0000
001E0000
003E0000
003E0000
007F0000
005F0000
00DF8000
009F8000
008FC000
018FC000
0107E000
0307E000
0203E000
07FFF000
0403F000
0C01F800
0801F800
0800FC00
1800FC00
3800FE00
FF03FF80
ENDCHAR
STARTCHAR 1EB1
ENCODING 7857
SWIDTH 489 0
DWIDTH 17 0
BBX 14 31 2 0
BITMAP
3E00
1E00
0E00
0700
0300
0100
0000
2010
2030
38F0
1FE0
1FC0
0780
0000
0000
1FC0
71F0
F0F0
F0F8
F8F8
F0F8
01F8
06F8
1CF8
38F8
70F8
F0F8
F0F8
FFF8
FEFC
7878
ENDCHAR
STARTCHAR 1EB2
ENCODING 7858
SWIDTH 720 0
DWIDTH 25 0
BBX 25 31 0 0
BITMAP
003F0000
00330000
00040000
00000000
00638000
003E0000
00000000
00000000
00080000
000C0000
001C0000
001E0000
003E0000
003E0000
007F0000
005F0000
00DF8000
009F8000
008FC000
018FC000
0107E000
0307E000
0203E000
07FFF000
0403F000
0C01F800
0801F800
0800FC00
1800FC00
3800FE00
FF03FF80
ENDCHAR
STARTCHAR 1EB3
ENCODING 7859
SWIDTH 489 0
DWIDTH 17 0
BBX 14 31 2 0
BITMAP
0F80
18C0
08C0
0180
0300
0200
0000
2010
2030
38F0
1FE0
1FC0
0780
0000
0000
1FC0
71F0
F0F0
F0F8
F8F8
F0F8
01F8
06F8
1CF8
38F8
70F8
F0F8
F0F8
FFF8
FEFC
7878
ENDCHAR
STARTCHAR 1EB4
ENCODING 7860
SWIDTH 720 0
DWIDTH 25 0
BBX 25 31 0 0
BITMAP
00784000
00FF8000
00870000
00000000
00638000
003E0000
00000000
00000000
00080000
000C0000
001C0000
001E0000
003E0000
003E0000
007F0000
005F0000
00DF8000
009F8000
008FC000
018FC000
0107E000
0307E000
0203E000
07FFF000
0403F000
0C01F800
0801F800
0800FC00
1800FC00
3800FE00
FF03FF80
ENDCHAR
STARTCHAR 1EB5
ENCODING 7861
SWIDTH 489 0
DWIDTH 17 0
BBX 14 30 2 0
BITMAP
1C10
3FB0
3FF0
6FE0
41C0
0000
2010
2030
38F0
1FE0
1FC0
0780
0000
0000
1FC0
71F0
F0F0
F0F8
F8F8
F0F8
01F8
06F8
1CF8
38F8
70F8
F0F8
F0F8
FFF8
FEFC
7878
ENDCHAR
STARTCHAR 1EB6
ENCODING 7862
SWIDTH 720 0
DWIDTH 25 0
BBX 25 34 0 -7
BITMAP
00638000
003E0000
00000000
00000000
00080000
000C0000
001C0000
001E0000
003E0000
003E0000
007F0000
005F0000
00DF8000
009F8000
008FC000
018FC000
0107E000
0307E000
0203E000
07FFF000
0403F000
0C01F800
0801F800
0800FC00
1800FC00
3800FE00
FF03FF80
00000000
00000000
00380000
007C0000
007C0000
007C0000
007C0000
ENDCHAR
STARTCHAR 1EB7
ENCODING 7863
SWIDTH 489 0
DWIDTH 17 0
BBX 14 31 2 -7
BITMAP
2010
2030
38F0
1FE0
1FC0
0780
0000
0000
1FC0
71F0
F0F0
F0F8
F8F8
F0F8
01F8
06F8
1CF8
38F8
70F8
F0F8
F0F8
FFF8
FEFC
7878
0000
0000
0F00
0F80
0F80
0F80
0F00
ENDCHAR
STARTCHAR 1EB8
ENCODING 7864
SWIDTH 662 0
DWIDTH 23 0
BBX 20 30 1 -7
BITMAP
FFFFE0
1F07E0
1F00E0
1F0060
1F0020
1F0420
1F0420
1F0400
1F0400
1F0C00
1F3C00
1FFC00
1F1C00
1F0C00
1F0400
1F0400
1F0410
1F0010
1F0010
1F8030
1F8070
1F83F0
FFFFF0
000000
000000
00F000
01F000
01F800
01F000
00F000
ENDCHAR
STARTCHAR 1EB9
ENCODING 7865
SWIDTH 432 0
DWIDTH 15 0
BBX 14 23 1 -7
BITMAP
0FC0
1C70
3870
7878
7878
7878
FFFC
FFFC
F800
F800
7C00
7C00
7E08
3F18
3FF0
0FE0
0000
0000
0780
0F80
0FC0
0F80
0780
ENDCHAR
STARTCHAR 1EBA
ENCODING 7866
SWIDTH 662 0
DWIDTH 23 0
BBX 20 31 1 0
BITMAP
007C00
00C600
00C600
000C00
001800
001000
000000
000000
FFFFE0
1F07E0
1F00E0
1F0060
1F0020
1F0420
1F0420
1F0400
1F0400
1F0C00
1F3C00
1FFC00
1F1C00
1F0C00
1F0400
1F0400
1F0410
1F0010
1F0010
1F8030
1F8070
1F83F0
FFFFF0
ENDCHAR
STARTCHAR 1EBB
ENCODING 7867
SWIDTH 432 0
DWIDTH 15 0
BBX 14 24 1 0
BITMAP
03C0
0C70
0E70
0060
0080
0100
0000
0000
0FC0
1C70
3870
7878
7878
7878
FFFC
FFFC
F800
F800
7C00
7C00
7E08
3F18
3FF0
0FE0
ENDCHAR
STARTCHAR 1EBC
ENCODING 7868
SWIDTH 662 0
DWIDTH 23 0
BBX 20 30 1 0
BITMAP
00E080
01F980
03FF80
037F00
021E00
000000
000000
FFFFE0
1F07E0
1F00E0
1F0060
1F0020
1F0420
1F0420
1F0400
1F0400
1F0C00
1F3C00
1FFC00
1F1C00
1F0C00
1F0400
1F0400
1F0410
1F0010
1F0010
1F8030
1F8070
1F83F0
FFFFF0
ENDCHAR
STARTCHAR 1EBD
ENCODING 7869
SWIDTH 432 0
DWIDTH 15 0
BBX 14 23 1 0
BITMAP
1F08
1FF8
3FF0
23F0
0000
0000
0000
0FC0
1C70
3870
7878
7878
7878
FFFC
FFFC
F800
F800
7C00
7C00
7E08
3F18
3FF0
0FE0
ENDCHAR
STARTCHAR 1EBE
ENCODING 7870
SWIDTH 662 0
DWIDTH 23 0
BBX 20 31 1 0
BITMAP
003E00
003800
002000
000000
00F800
018400
000200
000000
FFFFE0
1F07E0
1F00E0
1F0060
1F0020
1F0420
1F0420
1F0400
1F0400
1F0C00
1F3C00
1FFC00
1F1C00
1F0C00
1F0400
1F0400
1F0410
1F0010
1F0010
1F8030
1F8070
1F83F0
FFFFF0
ENDCHAR
STARTCHAR 1EBF
ENCODING 7871
SWIDTH 432 0
DWIDTH 15 0
BBX 14 31 1 0
BITMAP
01F0
01E0
01C0
0380
0300
0200
0000
07C0
07C0
0FE0
1EE0
1870
3010
0000
0000
0FC0
1C70
3870
7878
7878
7878
FFFC
FFFC
F800
F800
7C00
7C00
7E08
3F18
3FF0
0FE0
ENDCHAR
STARTCHAR 1EC0
ENCODING 7872
SWIDTH 662 0
DWIDTH 23 0
BBX 20 31 1 0
BITMAP
01F000
007000
003000
000000
00F800
018400
000200
000000
FFFFE0
1F07E0
1F00E0
1F0060
1F0020
1F0420
1F0420
1F0400
1F0400
1F0C00
1F3C00
1FFC00
1F1C00
1F0C00
1F0400
1F0400
1F0410
1F0010
1F0010
1F8030
1F8070
1F83F0
FFFFF0
ENDCHAR
STARTCHAR 1EC1
ENCODING 7873
SWIDTH 432 0
DWIDTH 15 0
BBX 14 31 1 0
BITMAP
1F00
0F00
0700
0380
0180
0080
0000
07C0
07C0
0FE0
1EE0
1870
3010
0000
0000
0FC0
1C70
3870
7878
7878
7878
FFFC
FFFC
F800
F800
7C00
7C00
7E08
3F18
3FF0
0FE0
ENDCHAR
STARTCHAR 1EC2
ENCODING 7874
SWIDTH 662 0
DWIDTH 23 0
BBX 20 31 1 0
BITMAP
00F800
008C00
003000
000000
00F800
018400
000200
000000
FFFFE0
1F07E0
1F00E0
1F0060
1F0020
1F0420
1F0420
1F0400
1F0400
1F0C00
1F3C00
1FFC00
1F1C00
1F0C00
1F0400
1F0400
1F0410
1F0010
1F0010
1F8030
1F8070
1F83F0
FFFFF0
ENDCHAR
STARTCHAR 1EC3
ENCODING 7875
SWIDTH 432 0
DWIDTH 15 0
BBX 14 31 1 0
BITMAP
07E0
0C70
0470
00C0
0080
0100
0000
07C0
07C0
0FE0
1EE0
1870
3010
0000
0000
0FC0
1C70
3870
7878
7878
7878
FFFC
FFFC
F800
F800
7C00
7C00
7E08
3F18
3FF0
0FE0
ENDCHAR
STARTCHAR 1EC4
ENCODING 7876
SWIDTH 662 0
DWIDTH 23 0
BBX 20 31 1 0
BITMAP
01E100
03FE00
021C00
000000
00F800
018400
000200
000000
FFFFE0
1F07E0
1F00E0
1F0060
1F0020
1F0420
1F0420
1F0400
1F0400
1F0C00
1F3C00
1FFC00
1F1C00
1F0C00
1F0400
1F0400
1F0410
1F0010
1F0010
1F8030
1F8070
1F83F0
FFFFF0
ENDCHAR
STARTCHAR 1EC5
ENCODING 7877
SWIDTH 432 0
DWIDTH 15 0
BBX 14 30 1 0
BITMAP
0E08
1FD8
3FF0
37F0
21E0
0000
07C0
07C0
0FE0
1EE0
1870
3010
0000
0000
0FC0
1C70
3870
7878
7878
7878
FFFC
FFFC
F800
F800
7C00
7C00
7E08
3F18
3FF0
0FE0
ENDCHAR
STARTCHAR 1EC6
ENCODING 7878
SWIDTH 662 0
DWIDTH 23 0
BBX 20 34 1 -7
BITMAP
00F800
018400
000200
000000
FFFFE0
1F07E0
1F00E0
1F0060
1F0020
1F0420
1F0420
1F0400
1F0400
1F0C00
1F3C00
1FFC00
1F1C00
1F0C00
1F0400
1F0400
1F0410
1F0010
1F0010
1F8030
1F8070
1F83F0
FFFFF0
000000
000000
00F000
01F000
01F800
01F000
00F000
ENDCHAR
STARTCHAR 1EC7
ENCODING 7879
SWIDTH 432 0
DWIDTH 15 0
BBX 14 31 1 -7
BITMAP
07C0
07C0
0FE0
1EE0
1870
3010
0000
0000
0FC0
1C70
3870
7878
7878
7878
FFFC
FFFC
F800
F800
7C00
7C00
7E08
3F18
3FF0
0FE0
0000
0000
0780
0F80
0FC0
0F80
0780
ENDCHAR
STARTCHAR 1EC8
ENCODING 7880
SWIDTH 403 0
DWIDTH 14 0
BBX 12 31 1 0
BITMAP
0F80
31C0
19C0
0380
0200
0400
0000
0000
FFF0
1F80
1F80
1F00
1F00
1F00
1F00
1F00
1F00
1F00
1F00
1F00
1F00
1F00
1F00
1F00
1F00
1F00
1F00
1F00
1F80
1F80
FFF0
ENDCHAR
STARTCHAR 1EC9
ENCODING 7881
SWIDTH 288 0
DWIDTH 10 0
BBX 8 24 1 0
BITMAP
3C
67
63
06
0C
08
00
00
FC
7C
3C
3C
3C
3C
3C
3C
3C
3C
3C
3C
3C
3C
7E
FF
ENDCHAR
STARTCHAR 1ECA
ENCODING 7882
SWIDTH 403 0
DWIDTH 14 0
BBX 12 30 1 -7
BITMAP
FFF0
1F80
1F80
1F00
1F00
1F00
1F00
1F00
1F00
1F00
1F00
1F00
1F00
1F00
1F00
1F00
1F00
1F00
1F00
1F00
1F80
1F80
FFF0
0000
0000
0F00
1F00
1F80
1F00
0F00
ENDCHAR
STARTCHAR 1ECB
ENCODING 7883
SWIDTH 288 0
DWIDTH 10 0
BBX 8 30 1 -6
BITMAP
3C
7E
7E
3C
18
00
00
FC
7C
3C
3C
3C
3C
3C
3C
3C
3C
3C
3C
3C
3C
7E
FF
00
00
3C
7E
7E
7E
3C
ENDCHAR
STARTCHAR 1ECC
ENCODING 7884
SWIDTH 777 0
DWIDTH 27 0
BBX 25 30 1 -7
BITMAP
01FFC000
03C1F000
0F80F800
1F007C00
1F003E00
3E003E00
7E003F00
7E003F00
7E001F00
7E001F80
FE001F80
FC001F80
FE001F80
7E001F80
7E001F00
7E003F00
7E003F00
3E003E00
3F003E00
1F007C00
0F807800
07C1F000
01FFC000
00080000
00000000
001C0000
003E0000
003E0000
003E0000
003E0000
ENDCHAR
STARTCHAR 1ECD
ENCODING 7885
SWIDTH 489 0
DWIDTH 17 0
BBX 15 23 1 -7
BITMAP
0FE0
1C78
3C38
7C3C
783E
783E
F83E
F83E
F83E
F83E
783E
783E
783C
3C3C
1C78
0FE0
0000
0000
03C0
07C0
07C0
07C0
03C0
ENDCHAR
ENDFONT
